<?xml version="1.0" encoding="UTF-8" standalone="no"?>
<svg width="29px" height="32px" viewBox="0 0 29 32" version="1.1" xmlns="http://www.w3.org/2000/svg" xmlns:xlink="http://www.w3.org/1999/xlink" xmlns:sketch="http://www.bohemiancoding.com/sketch/ns">
    <!-- Generator: Sketch 3.2 (9964) - http://www.bohemiancoding.com/sketch -->
    <title>cube</title>
    <desc>Created with Sketch.</desc>
    <defs></defs>
    <g id="Page-1" stroke="none" stroke-width="1" fill="none" fill-rule="evenodd" sketch:type="MSPage">
        <g id="cube" sketch:type="MSLayerGroup">
            <path d="M28.937244,23.4168511 C28.964968,23.2781844 28.9449,23.0840284 28.951976,22.9375319 C28.964736,22.6642837 28.992344,22.432227 28.951512,22.1834894 C28.925412,22.0251915 28.9507,21.8250213 28.949076,21.6487943 C28.947684,21.487773 28.883188,21.3102979 28.889452,21.1535887 C28.896876,20.9691915 28.923672,20.8056738 28.928892,20.6292199 C28.913464,20.5207376 28.898152,20.4121418 28.882724,20.3035461 C28.87356,20.0363121 28.901632,19.8098156 28.878084,19.535773 C28.8724,19.4702979 28.825304,19.3940426 28.828436,19.3241418 C28.842008,19.0319433 28.837252,18.7451915 28.817532,18.4601418 C28.809296,18.3409929 28.865672,18.1070071 28.866136,17.940766 C28.8666,17.7422979 28.823564,17.5232908 28.824028,17.3272057 C28.824608,17.1238582 28.859872,16.9446809 28.87472,16.7391773 C28.888756,16.5446809 28.84978,16.324539 28.842008,16.1304965 C28.8521,16.054695 28.862076,15.9788936 28.872168,15.9030922 C28.87762,15.4567943 28.88516,14.9745248 28.867296,14.5320851 C28.864744,14.466156 28.889452,14.3988652 28.882144,14.3542695 C28.808252,13.9070638 28.786908,13.4756312 28.745032,13.0296738 C28.728096,12.8500426 28.778324,12.6540709 28.752456,12.4770496 C28.738188,12.3790071 28.693296,12.2659858 28.68738,12.1644255 C28.69956,12.0200851 28.711856,11.8757447 28.723804,11.7314043 C28.694108,11.373844 28.709072,11.0769929 28.712784,10.7167092 C28.697356,10.7229504 28.699096,10.5639716 28.695036,10.5334468 C28.670328,10.3449645 28.702576,10.1804255 28.678448,10.0029504 C28.644576,9.75217021 28.625436,9.49185816 28.603164,9.25582979 C28.588084,9.09344681 28.516048,8.92334752 28.51106,8.7551773 C28.52498,8.70831206 28.5389,8.66144681 28.55282,8.61469504 C28.539132,8.3350922 28.473592,8.04300709 28.43856,7.76601418 C28.287412,7.68408511 28.19844,7.58910638 28.035924,7.48459574 C27.860648,7.37202837 27.61902,7.25163121 27.38818,7.13225532 C27.33888,7.11398582 27.289696,7.09582979 27.240396,7.07767376 C26.948424,6.89202837 26.638472,6.71353191 26.36274,6.60414184 C26.255904,6.53265248 26.149068,6.46093617 26.042232,6.38921986 C25.984464,6.34496454 25.926232,6.34723404 25.858372,6.29253901 C25.638784,6.11563121 25.40226,6.00521986 25.118524,5.89163121 C25.0531,5.84567376 24.987444,5.79937589 24.92202,5.75341844 C24.796856,5.66899291 24.646056,5.6137305 24.553372,5.58275177 C24.464748,5.55302128 24.402688,5.48289362 24.347008,5.46246809 C24.176952,5.39994326 24.084616,5.2964539 23.960032,5.28215603 C23.85482,5.19092199 23.671192,5.13622695 23.524452,5.01809929 C23.396968,4.91563121 23.280736,4.87648227 23.179932,4.82530496 C22.979368,4.7231773 22.883668,4.65475177 22.696908,4.58269504 C22.57766,4.51222695 22.45818,4.44164539 22.338932,4.3711773 C22.19486,4.30297872 22.05044,4.23478014 21.906252,4.16658156 C21.712416,4.02916312 21.508952,3.9328227 21.252708,3.84601418 C21.205612,3.80947518 21.158284,3.77316312 21.111188,3.73673759 C20.999248,3.69974468 20.747528,3.60204255 20.650668,3.51761702 C20.625148,3.49526241 20.586404,3.45475177 20.550328,3.44158865 C20.36612,3.37452482 20.16428,3.27182979 20.048976,3.18933333 C19.980304,3.14178723 19.911632,3.09401418 19.84296,3.04635461 C19.54136,2.91143262 19.031076,2.63568794 18.75604,2.544 C18.610228,2.49520567 18.395048,2.31693617 18.275104,2.23296454 C18.250396,2.22751773 18.225572,2.22229787 18.200864,2.21696454 C18.10122,2.18587234 17.946128,2.07977305 17.855764,2.04697872 C17.667728,1.93634043 17.479344,1.8258156 17.291308,1.71529078 C17.13552,1.66660993 16.959664,1.56096454 16.8026,1.50456738 C16.736828,1.46598582 16.671056,1.42751773 16.605284,1.38904965 C16.51782,1.34695035 16.430356,1.30485106 16.342892,1.2626383 C16.269348,1.19478014 16.10834,1.0738156 15.994892,1.03307801 C15.71394,0.932312057 15.410136,0.664737589 15.107956,0.554893617 C15.01446,0.520851064 14.937204,0.509617021 14.857628,0.49270922 C14.736756,0.425191489 14.615768,0.357673759 14.49478,0.290269504 C14.427152,0.26235461 14.359524,0.234439716 14.291896,0.206638298 C14.229952,0.150241135 14.238652,0.0670638298 14.162324,0.010893617 C14.127756,0.0236028369 14.093072,0.0363120567 14.058504,0.0490212766 C14.01338,0.140595745 14.018716,0.203801418 13.982176,0.25248227 C13.974056,0.259744681 13.966168,0.267120567 13.958164,0.274496454 C13.927888,0.273588652 13.916056,0.258382979 13.893784,0.240680851 C13.830912,0.265078014 13.759688,0.276312057 13.700064,0.312737589 C13.608308,0.368680851 13.545552,0.441078014 13.447764,0.469900709 C13.440456,0.471943262 13.399392,0.532879433 13.37074,0.545248227 C12.832268,0.778439716 12.310152,1.14768794 11.797084,1.44510638 C11.703356,1.49946099 11.676676,1.56051064 11.586544,1.61270922 C11.368116,1.73866667 11.1128,1.8372766 10.879524,1.97129078 C10.7706,2.0338156 10.697288,2.13912057 10.587668,2.20039716 C10.121348,2.4608227 9.657232,2.80147518 9.183024,3.07313475 C9.103448,3.11886525 9.01088,3.17582979 8.944876,3.22609929 C8.92852,3.2484539 8.912396,3.27092199 8.89604,3.29339007 C8.574024,3.45622695 8.297944,3.63483688 7.996924,3.82910638 C7.923496,3.87642553 7.809584,3.89968794 7.740912,3.94950355 C7.538956,4.09634043 7.318092,4.28743262 7.086556,4.42836879 C6.665476,4.6848227 6.163776,4.96011348 5.734924,5.24811348 C5.593288,5.34320567 5.49666,5.41639716 5.372308,5.49798582 C5.308856,5.53951773 5.276956,5.60658156 5.20898,5.64391489 C4.817712,5.85883688 4.364036,6.12992908 3.986804,6.35767376 C3.65748,6.55648227 3.351704,6.79693617 3.024004,6.98746099 C2.985724,7.02139007 2.947212,7.05531915 2.908816,7.08913475 C2.848264,7.12408511 2.488432,7.30768794 2.463492,7.2955461 C2.308864,7.38655319 2.202144,7.51080851 2.047864,7.59875177 C2.01608,7.61679433 1.96678,7.62791489 1.944624,7.61395745 C1.715756,7.7449078 1.52018,7.88266667 1.307088,7.99750355 C1.210344,8.04958865 1.15536,8.11982979 1.06314,8.18235461 C0.921736,8.27790071 0.745184,8.34167376 0.59798,8.42451064 C0.523624,8.46649645 0.428504,8.59835461 0.344288,8.62729078 C0.271208,8.62377305 0.198128,8.62002837 0.125048,8.61639716 C0.006496,8.75631206 0.061364,8.91937589 0.079344,9.04453901 C0.10614,9.2315461 0.088508,9.44340426 0.103588,9.62553191 C0.111476,9.71994326 0.086652,9.81843972 0.086072,9.89458156 C0.08526,10.015773 0.144652,10.1481986 0.154164,10.2667801 C0.151148,10.365617 0.148132,10.4645674 0.145116,10.5634043 C0.149872,10.621617 0.185716,10.6831206 0.191052,10.7384965 C0.203812,10.8695603 0.137692,11.0842553 0.161588,11.2448227 C0.209148,11.563234 0.257868,11.8991206 0.290812,12.2171915 C0.325148,12.5481986 0.319116,12.9211915 0.324452,13.2554894 C0.325844,13.3412766 0.359948,13.4363688 0.381872,13.517617 C0.394864,13.565617 0.362036,13.7772482 0.36714,13.8461277 C0.38164,13.8845957 0.395908,13.9231773 0.410408,13.9616454 C0.399852,14.0024965 0.38918,14.0433475 0.378624,14.0840851 C0.380016,14.3047943 0.400664,14.5401418 0.409364,14.7611915 C0.413656,14.8736454 0.367488,14.9561418 0.381872,15.0482837 C0.412148,15.2420993 0.417136,15.4630355 0.438016,15.6577589 C0.440916,15.6838582 0.401592,15.7378723 0.402752,15.7434326 C0.418992,15.7713475 0.435232,15.7991489 0.451588,15.8271773 C0.444048,15.8695035 0.436508,15.9120567 0.428968,15.9544965 C0.451356,16.3672057 0.492188,16.804766 0.460056,17.2347234 C0.452748,17.3302695 0.494508,17.4589504 0.511096,17.5515461 C0.503788,17.586383 0.49648,17.6212199 0.489172,17.6560567 C0.493812,17.7181277 0.522928,17.785305 0.5394,17.844766 C0.552972,17.8932199 0.514808,17.9495035 0.525364,17.9996596 C0.548796,18.1108652 0.57884,18.2472624 0.58928,18.3580142 C0.576752,18.4094184 0.564224,18.4608227 0.551812,18.512227 C0.592064,18.7313475 0.588468,18.9994894 0.599488,19.2447092 C0.585916,19.2839716 0.572228,19.3231206 0.55854,19.362383 C0.562252,19.4380709 0.602736,19.5286241 0.602504,19.6057872 C0.602272,19.7179007 0.556452,19.8078865 0.56028,19.9198865 C0.57014,19.9521135 0.580116,19.9844539 0.589976,20.0167943 C0.579072,20.1377589 0.530236,20.237844 0.532904,20.3576738 C0.53476,20.4441418 0.5655,20.5435461 0.557032,20.6370496 C0.545432,20.7650496 0.49706,20.9191489 0.526176,21.0382979 C0.55158,21.142695 0.604012,21.2676312 0.599836,21.3784965 C0.59276,21.5670922 0.564108,21.6860142 0.57536,21.8758582 C0.587192,22.0787518 0.666652,22.310922 0.663984,22.4907801 C0.658416,22.8728511 0.649368,23.2478865 0.682196,23.5788936 C0.698436,23.7433191 0.6931,24.2296738 0.785088,24.3404255 C0.894012,24.502695 1.1803,24.5039433 1.382604,24.6548652 C1.505796,24.7466667 1.646156,24.806922 1.815516,24.859461 C1.962604,24.9049645 2.0387,25.0266099 2.173376,25.0709787 C2.239148,25.092539 2.643292,25.2718298 2.675424,25.3001986 C2.829472,25.4361418 3.103696,25.5352057 3.253452,25.6507234 C3.31876,25.7012199 3.43128,25.7981277 3.49102,25.8221844 C3.61224,25.8820993 3.73346,25.9419007 3.854564,26.0019291 C4.38886,26.3844539 5.137408,26.7382695 5.75418,26.9665816 C5.83074,27.0144681 5.907068,27.0624681 5.983396,27.1102411 C6.123176,27.2180426 6.314692,27.2647943 6.462824,27.3163121 C6.55632,27.3691915 6.649584,27.4221844 6.742964,27.4751773 C7.082844,27.5892199 7.467616,27.7739574 7.760052,27.9754894 C8.025808,28.1588652 8.315692,28.2003972 8.5521,28.3459858 C8.659864,28.4124823 8.767744,28.4262128 8.851264,28.4918014 C8.909148,28.537078 9.012388,28.6129929 9.089644,28.6404539 C9.191028,28.6859574 9.292412,28.7315745 9.39368,28.777305 C9.457712,28.8271206 9.583804,28.932766 9.668252,28.9679433 C9.73414,28.998922 9.800144,29.0296738 9.866264,29.0606525 C9.89306,29.0835745 9.949436,29.140766 9.980176,29.1554043 C10.11172,29.2175887 10.31588,29.3032624 10.384668,29.3682837 C10.430488,29.4114043 10.49974,29.3994894 10.532452,29.4227518 C10.594976,29.4673475 10.87384,29.6790922 10.941236,29.6493617 C10.967452,29.6781844 10.959448,29.670695 10.958288,29.7047376 C11.03682,29.7307234 11.229148,29.8005106 11.242604,29.8775603 C11.28622,29.8885674 11.2839,29.8798298 11.31754,29.8706383 C11.343176,29.8758582 11.39642,29.9102411 11.446996,29.915461 C11.494788,29.9488227 11.4869,29.9569929 11.481564,30.0032908 C11.66438,30.1606809 11.963428,30.2454468 12.179072,30.4166809 C12.214684,30.4238298 12.25018,30.4309787 12.285792,30.4380142 C12.45434,30.5558014 12.745964,30.758922 12.979588,30.8147518 C13.052436,30.832227 13.227944,30.9788369 13.263324,31.0102695 C13.32898,31.0689362 13.410064,31.0431773 13.462032,31.0801702 C13.625012,31.1956879 13.927424,31.3944965 14.142372,31.4381844 C14.263592,31.462695 14.304888,31.5396312 14.389916,31.5914894 C14.52494,31.654922 14.66008,31.7182411 14.79522,31.7815603 C14.860296,31.8259291 14.948688,31.9337305 15.038472,31.9212482 C15.164912,31.9299858 15.46106,31.6467518 15.58634,31.5716312 C15.718464,31.492539 15.88504,31.437844 16.01322,31.3555745 C16.234896,31.2135035 16.427224,31.0771064 16.65586,30.9631773 C16.75098,30.9157447 16.868372,30.9073475 16.966972,30.8718298 C17.079608,30.8309787 17.167304,30.7262411 17.272284,30.6612199 C17.283072,30.6631489 17.293976,30.6649645 17.30488,30.6668936 C17.434916,30.6648511 17.82572,30.3386099 17.962136,30.2473759 C18.059344,30.1825816 18.182536,30.1337872 18.280324,30.0784113 C18.3599,30.0334752 18.367904,29.986383 18.447828,29.9462128 C18.471144,29.9470071 18.49446,29.9476879 18.517892,29.9483688 C18.537148,29.9274894 18.55652,29.9068369 18.575892,29.8860709 C18.624612,29.8691631 18.673216,29.8522553 18.722168,29.835461 C18.934564,29.6895319 19.107752,29.5505248 19.323744,29.4098156 C19.398448,29.3610213 19.507488,29.3193759 19.580336,29.2664965 C19.588456,29.2515177 19.596808,29.236539 19.605044,29.2216738 C19.685316,29.1808227 19.795284,29.1659574 19.874396,29.119773 C20.074264,29.0031206 20.242,28.850156 20.446276,28.7481418 C20.523996,28.7091064 20.58942,28.7029787 20.664008,28.6539574 C20.994724,28.4357447 21.31152,28.1954043 21.659288,28.0295035 C21.657664,28.0103262 21.747564,27.9399716 21.784336,27.9099007 C21.824588,27.8768794 21.899292,27.8535035 21.945576,27.8322837 C21.94372,27.8083404 22.091852,27.7104113 22.13222,27.686922 C22.163424,27.6803404 22.19486,27.6735319 22.22618,27.6668369 C22.389276,27.5824113 22.51734,27.4700709 22.674404,27.3691915 C22.713148,27.3443404 22.789012,27.3345816 22.825436,27.309617 C22.938188,27.2331348 22.999784,27.1333901 23.113232,27.0666667 C23.250692,26.9859858 23.420632,26.9375319 23.558672,26.8603688 C23.769444,26.7425816 23.972328,26.5998298 24.19064,26.5087092 C24.357448,26.4391489 24.495952,26.2894752 24.666356,26.2257021 C24.73816,26.1988085 24.763912,26.1249362 24.838152,26.1073475 C24.872024,26.0940709 24.93014,26.0312057 24.981644,25.9972766 C24.995564,25.9880851 25.033264,25.9928511 25.0473,25.9853617 C25.10646,25.9354326 25.16562,25.8852766 25.22478,25.8353475 C25.261436,25.8207092 25.31758,25.8217305 25.352032,25.7979007 C25.418152,25.7521702 25.447616,25.7090496 25.514548,25.6746667 C25.781928,25.5373617 26.040492,25.3763404 26.312744,25.236539 C26.407748,25.1876312 26.532796,25.1582411 26.625132,25.0993475 C26.718628,25.039773 26.773844,24.9697589 26.86908,24.9146099 C27.065004,24.8009078 27.303268,24.7057021 27.49606,24.5719149 C27.953796,24.2541844 28.391928,23.922383 28.894324,23.7537589 C28.958588,23.6291631 28.915088,23.5276028 28.937244,23.4168511 L28.937244,23.4168511 Z M1.124156,23.7882553 C1.088312,23.7661277 1.092024,23.7614752 1.054904,23.7634043 C0.956768,23.5569929 1.005488,23.2980426 1.01558,23.0586099 C0.977068,23.0746099 1.004096,22.864227 1.003516,22.8435745 C0.963844,22.8605957 0.983216,22.6839149 0.976604,22.6553191 C0.946328,22.5230071 0.927072,22.2625816 0.926724,22.1421844 C0.934148,22.107234 0.941456,22.0725106 0.948764,22.0376738 C0.932872,21.9160284 0.898536,21.7889362 0.899116,21.675234 C0.910832,21.6467518 0.922548,21.6180426 0.93438,21.5894468 C0.955492,21.4845957 0.988784,21.4065248 0.981592,21.266383 C0.96744,21.1700426 0.953172,21.0737021 0.93902,20.9772482 C0.937048,20.827234 0.97034,20.683461 0.971384,20.530383 C0.97266,20.3210213 0.952592,20.1123404 0.930088,19.8940142 C0.923244,19.8288794 0.960364,19.8201418 0.95758,19.7577305 C0.951664,19.6273475 0.910948,19.4643972 0.919068,19.3317447 C0.933452,19.1021844 0.942268,18.9399149 0.918952,18.7285106 C0.930784,18.6924255 0.942848,18.656227 0.954912,18.6200284 C0.954564,18.3628936 0.998064,18.1299291 0.992032,17.8625816 C0.9831,17.4740426 0.974168,17.0887943 0.980896,16.697078 C0.98194,16.6342128 0.94424,16.5531915 0.940528,16.4902128 C0.936468,16.4225816 0.96628,16.3723121 0.960132,16.3035461 C0.949576,16.1830355 0.901204,16.0396028 0.902016,15.9134184 C0.904104,15.6268936 0.903408,15.3527376 0.870464,15.1083121 C0.851324,14.9660142 0.890648,14.8273475 0.864664,14.687773 C0.837288,14.5404823 0.807012,14.3667518 0.80446,14.2152624 C0.810724,14.1606809 0.816988,14.1059858 0.823368,14.0514043 C0.806316,13.9510922 0.77198,13.8460142 0.753188,13.7477447 C0.721752,13.5822979 0.749592,13.4178723 0.731148,13.2490213 C0.718968,13.2350638 0.707136,13.2209929 0.694956,13.206922 C0.675816,13.0704113 0.69194,12.9412766 0.679296,12.8043121 C0.671176,12.7171631 0.633708,12.6186667 0.626748,12.5332199 C0.619788,12.4457305 0.64438,12.3413333 0.634404,12.2820993 C0.584756,11.9851348 0.518056,11.6241702 0.500308,11.3185816 C0.491608,11.1678865 0.510052,11.0443121 0.513648,10.8848794 C0.497176,10.7062695 0.480936,10.5275461 0.46458,10.3489362 C0.466668,10.3055887 0.498336,10.2464681 0.496364,10.226383 C0.488824,10.1551206 0.446832,10.0671773 0.447412,9.99194326 C0.44834,9.88448227 0.479312,9.80868085 0.474904,9.70485106 C0.469916,9.58729078 0.43442,9.44771631 0.420964,9.32856738 C0.405884,9.19523404 0.434072,9.03716312 0.428504,8.92686525 C0.45704,8.88499291 0.46922,8.88351773 0.500656,8.86036879 C0.517592,8.86547518 0.534528,8.87046809 0.55158,8.87557447 C0.737064,8.72941844 0.931828,8.61719149 1.127636,8.51767376 C1.12578,8.46910638 1.276696,8.42473759 1.313584,8.39512057 C1.544424,8.2102695 1.78698,8.10292199 2.03174,7.97287943 C2.219312,7.87324823 2.402824,7.7129078 2.56128,7.6137305 C2.6477,7.55948936 2.762656,7.53622695 2.845364,7.4848227 C3.039896,7.36419858 3.220044,7.24119149 3.407384,7.13112057 C3.555516,7.01968794 3.703764,6.90836879 3.851896,6.79693617 C4.983244,6.18065248 6.074108,5.38791489 7.199772,4.69685106 C7.400336,4.5737305 7.515756,4.41634043 7.726296,4.27812766 C7.869788,4.18382979 8.053764,4.11608511 8.196444,4.02678014 C8.262564,3.9853617 8.287852,3.9213617 8.354668,3.8898156 C8.404432,3.86632624 8.4941,3.83443972 8.535048,3.79914894 C8.551288,3.77668085 8.567412,3.75432624 8.583768,3.73197163 C8.676452,3.68056738 8.811708,3.6630922 8.90532,3.59977305 C8.97724,3.5510922 8.98652,3.48402837 9.027004,3.44340426 C9.087788,3.38246809 9.196828,3.3782695 9.259584,3.32209929 C9.280464,3.31948936 9.263644,3.30984397 9.265152,3.29032624 C9.4308,3.25299291 9.563156,3.11001418 9.716972,3.02933333 C9.752932,3.0212766 9.789008,3.01321986 9.824968,3.00504965 C9.852576,2.96941844 9.880184,2.93367376 9.907792,2.89792908 C9.966836,2.85163121 10.065668,2.82712057 10.130396,2.79478014 C10.208696,2.75563121 10.254516,2.69299291 10.331192,2.64521986 C10.426312,2.58587234 10.554376,2.54683688 10.653556,2.49009929 C10.723156,2.4502695 10.75088,2.3972766 10.806908,2.36209929 C10.850176,2.33486525 10.926504,2.32397163 10.972324,2.29843972 C11.038096,2.26178723 11.075564,2.19086525 11.144816,2.1572766 C11.449664,2.00930496 11.709272,1.83432624 12.01354,1.6982695 C12.063884,1.67580142 12.088128,1.61055319 12.133716,1.58751773 C12.258996,1.52385816 12.376504,1.48221277 12.489372,1.41514894 C12.61268,1.3417305 12.707104,1.22950355 12.83772,1.16947518 C13.234208,0.986893617 13.607264,0.741787234 14.0099,0.568510638 C14.12358,0.709219858 13.985308,1.12760284 13.977768,1.31687943 C13.976608,1.34365957 14.002824,1.36703546 14.00816,1.39086525 C14.038204,1.52737589 14.00294,1.70224113 14.009088,1.82036879 C14.012452,1.88697872 14.043192,1.98070922 14.03948,2.04516312 C14.026952,2.26382979 14.001896,2.47988652 14.029272,2.68924823 C14.040176,2.70468085 14.030084,2.6893617 14.056764,2.70365957 C14.005724,2.8448227 14.060592,2.97758865 14.08182,3.11103546 C14.076832,3.12022695 14.07196,3.12919149 14.066972,3.13815603 C14.056416,3.12862411 14.045744,3.11920567 14.035072,3.10978723 C14.034956,3.11739007 14.034608,3.12499291 14.034376,3.13259574 C14.047948,3.15120567 14.061404,3.16992908 14.074744,3.18865248 C14.086344,3.24085106 14.031592,3.30110638 14.031708,3.3746383 C14.031824,3.52896454 14.03078,3.69407092 14.025676,3.88164539 C14.02034,4.07080851 14.08762,4.27631206 14.068944,4.44958865 C14.05978,4.53492199 14.034608,4.56669504 14.025212,4.65849645 C14.018948,4.71886525 14.0447,4.80919149 14.042264,4.86456738 C14.039828,4.92312057 13.997256,4.95421277 14.00062,5.00504965 C14.010596,5.0372766 14.020456,5.06961702 14.030432,5.10184397 C14.025676,5.10434043 13.998532,5.35114894 14.002244,5.41174468 C14.007116,5.49151773 14.039364,5.59375887 14.036348,5.67319149 C14.030664,5.81855319 13.970808,5.9707234 14.000504,6.08340426 C14.015584,6.09906383 14.030548,6.1147234 14.045744,6.13038298 C14.058736,6.18791489 13.996792,6.21106383 13.995632,6.2431773 C13.991804,6.34632624 13.976724,6.54604255 14.01628,6.63670922 C13.996096,6.65236879 14.003752,6.64851064 13.983104,6.65407092 C13.995516,6.82904965 14.006884,7.10411348 13.981828,7.30280851 C13.992268,7.31551773 13.985308,7.31585816 13.971968,7.32085106 C13.968952,7.31914894 13.965936,7.31756028 13.962804,7.31597163 C13.971968,7.37146099 13.952016,7.44930496 13.980552,7.49934752 C13.97104,7.50195745 13.961644,7.5049078 13.952364,7.50763121 C14.025908,7.77395745 13.978116,8.12380142 13.948536,8.39852482 C13.942388,8.45526241 13.983452,8.50825532 13.990296,8.55965957 C13.976144,8.61412766 13.962108,8.66848227 13.947956,8.72295035 C13.94552,8.83756028 13.9519,8.98087943 13.964428,9.1026383 C13.976144,9.12431206 13.98786,9.14598582 13.999692,9.16777305 C14.002476,9.22791489 13.95132,9.28499291 13.961644,9.34468085 C13.965704,9.36839716 14.003752,9.38836879 14.006188,9.41458156 C14.016396,9.52022695 14.010132,9.59704965 14.030432,9.69407092 C14.037972,9.71177305 14.022428,9.70836879 14.00642,9.71619858 C14.0447,9.79653901 14.051428,9.97832624 13.982524,10.0399433 C14.044584,10.1871206 14.059084,10.6067518 14.048528,10.7820709 C14.046788,10.8124823 14.012452,10.8323404 14.013264,10.8678582 C14.01512,10.9386667 14.080428,11.0069787 14.072076,11.0843688 C14.060128,11.195461 14.023936,11.2129362 14.045976,11.3257305 C14.056996,11.3411631 14.046788,11.3259574 14.073584,11.3402553 C14.057112,11.5171631 14.072888,11.6924823 14.077296,11.8292199 C14.074628,11.8200284 14.071728,11.8108369 14.068828,11.8015319 C14.065812,11.7999433 14.062796,11.7983546 14.059664,11.796766 C14.050152,11.8460142 14.079848,11.883234 14.083792,11.9254468 C14.089012,11.9819574 14.054676,12.0051064 14.052124,12.0478865 C14.047716,12.1160851 14.069408,12.219461 14.072656,12.2906099 C14.064072,12.3131915 14.05572,12.335773 14.047252,12.3583546 C14.042844,12.5216454 14.077296,12.7142128 14.08704,12.8895319 C14.093652,13.007773 14.06674,13.1226099 14.08588,13.2368794 C14.071728,13.241078 14.057576,13.2451631 14.043308,13.2493617 C14.041684,13.2523121 14.04006,13.2552624 14.03832,13.2583262 C14.064072,13.2603688 14.055604,13.2615035 14.075904,13.2548085 C14.146664,13.3708936 14.094116,13.7022411 14.090404,13.8539574 C14.088896,13.9137589 14.117896,14.0013617 14.130772,14.0607092 C14.154552,14.1702128 14.128568,14.2908369 14.133672,14.4216738 C14.136108,14.4828369 14.194224,14.548766 14.198168,14.6064113 C14.177868,14.6575887 14.157684,14.708766 14.137384,14.7599433 C14.1259,15.115234 14.10212,15.5481418 14.130888,15.8928794 C14.140748,16.0119149 14.08066,16.1192624 14.125436,16.226383 C13.567012,16.5590922 13.060208,16.8545816 12.516516,17.2120284 C12.421164,17.2747801 12.27512,17.3200567 12.170836,17.3664681 C12.10112,17.3974468 12.05994,17.4612199 11.994052,17.4937872 C11.756948,17.611234 11.489336,17.7335603 11.263136,17.8746099 C11.049812,18.0074894 10.85586,18.1544397 10.63894,18.276766 C9.970664,18.653617 9.247288,18.9703262 8.579128,19.3497872 C8.101672,19.620766 7.668296,19.9795745 7.175064,20.1997163 C7.177152,20.2244539 7.066256,20.2890213 7.031688,20.3097872 C6.869172,20.4078298 6.718604,20.5398014 6.545416,20.6337589 C6.34752,20.7411064 6.1219,20.8344965 5.923888,20.9445674 C5.891988,20.9740709 5.859856,21.0036879 5.82784,21.0331915 C5.726108,21.1012766 5.585864,21.1464397 5.481464,21.2104397 C5.359084,21.2854468 5.264544,21.3787234 5.137872,21.4471489 C4.55532,21.7614752 4.000144,22.1181277 3.418056,22.397617 C3.054396,22.5721418 2.765904,22.8796596 2.407116,23.071773 C2.107604,23.2321135 1.81714,23.4049362 1.517976,23.5895603 C1.39664,23.6643404 1.220436,23.7209645 1.124156,23.7882553 L1.124156,23.7882553 Z M27.837332,23.9512057 C27.674352,24.0667234 27.532948,24.166695 27.379132,24.2670071 C26.963156,24.5386667 26.560868,24.8128227 26.126564,25.0573617 C25.893172,25.1888794 25.63484,25.2906667 25.400636,25.4292199 C25.157268,25.5731064 24.942668,25.7219858 24.700808,25.8609929 C24.542468,25.952 24.403268,26.0952057 24.23008,26.1351489 C24.210824,26.1483121 24.22196,26.1390071 24.206648,26.1345816 C24.2005,26.1314043 24.194352,26.1281135 24.188204,26.1249362 C24.178692,26.1546667 24.17788,26.1570496 24.18194,26.1795177 C24.05028,26.2608794 23.918504,26.3424681 23.786844,26.4239433 C23.481648,26.5581844 23.173668,26.7294184 22.861512,26.8995177 C22.718136,27.0095887 22.574412,27.1195461 22.43092,27.229617 C22.202632,27.364539 21.93966,27.4702979 21.7326,27.6158865 C21.640612,27.6806809 21.58644,27.7542128 21.492944,27.8144681 C21.327992,27.9207943 21.122208,28.0088511 20.951456,28.1093901 C20.731636,28.2388652 20.546036,28.393078 20.331552,28.5255035 C20.263924,28.5671489 20.167644,28.5994894 20.09468,28.6327376 C19.979144,28.6852766 19.893884,28.7771915 19.78032,28.8383546 C19.60284,28.9336738 19.40158,29.0286525 19.220272,29.1234043 C19.05474,29.2451631 18.888976,29.366695 18.723328,29.488227 C18.401196,29.6587801 18.082428,29.8040284 17.773288,30.0088511 C17.661696,30.0970213 17.549872,30.1851915 17.43828,30.2732482 C17.388748,30.3004823 17.319844,30.2990071 17.268572,30.3231773 C17.09666,30.4044255 16.969872,30.5099574 16.788564,30.5924539 C16.716296,30.6252482 16.618972,30.6269504 16.548096,30.6630355 C16.34092,30.7685674 16.117504,30.8868085 15.921232,31.0057305 C15.855344,31.0457872 15.84444,31.0866383 15.777044,31.1386099 C15.674268,31.2177021 15.510128,31.2314326 15.40306,31.3013333 C15.284044,31.3790638 15.164332,31.4979858 15.019216,31.4820993 C14.906348,31.4695035 14.815752,31.3749787 14.715064,31.3452482 C14.635952,31.3216454 14.409056,31.2502695 14.309064,31.1779858 C14.242248,31.1296454 14.143068,31.0535035 14.061636,31.0245674 C13.603552,30.861844 13.153704,30.5814468 12.737612,30.3279433 C12.69272,30.3159149 12.64806,30.304 12.603168,30.2918582 C12.484036,30.2296738 12.354812,30.0905532 12.200068,30.0334752 C12.052052,29.9788936 11.87956,29.8435177 11.666816,29.7528511 C11.429944,29.6519716 11.224624,29.4563404 10.914208,29.3105248 C10.532104,29.1310071 10.209508,28.9255035 9.926932,28.7561986 C9.777176,28.6620142 9.62742,28.5678298 9.47778,28.4735319 C9.42384,28.4481135 9.261556,28.3833191 9.206108,28.3422411 C9.146716,28.299461 9.087324,28.2565674 9.027932,28.2136738 C8.577388,28.0472057 8.198532,27.837617 7.793112,27.6567376 C7.692076,27.6115745 7.580716,27.519773 7.44372,27.4729078 C7.327488,27.4329645 7.236196,27.3357163 7.15024,27.2952057 C7.082496,27.2672908 7.014868,27.2394894 6.94724,27.2116879 C6.890168,27.1690213 6.798412,27.0883404 6.769064,27.0830071 C6.496116,27.0343262 6.23848,26.8297305 6.008684,26.7409929 C5.947088,26.7171631 5.898368,26.653617 5.862292,26.6407943 C5.491556,26.5084823 4.993684,26.3083121 4.769572,26.1702128 C4.583624,26.0553759 4.44164,25.9729929 4.246876,25.8488511 C4.184004,25.819461 4.121016,25.7902979 4.058028,25.7611348 C4.026244,25.732766 3.994344,25.7043972 3.962676,25.6760284 C3.829276,25.6097589 3.695644,25.5433759 3.56236,25.4769929 C3.043144,25.1189787 2.361412,24.7441702 1.90878,24.5604539 C1.682,24.468539 1.408936,24.2143546 1.242476,24.1983546 C1.224844,24.176227 1.21742,24.1655603 1.21626,24.1382128 C1.20524,24.1179007 1.285048,24.0398298 1.341308,24.018383 C1.514496,23.9531348 1.74,23.8140142 1.916668,23.6835177 C2.138344,23.5198865 2.417904,23.3847376 2.658372,23.261844 C2.774952,23.202156 2.859284,23.1053617 2.972848,23.0563404 C3.077712,23.0108369 3.1465,22.8945248 3.245796,22.8402837 C3.347296,22.7849078 3.47884,22.7372482 3.582196,22.6811915 C3.77348,22.5771348 3.92892,22.4248511 4.129368,22.354383 C4.20326,22.2558865 4.432824,22.1705532 4.552768,22.1016738 C4.884064,21.9114894 5.2084,21.6751206 5.55582,21.5278298 C5.554544,21.5117163 5.700008,21.4123121 5.737592,21.3915461 C5.928412,21.2857872 6.137444,21.1626667 6.33128,21.0660993 C6.332324,21.030922 6.45192,20.9909787 6.488344,20.9748652 C6.597152,20.9260709 6.65898,20.8339291 6.765352,20.772766 C6.806184,20.7491631 6.870448,20.7561986 6.911744,20.7220426 C7.170656,20.5075745 7.487336,20.3598298 7.768404,20.1988085 C7.829188,20.1457021 7.890088,20.0925957 7.950756,20.0397163 C7.984628,20.0212199 8.071976,20.0077163 8.09216,19.9980709 C8.178348,19.9571064 8.229388,19.8865248 8.31198,19.835461 C8.46916,19.7383262 8.621236,19.6500426 8.797672,19.5344113 C8.830616,19.5246525 8.86356,19.5148936 8.896504,19.5052482 C8.91924,19.4784681 8.941744,19.4516879 8.96448,19.4251348 C9.036864,19.387461 9.139872,19.3991489 9.214112,19.3592057 C9.263528,19.3196028 9.31306,19.279773 9.362476,19.2401702 C9.534388,19.1811631 9.859304,19.0761986 9.984584,18.9064397 C9.996764,18.9129078 10.00906,18.9193759 10.021356,18.9257305 C10.04908,18.8840851 10.08794,18.8435745 10.12738,18.8192908 C10.150464,18.8275745 10.173548,18.8357447 10.196632,18.8440284 C10.503336,18.6320567 10.814912,18.512227 11.123472,18.3229504 C11.24504,18.2481702 11.419272,18.0580993 11.5652,18.079773 C11.570768,18.0072624 11.622388,18.0258723 11.671804,17.9504113 C11.6841,17.9569929 11.696396,17.963461 11.708692,17.9698156 C11.77052,17.8941277 11.861232,17.8875461 11.932108,17.8437447 C11.970852,17.8199149 11.956816,17.7916596 11.9857,17.7677163 C12.015048,17.7433191 12.090332,17.7438865 12.12722,17.7261844 C12.197168,17.6779574 12.267116,17.6297305 12.337064,17.581617 C12.362352,17.5833191 12.358408,17.5886525 12.383,17.6056738 C12.514776,17.4769929 12.713368,17.3617021 12.887716,17.291461 C12.896764,17.2931631 12.89746,17.2861277 12.896996,17.2963404 C12.916948,17.2949787 13.022508,17.1526809 13.099068,17.1011631 C13.166464,17.0558865 13.285944,17.0550922 13.347888,17.0580426 C13.35102,17.0597447 13.354152,17.0614468 13.357052,17.062922 C13.346612,17.0535035 13.33594,17.0440851 13.325384,17.0345532 C13.384776,16.9966525 13.48326,16.8758014 13.564924,16.8359716 C13.632436,16.8029504 13.678372,16.8457305 13.721176,16.7674326 C13.738228,16.772539 13.755048,16.7775319 13.7721,16.7825248 C13.778016,16.7561986 13.766532,16.7471206 13.782656,16.7417872 C13.852952,16.6348936 13.968024,16.6322837 14.045628,16.5438865 C14.061636,16.5636312 14.057692,16.5560284 14.06326,16.5763404 C14.069524,16.5795177 14.075556,16.5828085 14.08182,16.5859858 C14.106992,16.5543262 14.214292,16.4795461 14.2535,16.4676312 C14.266376,16.4575319 14.266724,16.4643404 14.271828,16.4772766 C14.270204,16.480227 14.268464,16.4834043 14.26684,16.4863546 C14.272988,16.4895319 14.279136,16.4928227 14.285284,16.4961135 C14.285516,16.4885106 14.285748,16.4807943 14.286096,16.4731915 C14.290968,16.464227 14.295956,16.4552624 14.300828,16.4462979 C14.30512,16.4601418 14.309296,16.4738723 14.313588,16.4877163 C14.335744,16.4761418 14.3579,16.4646809 14.380056,16.4531064 C14.493504,16.4902128 14.646972,16.5907518 14.752068,16.6604255 C14.851828,16.726695 14.980356,16.724539 15.074548,16.806922 C15.128372,16.8539007 15.243792,16.9500142 15.317104,16.9694184 C15.539824,17.0279716 15.870076,17.250383 16.206824,17.3563688 C16.336744,17.3972199 16.414696,17.4966241 16.556216,17.5401986 C16.6924,17.6156596 16.828816,17.691234 16.965,17.7668085 C17.179832,17.8295603 17.45742,17.977305 17.679328,18.0846525 C17.743476,18.1260709 17.807624,18.1677163 17.871772,18.2091348 C18.034868,18.2718865 18.197964,18.3344113 18.361176,18.3970496 C18.521952,18.4855603 18.682728,18.5740709 18.843388,18.6624681 C19.045924,18.7333901 19.207164,18.891461 19.441136,18.9769078 C19.68172,19.0649645 19.980304,19.2233759 20.17878,19.2954326 C20.23852,19.3171064 20.297332,19.3988085 20.337932,19.4371631 C20.3841,19.453844 20.430268,19.4702979 20.476552,19.4869787 C20.553576,19.5167092 20.62306,19.5918298 20.682336,19.6299574 C20.756228,19.6611631 20.829888,19.6922553 20.90378,19.7233475 C21.014792,19.8262695 21.2744,19.9585816 21.432044,20.0128227 C21.523568,20.0445957 21.582264,20.0992908 21.661144,20.1567092 C21.754872,20.2246809 21.919476,20.2622411 22.021208,20.2996879 C22.055428,20.3122837 22.09568,20.3699291 22.116676,20.3846809 C22.210172,20.4506099 22.322228,20.4628652 22.411548,20.5166525 C22.421988,20.5336738 22.432312,20.5508085 22.442752,20.5679433 C22.520588,20.6381844 22.683336,20.6792624 22.76094,20.7004823 C22.8549,20.7261277 22.898168,20.8034043 23.013588,20.8449362 C23.27656,20.9399149 23.530948,21.101844 23.739168,21.2500426 C23.779188,21.2633191 23.819324,21.2767092 23.85946,21.2900993 C23.994832,21.3342411 24.091112,21.4353475 24.22718,21.4835745 C24.248756,21.4872057 24.270564,21.4909504 24.292256,21.494695 C24.362552,21.5446241 24.591072,21.6541277 24.68828,21.6798865 C24.769364,21.7262979 24.850448,21.7729362 24.931648,21.819461 C25.074444,21.8919716 25.219096,21.9441702 25.34252,21.9776454 C25.417224,21.9979574 25.503876,22.0775035 25.534848,22.1019007 C25.580088,22.1379858 25.842712,22.2769929 25.921012,22.3051348 C26.226672,22.4149787 26.604832,22.6697305 26.824884,22.8388085 C26.920004,22.9118865 27.060132,22.9556879 27.161516,22.9812199 C27.222532,22.996539 27.251532,23.0614468 27.307328,23.104227 C27.338184,23.1128511 27.36904,23.1212482 27.399896,23.1297589 C27.516824,23.2470922 27.762744,23.4233191 27.939528,23.506383 C28.002052,23.5358865 28.075828,23.6484539 28.14044,23.6585532 C28.143572,23.6602553 28.146588,23.661844 28.14972,23.6634326 C28.143224,23.6677447 28.137076,23.6721702 28.13058,23.6764823 C28.159464,23.695773 28.144964,23.686695 28.176516,23.700766 C28.177908,23.705305 28.179416,23.7099574 28.180808,23.7144965 C28.09114,23.837617 27.938948,23.8793759 27.837332,23.9512057 L27.837332,23.9512057 Z M28.010172,23.184227 C27.939296,23.1279433 27.878976,23.0631489 27.781652,23.0175319 C27.441772,22.8583262 26.928472,22.5699858 26.538944,22.2592908 C26.324228,22.1539858 26.109396,22.0487943 25.894564,21.9434894 C25.681124,21.7721418 25.402144,21.6839716 25.139404,21.5923972 C24.982456,21.5378156 24.740944,21.3422979 24.56938,21.2924823 C24.404776,21.225305 24.240172,21.1579007 24.075684,21.0907234 C23.99924,21.0428369 23.922912,20.9949504 23.846468,20.9470638 C23.548348,20.8068085 23.302544,20.619234 23.004772,20.5157447 C22.855364,20.463773 22.69308,20.2963972 22.578472,20.2565674 C22.246944,20.1412766 21.887924,19.8612199 21.552916,19.7284539 C21.307692,19.6314326 21.064092,19.4185532 20.85332,19.3837163 C20.625844,19.1582411 20.28956,19.1076312 20.026588,18.9253901 C19.920332,18.8519716 19.781828,18.8474326 19.672208,18.7506383 C19.618732,18.7035461 19.531152,18.6167376 19.443804,18.5840567 C19.355412,18.5510355 19.312956,18.5109787 19.227348,18.4817021 C19.18872,18.4729645 19.149976,18.464227 19.111348,18.4556028 C18.942336,18.3594894 18.710684,18.1851915 18.556288,18.1286809 C18.310368,18.0384681 18.097972,17.9388369 17.896364,17.8625816 C17.801592,17.8050496 17.706936,17.7472908 17.612048,17.6898723 C17.484796,17.5987518 17.308476,17.5564255 17.219388,17.5412199 C17.051304,17.5127376 16.947252,17.3568227 16.857352,17.3159716 C16.726156,17.2561702 16.513992,17.1835461 16.438012,17.1300993 C16.375024,17.1007092 16.312152,17.0715461 16.249048,17.042383 C15.933992,16.8612766 15.585644,16.7899007 15.328936,16.5813333 C15.253768,16.5457021 15.1786,16.5099574 15.103432,16.4742128 C14.956576,16.4190638 14.51798,16.1474043 14.484456,16.0906667 C14.39908,15.9456454 14.446872,15.7250496 14.449656,15.5504113 C14.450352,15.5054752 14.422396,15.4404539 14.41706,15.3940426 C14.39676,15.2165674 14.438868,15.0389787 14.438056,14.8601418 C14.437592,14.7801418 14.443508,14.6531631 14.433532,14.5446809 C14.42692,14.4712624 14.384928,14.3741277 14.389684,14.3012766 C14.4014,14.2725674 14.413116,14.2440851 14.425064,14.2153759 C14.432836,14.1365106 14.387364,14.0580993 14.385276,13.9858156 C14.379476,13.7891631 14.390844,13.6104397 14.374372,13.4235461 C14.38052,13.3262979 14.386552,13.2289362 14.392584,13.1315745 C14.361148,12.934922 14.3289,12.7194326 14.31324,12.5216454 C14.303844,12.4034043 14.34572,12.3030922 14.346996,12.1798582 C14.349084,11.9735603 14.31962,11.76 14.314748,11.5483688 C14.313936,11.5129645 14.271132,11.4735887 14.266724,11.4418156 C14.27844,11.4132199 14.290272,11.3846241 14.301988,11.3561418 C14.302916,11.2765957 14.28018,11.1778723 14.277164,11.0993475 C14.272176,10.9713475 14.307672,10.8603688 14.302336,10.7300993 C14.290968,10.443234 14.274612,10.1112057 14.284356,9.79279433 C14.273452,9.7408227 14.262664,9.68862411 14.251644,9.63642553 C14.240972,9.42558865 14.227284,9.21770213 14.21464,9.01401418 C14.196312,8.71988652 14.283312,8.38763121 14.270088,8.11551773 C14.259068,7.88868085 14.214988,7.62167376 14.240856,7.39256738 C14.252456,7.28873759 14.296884,7.16130496 14.293636,7.03784397 C14.286212,6.76085106 14.288996,6.50382979 14.262084,6.23262411 C14.243176,6.04221277 14.31672,5.84771631 14.307092,5.67648227 C14.301176,5.57060993 14.318692,5.45588652 14.312544,5.3430922 C14.307324,5.2475461 14.272872,5.13293617 14.279948,5.03614184 C14.290388,4.89486525 14.347808,4.74042553 14.349664,4.58575887 C14.359292,3.8226383 14.296652,3.04204255 14.298508,2.28584397 C14.29874,2.19710638 14.346532,2.0818156 14.33934,2.0173617 C14.316256,1.81129078 14.299088,1.58377305 14.28888,1.37622695 C14.308716,1.29009929 14.328436,1.20374468 14.34804,1.11750355 C14.359988,1.00266667 14.356508,0.776964539 14.338644,0.660312057 C14.363236,0.630468085 14.3666,0.627744681 14.395948,0.62093617 C14.472044,0.627404255 14.572036,0.719092199 14.667504,0.75222695 C14.958896,0.852992908 15.31838,1.02331915 15.565112,1.18956028 C15.646428,1.24448227 15.768808,1.23710638 15.833072,1.28431206 C15.981436,1.39347518 16.230488,1.61021277 16.414464,1.67137589 C16.80956,1.80266667 17.413688,2.13503546 17.855184,2.37140426 C17.917592,2.40476596 18.042872,2.4964539 18.102844,2.5248227 C18.318952,2.62751773 18.55014,2.8031773 18.760448,2.85934752 C18.787824,2.88147518 18.815084,2.90360284 18.84246,2.9257305 C18.993492,2.97860993 19.275024,3.10116312 19.36794,3.15585816 C19.7751,3.39495035 20.256384,3.66093617 20.55056,3.74320567 C20.608792,3.7595461 20.633152,3.81242553 20.664356,3.83795745 C20.68106,3.85168794 21.144596,4.02110638 21.144596,4.02110638 C21.223592,4.07296454 21.337504,4.18235461 21.38576,4.22921986 C21.453504,4.25702128 21.521132,4.2848227 21.588644,4.31273759 C21.749072,4.44811348 21.925044,4.52584397 22.136164,4.58904965 C22.212144,4.61185816 22.24996,4.68243972 22.300884,4.69900709 C22.382432,4.73043972 22.464096,4.76164539 22.545644,4.79296454 C22.605268,4.82950355 22.683452,4.89747518 22.718948,4.93060993 C22.818708,5.0235461 23.021012,5.05043972 23.120656,5.08391489 C23.213108,5.11500709 23.349524,5.20340426 23.401376,5.22008511 C23.443948,5.2338156 23.464828,5.27920567 23.473528,5.30451064 C23.540344,5.28022695 23.614352,5.3901844 23.666668,5.40607092 C23.840668,5.4587234 24.097956,5.70950355 24.344108,5.70462411 C24.390392,5.74002837 24.392596,5.76680851 24.374036,5.80141844 C24.469504,5.82808511 24.559056,5.8861844 24.650464,5.92374468 C24.687352,5.9387234 24.656496,5.95608511 24.68654,5.96584397 C24.878868,6.02825532 25.0676,6.10087943 25.211324,6.21889362 C25.280808,6.27585816 25.37384,6.23897872 25.446108,6.33066667 C25.4562,6.34348936 25.48984,6.29310638 25.519652,6.3693617 C25.52696,6.38785816 25.718708,6.44822695 25.739588,6.50848227 C25.769632,6.50439716 25.747128,6.51495035 25.772996,6.49112057 C25.82334,6.55784397 25.912312,6.6386383 25.960336,6.6244539 C26.002328,6.65747518 25.989452,6.66473759 26.000008,6.70320567 C26.024716,6.72578723 26.093736,6.7355461 26.129348,6.74814184 C26.171572,6.76323404 26.147212,6.78048227 26.174588,6.79512057 C26.274696,6.84913475 26.316224,6.87285106 26.4335,6.88499291 C26.42828,6.90156028 26.423176,6.91824113 26.417956,6.93492199 C26.443592,6.93696454 26.435124,6.93798582 26.455424,6.93140426 C26.479088,6.95364539 26.4712,6.94785816 26.482336,6.96873759 C26.4857,6.98360284 26.553328,6.98031206 26.575716,6.97146099 C26.64462,7.00028369 26.663992,7.00834043 26.638588,7.05100709 C26.727444,7.07710638 26.830452,7.13021277 26.89808,7.11795745 C26.960488,7.19137589 27.185644,7.39495035 27.327512,7.43659574 C27.41196,7.47710638 27.496292,7.5177305 27.58074,7.55824113 C27.747896,7.69441135 27.920156,7.82002837 28.124664,7.9488227 C28.11724,8.16431206 28.187768,8.34836879 28.209112,8.54990071 C28.223496,8.68629787 28.21352,8.80975887 28.22976,8.94343262 C28.2373,9.00504965 28.283468,9.0852766 28.28428,9.14609929 C28.284976,9.19965957 28.244376,9.22791489 28.247624,9.27750355 C28.249712,9.31177305 28.288804,9.35716312 28.290776,9.3929078 C28.31096,9.75591489 28.345412,10.1741844 28.376964,10.5514894 C28.385084,10.6496454 28.352372,10.7337305 28.35446,10.829617 C28.357012,10.9517163 28.37186,11.0996879 28.374992,11.2232624 C28.368844,11.277844 28.362348,11.3324255 28.356084,11.3871206 C28.374992,11.4823262 28.398192,11.5923972 28.402948,11.6900993 C28.412228,11.8921986 28.360724,11.9934184 28.364204,12.1915461 C28.36548,12.2680284 28.377196,12.3674326 28.389028,12.4481135 C28.410488,12.5097305 28.432064,12.571234 28.453524,12.6327376 C28.437748,12.8063546 28.43856,13.0419291 28.453756,13.2360851 C28.457352,13.2826099 28.517092,13.3324255 28.519644,13.3749787 C28.507812,13.4035745 28.496096,13.4321702 28.48438,13.460766 C28.474984,13.5280567 28.511176,13.6029504 28.515584,13.6626383 C28.521152,13.741617 28.4838,13.8030071 28.49018,13.881305 C28.49714,13.9666383 28.560244,14.0603688 28.570916,14.1441135 C28.562332,14.1744113 28.5534,14.2044823 28.5447,14.2346667 C28.559548,14.3464397 28.553748,14.4402837 28.5534,14.5639716 C28.552936,14.7285106 28.58472,14.9075745 28.593884,15.0723404 C28.602584,15.227461 28.525328,15.3660142 28.524168,15.5227234 C28.523588,15.6128227 28.561172,15.7360567 28.556764,15.8297872 C28.54876,16.004539 28.534028,16.1595461 28.541452,16.3320284 C28.552124,16.3916028 28.56268,16.4515177 28.573352,16.5110922 C28.562332,16.7212482 28.53368,16.9101844 28.531244,17.1268085 C28.526256,17.5546099 28.602352,17.965617 28.56732,18.3980709 C28.560012,18.4854468 28.52092,18.5252766 28.50932,18.6111773 C28.497488,18.6986667 28.529968,18.8147518 28.528576,18.8995177 C28.526024,19.0548652 28.514656,19.2467518 28.528112,19.3747518 C28.542032,19.5074043 28.602352,19.6529929 28.608964,19.7883688 C28.614648,19.9092199 28.57718,19.9867234 28.58994,20.1031489 C28.59284,20.130156 28.623232,20.1622695 28.624624,20.1909787 C28.627176,20.2418156 28.575092,20.2852766 28.582168,20.354156 C28.583792,20.3683404 28.613372,20.3886525 28.613372,20.4053333 C28.613372,20.4610496 28.590752,20.4885106 28.600148,20.5374184 C28.61488,20.5606809 28.629844,20.5840567 28.644576,20.6073191 C28.628336,20.6296738 28.612096,20.6520284 28.595972,20.674383 C28.584952,20.724539 28.6172,20.8068085 28.61372,20.8577589 C28.603744,20.8756879 28.593884,20.893617 28.584024,20.9116596 C28.575904,21.0622411 28.640748,21.2699007 28.586924,21.4235461 C28.596436,21.4207092 28.605832,21.4179858 28.615344,21.4151489 C28.572192,21.5763972 28.614184,21.7537589 28.633208,21.9000284 C28.641328,21.9623262 28.596668,22.0247376 28.604208,22.0820426 C28.650956,22.4360851 28.663948,23.0664397 28.549108,23.4329645 C28.354112,23.3427518 28.1764,23.3163121 28.010172,23.184227 L28.010172,23.184227 Z" id="Fill-1" fill="#F7A04A" sketch:type="MSShapeGroup"></path>
            <path id="Fill-2" fill="#2D2E2B" sketch:type="MSShapeGroup" d="M13.97568,16.6926525 C13.977304,16.6895887 13.979044,16.6866383 13.980668,16.6835745 C13.974636,16.6803972 13.968372,16.6771064 13.96234,16.6740426 C13.966748,16.6801702 13.971272,16.6864113 13.97568,16.6926525"></path>
            <path id="Fill-3" fill="#2D2E2B" sketch:type="MSShapeGroup" d="M13.873252,16.6850496 C13.879284,16.688227 13.885432,16.6915177 13.89158,16.694695 C13.894828,16.6886809 13.898076,16.6827801 13.90144,16.676766 C13.895292,16.6735887 13.889144,16.6702979 13.883112,16.6671206 C13.879748,16.6731348 13.8765,16.6790355 13.873252,16.6850496"></path>
            <path id="Fill-4" fill="#2D2E2B" sketch:type="MSShapeGroup" d="M13.515508,16.9259574 C13.521656,16.9291348 13.527688,16.9324255 13.533952,16.9356028 C13.5372,16.9295887 13.540448,16.9235745 13.543812,16.9176738 C13.537548,16.9144965 13.531516,16.9110922 13.525484,16.9080284 C13.52212,16.9139291 13.518756,16.9199433 13.515508,16.9259574"></path>
        </g>
    </g>
</svg>