<?xml version="1.0" encoding="UTF-8" standalone="no"?>
<svg width="29px" height="32px" viewBox="0 0 29 32" version="1.1" xmlns="http://www.w3.org/2000/svg" xmlns:xlink="http://www.w3.org/1999/xlink" xmlns:sketch="http://www.bohemiancoding.com/sketch/ns">
    <!-- Generator: Sketch 3.2 (9964) - http://www.bohemiancoding.com/sketch -->
    <title>Slice 1</title>
    <desc>Created with Sketch.</desc>
    <defs></defs>
    <g id="Page-1" stroke="none" stroke-width="1" fill="none" fill-rule="evenodd" sketch:type="MSPage">
        <g id="Polygon-01-byGhostlyPixels" sketch:type="MSLayerGroup">
            <path d="M28.709304,23.7478719 C28.745032,23.6247687 28.704548,23.5086121 28.70304,23.4035018 C28.714756,23.3276584 28.726472,23.2518149 28.73784,23.1757438 C28.723804,22.9531103 28.70884,22.7204555 28.692136,22.503516 C28.704664,22.4124128 28.71696,22.3211957 28.729256,22.2298648 C28.738072,22.1408114 28.711392,22.0352456 28.71058,21.9490391 C28.709536,21.7953025 28.74538,21.6135516 28.741204,21.4366975 C28.737492,21.2853523 28.692948,21.1116868 28.690048,20.9614804 C28.689004,20.9076157 28.735636,20.8932669 28.733316,20.8441851 C28.709536,20.3267189 28.733664,19.8455801 28.763708,19.3085267 C28.772408,19.1500071 28.713828,18.9584626 28.724152,18.792427 C28.77148,18.016911 28.821476,17.28 28.791084,16.5240712 C28.80512,16.4298932 28.819388,16.3357153 28.833424,16.2415374 C28.829828,16.1294804 28.785168,15.9974947 28.785748,15.8858932 C28.798856,15.7871601 28.81092,15.6883132 28.823912,15.5895801 C28.784356,15.3686548 28.739348,15.1144769 28.742944,14.8741922 C28.749672,14.4437295 28.732852,14.0379786 28.70768,13.6198149 C28.724732,13.5625338 28.741552,13.5050249 28.758604,13.4478577 C28.76162,13.3000427 28.72972,13.1414093 28.715452,13.0006548 C28.71116,12.9595445 28.747236,12.9258363 28.744336,12.8871174 C28.73204,12.7203986 28.777048,12.5436584 28.790272,12.3480142 C28.795376,12.2698932 28.755704,12.1762847 28.751064,12.1028327 C28.745728,12.0191317 28.774844,11.9494377 28.767768,11.8649395 C28.76452,11.8269039 28.730648,11.7959288 28.735984,11.7533381 C28.765332,11.7278292 28.796304,11.2579644 28.79062,11.2189039 C28.751296,10.9491246 28.759532,10.6884555 28.718352,10.4261922 C28.71928,10.4256228 28.742248,10.1271459 28.73552,10.082847 C28.729372,10.0412811 28.694108,10.0193025 28.693528,9.98901068 C28.692832,9.94721708 28.72044,9.92637722 28.717424,9.88469751 C28.708608,9.75259786 28.666732,9.59339502 28.673228,9.46038434 C28.685756,9.43191459 28.698052,9.40333096 28.710464,9.37497509 C28.708492,9.31518861 28.700024,9.22932384 28.69724,9.16782918 C28.711044,9.15928826 28.735056,9.01215658 28.73378,8.99997153 C28.71986,8.8775516 28.704664,8.75330961 28.700488,8.64022776 C28.69782,8.56495374 28.755936,8.45813523 28.737608,8.36669039 C28.787604,8.33150178 28.84804,8.28139502 28.898732,8.23219929 C28.868572,7.98337367 28.652928,7.872 28.489368,7.81779359 C28.41304,7.79239858 28.322676,7.68740214 28.275,7.71108897 C28.263516,7.69104626 28.26456,7.70812811 28.276276,7.68819929 C28.054368,7.56441281 27.836288,7.46636299 27.647092,7.36398577 C27.588628,7.33221352 27.42994,7.28039858 27.409524,7.25614235 C27.392124,7.23553025 27.204436,7.06140925 27.162328,7.06072598 C27.125324,7.06015658 27.104676,7.07860498 27.056072,7.03715302 C26.8134,6.83103203 26.274812,6.58345907 26.004648,6.46775801 C25.8767,6.41286833 25.76534,6.32825623 25.701656,6.2649395 C25.595748,6.16005694 25.444136,6.17178648 25.3054,6.05767972 C25.149264,5.92911032 24.915292,5.83219929 24.753124,5.7876726 C24.67088,5.72253381 24.58852,5.65739502 24.505812,5.59214235 C24.415564,5.55433452 24.262676,5.52017082 24.1802,5.47097509 C24.125332,5.43817794 24.023368,5.34525267 23.94994,5.30835587 C23.903076,5.2848968 23.804128,5.28296085 23.739632,5.21565836 C23.660752,5.13343772 23.43896,5.05155872 23.3624,4.99541637 C23.347668,4.97947331 23.33282,4.96341637 23.318204,4.94735943 C23.162764,4.87857651 22.973568,4.73098932 22.863368,4.69591459 C22.794696,4.66960854 22.725908,4.64341637 22.656888,4.61711032 C22.523256,4.51940214 22.252512,4.33218505 22.09916,4.27353737 C21.995688,4.22411388 21.892332,4.17480427 21.788628,4.12538078 C21.740488,4.07413523 21.623328,4.0206121 21.589688,3.99191459 C21.507792,3.92210676 21.470788,3.8557153 21.356876,3.79251246 C21.27324,3.79581495 21.108172,3.77668327 21.002612,3.67897509 C20.975468,3.65414947 20.897516,3.57386477 20.835804,3.55154448 C20.770264,3.5270605 20.704376,3.50234875 20.638604,3.47786477 C20.599512,3.43436299 20.587332,3.3925694 20.499404,3.36558007 C20.430964,3.33164413 20.362408,3.29770819 20.294084,3.26388612 C20.225876,3.22232028 20.1579,3.18075445 20.089808,3.13918861 C19.793312,3.06357295 19.510852,2.81178648 19.135476,2.69380783 C19.006716,2.61876157 18.877724,2.54382918 18.749196,2.46866904 C18.719036,2.45864769 18.677624,2.41081851 18.636096,2.39441993 C18.475552,2.33007829 18.330668,2.30958007 18.185204,2.15686833 C17.97362,2.11644128 17.846948,1.97090391 17.637452,1.90086833 C17.564952,1.87683986 17.433292,1.77172954 17.32402,1.71592883 C16.965116,1.53338078 16.498332,1.15359431 16.112284,0.98744484 C16.021456,0.948384342 15.970532,0.899302491 15.913344,0.853978648 C15.75628,0.728711744 15.58982,0.721309609 15.47788,0.58966548 C15.358632,0.575202847 15.062136,0.387644128 15.01272,0.356099644 C14.90368,0.285950178 14.712164,0.107843416 14.56322,0.095658363 C14.393976,0.0818790036 14.094928,0.314647687 13.93972,0.409736655 C13.839032,0.471459075 13.670136,0.496854093 13.57258,0.548099644 C13.506112,0.582946619 13.475256,0.649907473 13.411804,0.682476868 C13.19036,0.796811388 12.967292,0.917181495 12.739352,1.04017082 C12.57034,1.13127402 12.380448,1.21850534 12.202388,1.30778648 C12.118868,1.34969395 12.000432,1.37178648 11.920856,1.42269039 C11.286684,1.82730249 10.64474,2.10949466 10.00036,2.43120285 C9.88436,2.48905338 9.806872,2.57617082 9.690872,2.63641281 C9.415836,2.7796726 9.10774,2.91655516 8.859732,3.08281851 C8.831892,3.10160854 8.774936,3.09147331 8.741992,3.10012811 C8.622164,3.13155872 8.530756,3.24896797 8.414408,3.29531673 C8.316852,3.33414947 8.198416,3.35373665 8.105616,3.39507473 C8.046224,3.42160854 8.036828,3.47080427 7.978016,3.5129395 C7.930804,3.54676157 7.857144,3.5590605 7.806336,3.58251957 C7.8068,3.61964413 7.593244,3.72669039 7.545916,3.74434164 C7.525036,3.74286121 7.544756,3.74570819 7.527704,3.73420641 C7.382472,3.83305338 7.220304,3.9517153 7.059412,4.02835587 C6.945616,4.08267616 6.78194,4.12082562 6.677192,4.19336655 C6.331164,4.43319573 5.970056,4.68361566 5.59352,4.82938078 C5.538188,4.85090391 5.171512,5.12170819 5.161768,5.14345907 C4.30128,5.57824911 3.477216,6.11268327 2.6303,6.59063345 C2.541908,6.64051246 2.419644,6.66294662 2.325452,6.70439858 C2.236596,6.76885409 2.147508,6.83342349 2.058652,6.89799288 C1.927456,6.96985053 1.75856,7.02143772 1.632584,7.09773665 C1.507536,7.17346619 1.34386,7.26821352 1.23656,7.34929537 C1.20872,7.37708185 1.18088,7.40475445 1.152924,7.43254093 C1.000152,7.50234875 0.808636,7.59493238 0.671756,7.70744484 C0.640088,7.74866904 0.60842,7.790121 0.576636,7.83123132 C0.538588,7.85560142 0.472004,7.8627758 0.43732,7.90730249 C0.371316,7.99202847 0.429432,8.31897509 0.420036,8.4387758 C0.3886,8.83769395 0.401012,9.17841993 0.348348,9.58724555 C0.336632,9.6775516 0.366212,9.79530249 0.351596,9.89494662 C0.30856,10.1881851 0.337792,10.4628612 0.33234,10.7430036 C0.329904,10.8748754 0.275964,10.9920569 0.27144,11.1207402 C0.281416,11.2007972 0.291624,11.280968 0.301484,11.3610249 C0.300904,11.5408399 0.258564,11.6925267 0.256708,11.8773523 C0.255664,12.0078577 0.31378,12.1634164 0.30624,12.292669 C0.297888,12.4334235 0.272368,12.5236157 0.264596,12.6576512 C0.253808,12.8360996 0.301484,13.0450676 0.31088,13.2245409 C0.299048,13.2730534 0.287332,13.3212242 0.2755,13.3697367 C0.268192,13.4563986 0.26274,13.6798292 0.274224,13.7687687 C0.303804,13.9985765 0.298932,14.2298648 0.290232,14.4718577 C0.299628,14.5041993 0.308792,14.5368826 0.318072,14.569452 C0.316796,14.6175089 0.2755,14.7001851 0.275384,14.7691957 C0.275152,14.9690534 0.312852,15.1480712 0.31146,15.3539644 C0.302644,15.4665907 0.29406,15.579331 0.285128,15.6924128 C0.296844,15.7417224 0.308328,15.7912598 0.319812,15.8406833 C0.3103,15.9059359 0.300904,15.9713025 0.291276,16.036669 C0.293364,16.0821068 0.32364,16.1512313 0.320972,16.1940498 C0.315288,16.2752456 0.272252,16.3286548 0.273064,16.4029039 C0.217036,16.472484 0.16472,16.4593879 0.115884,16.5514021 C0.119712,16.6003701 0.123424,16.6495658 0.127252,16.6986477 C0.170752,16.7879288 0.297888,16.8465765 0.311344,16.9416655 C0.329556,17.0694377 0.296728,17.1863915 0.29696,17.3219075 C0.297308,17.5133381 0.369924,17.6879146 0.348464,17.879573 C0.332108,18.026363 0.290232,18.2044698 0.30218,18.3363416 C0.312968,18.457395 0.352292,18.6036157 0.3538,18.7061068 C0.356816,18.9306762 0.321552,19.1419217 0.33466,19.3659217 C0.341852,19.4873167 0.376188,19.6707758 0.369692,19.7852242 C0.358788,19.8181352 0.347652,19.851274 0.336632,19.8845267 C0.337444,20.0575089 0.37062,20.2590747 0.37004,20.4322847 C0.36946,20.5843132 0.323292,20.6885125 0.33118,20.8341637 C0.369228,21.5475018 0.372592,22.287032 0.413772,23.0086833 C0.427692,23.2528399 0.377348,23.4861779 0.353568,23.7401281 C0.33698,23.9183488 0.378508,24.1305053 0.399968,24.3070178 C0.613988,24.4484555 0.750288,24.5322705 1.001428,24.6159715 C1.12752,24.6575374 1.165336,24.7484128 1.296648,24.7908897 C1.404644,24.8256228 1.526444,24.9178648 1.637224,24.9909751 C1.845328,25.1276299 2.128716,25.2540356 2.341576,25.3920569 C2.436696,25.4536655 2.584944,25.4929537 2.69468,25.5282562 C2.7463,25.5568399 2.79792,25.5853096 2.849424,25.6138932 C2.866244,25.617879 2.889212,25.594306 2.910208,25.6122989 C2.911252,25.6245979 2.912064,25.6367829 2.913108,25.6490819 C2.96206,25.6682135 3.010896,25.6874591 3.059732,25.7065907 C3.23814,25.8504199 3.622912,25.992427 3.84888,26.190121 C3.932864,26.2243986 4.016848,26.2592456 4.100716,26.2939786 C4.350928,26.4666192 4.748112,26.7145338 5.073028,26.8547189 C5.2577,26.9346619 5.49434,27.1099217 5.692816,27.1740356 C5.733648,27.2004555 5.774248,27.2268754 5.81508,27.2531815 C6.09174,27.3635302 6.324088,27.5127117 6.559336,27.6058648 C6.6236,27.6316014 6.639608,27.7102918 6.73496,27.7384199 C7.286888,27.8999004 7.805176,28.4415089 8.368472,28.6295231 C8.452572,28.6574235 8.503844,28.7467046 8.562076,28.7718719 C8.90764,28.9226477 9.27072,29.0532669 9.593896,29.271573 C9.63032,29.2838719 9.667324,29.2966263 9.70398,29.3088114 C9.710244,29.3143915 9.722772,29.3541352 9.72486,29.3556157 C9.796432,29.3917153 9.867888,29.4271317 9.939344,29.462548 C9.96788,29.4899929 9.99572,29.5174377 10.02414,29.5447687 C10.172852,29.6192456 10.321912,29.6939502 10.471088,29.7681993 C10.586044,29.8523559 10.754592,29.9842278 10.892168,30.0363843 C11.156764,30.1369395 11.374728,30.293637 11.653708,30.4219786 C11.754976,30.4819929 11.856128,30.542121 11.957628,30.6020214 C12.129076,30.6526975 12.368152,30.8052954 12.550272,30.9059644 C12.728912,31.0052669 12.92936,31.0956868 13.045592,31.1912313 C13.209964,31.3273167 13.419228,31.3612527 13.578148,31.4742206 C13.6851,31.5506335 13.976956,31.653694 14.119056,31.7847687 C14.180884,31.8425053 14.197124,31.8980783 14.297232,31.9541068 C14.466244,31.9099217 14.640128,31.8841851 14.80798,31.8363559 C14.88512,31.8147189 14.930476,31.7283986 15.006572,31.6993594 C15.023508,31.7047117 15.040096,31.7100641 15.05738,31.7155302 C15.063992,31.7038007 15.071068,31.6918434 15.077912,31.6797722 C15.214212,31.5969822 15.351672,31.4901637 15.498064,31.4063488 C15.623576,31.3348327 15.789456,31.3249253 15.907776,31.2563701 C15.996864,31.2045552 16.056604,31.1398719 16.144764,31.0934093 C16.222368,31.0528683 16.320156,31.0361281 16.398108,30.9865907 C16.526752,30.9040285 16.645884,30.8099644 16.783576,30.7526833 C17.507648,30.4520427 18.184856,30.0427616 18.89408,29.6842705 C19.037804,29.6119573 19.132808,29.4469466 19.273864,29.3770249 C19.379308,29.3246406 19.518044,29.2960569 19.626852,29.2424199 C19.712112,29.2006263 19.767212,29.1367402 19.849804,29.0836726 C19.866624,29.0728541 19.898872,29.0807117 19.915924,29.0730819 C20.1057,28.9857367 20.281788,28.8520427 20.46414,28.7644698 C20.564016,28.7165267 20.631644,28.6008256 20.73616,28.5619929 C20.759476,28.5632456 20.782676,28.5643843 20.80576,28.5655231 C20.819448,28.5417224 20.833252,28.517694 20.84694,28.4940071 C20.917932,28.4428754 21.031728,28.3570107 21.117684,28.3141922 C21.153528,28.296427 21.187168,28.3234164 21.225216,28.3147616 C21.311172,28.2952883 21.373696,28.1541922 21.458492,28.1380214 C21.499208,28.1302776 21.536676,28.1566975 21.575072,28.1436014 C21.648152,28.1186619 21.670424,28.0389466 21.727148,28.0040996 C21.782364,27.9701637 21.86774,27.9731246 21.925972,27.9495516 C22.01738,27.9126548 22.084428,27.8562847 22.175256,27.828726 C22.19312,27.810847 22.211332,27.7934235 22.229196,27.7758861 C22.34276,27.7061922 22.482424,27.627274 22.604804,27.5600854 C22.60492,27.5468754 22.67336,27.4815089 22.702592,27.4730819 C22.869052,27.4247972 23.060336,27.3298221 23.213688,27.2499929 C23.338968,27.1848541 23.442092,27.0715445 23.54394,27.008911 C23.657736,26.939331 23.807608,26.8956014 23.926276,26.8439004 C23.997964,26.8125836 24.02302,26.7456228 24.092272,26.7002989 C24.183448,26.640968 24.32288,26.5751459 24.424032,26.5191174 C24.501172,26.4760712 24.53574,26.3888399 24.615432,26.3309893 C24.731664,26.2471744 24.874924,26.2180214 24.993824,26.1521993 C25.00554,26.1386477 25.017024,26.1256655 25.02874,26.1123416 C25.43126,25.9615658 25.731468,25.68279 26.116356,25.4906762 C26.350676,25.373153 26.61968,25.2713452 26.836368,25.1121423 C27.0831,24.930847 27.310692,24.7772242 27.557076,24.6286121 C27.649528,24.5723559 27.708224,24.468726 27.805548,24.4246548 C28.036852,24.3210249 28.411184,24.1052242 28.575788,23.8975089 C28.610588,23.8530961 28.688308,23.8207544 28.709304,23.7478719 L28.709304,23.7478719 Z M3.630916,10.7785338 C3.605048,10.8424199 3.534636,10.904484 3.489744,10.982605 C3.307856,11.3003274 3.13142,11.5327544 2.990132,11.8119858 C2.880048,12.0296085 2.702568,12.2706904 2.607216,12.4589324 C2.547592,12.5765694 2.504092,12.6921566 2.452356,12.7497794 C2.345288,12.868669 2.348884,13.0114733 2.232072,13.1336655 C2.171056,13.1975516 1.997404,13.3972954 1.950772,13.5193737 C1.922816,13.5824626 1.894744,13.6450961 1.866556,13.7081851 C1.641748,14.0019929 1.418216,14.4660498 1.233544,14.769879 C1.11998,14.9569822 1.022888,15.0448968 0.92684,15.2002278 C0.881948,15.2728826 0.799588,15.3085267 0.806316,15.3685409 C0.783812,15.3800427 0.761424,15.3909751 0.739036,15.4021352 C0.724304,15.4016797 0.730684,15.3975801 0.702844,15.3819786 C0.712704,15.3716157 0.722564,15.3613665 0.732308,15.3514591 C0.719084,15.3358577 0.726624,15.3447402 0.704932,15.3361993 C0.713284,15.328911 0.721404,15.3216228 0.72964,15.3144484 C0.726508,15.3127402 0.723492,15.3111459 0.72036,15.3093238 C0.714328,15.3029466 0.720012,15.2987331 0.711312,15.304427 C0.644844,15.1897509 0.695188,15.0923843 0.67164,14.9766833 C0.661084,14.9245267 0.616424,14.8354733 0.61712,14.7583772 C0.618396,14.6399431 0.661316,14.5455374 0.661548,14.4301779 C0.66236,14.1950178 0.644032,13.9476726 0.6467,13.7040854 C0.637072,13.6166263 0.627444,13.5291673 0.617932,13.4411388 C0.62756,13.297879 0.660968,13.1645267 0.656676,13.0392598 C0.653196,12.9405267 0.5974,12.8243701 0.597748,12.7243843 C0.59798,12.608 0.63858,12.5340925 0.635912,12.4279573 C0.631968,12.2598719 0.57072,12.0576228 0.583248,11.8929537 C0.599024,11.6887687 0.65018,11.5271744 0.639392,11.3358577 C0.63568,11.2757295 0.600184,11.1947616 0.597864,11.1365694 C0.616308,11.0486548 0.634636,10.9608541 0.653196,10.8730534 C0.660736,10.6733096 0.609696,10.4408826 0.642756,10.2438719 C0.733468,9.70192171 0.69658,9.20233452 0.731032,8.66960854 C0.739036,8.54468327 0.80214,8.15681139 0.779056,8.08427046 C0.92742,7.90263345 1.147704,7.85036299 1.3195,7.74798577 C1.504056,7.63763701 1.637108,7.47638434 1.81946,7.37753737 C1.922468,7.32162278 2.050416,7.28757295 2.154004,7.23302491 C2.241236,7.17141637 2.328468,7.10992171 2.4157,7.04831317 C2.52184,6.99854804 2.655472,6.96837011 2.759292,6.90881139 C2.933408,6.79345196 3.107408,6.67797865 3.281408,6.56239146 C3.476172,6.45545907 3.695528,6.35866192 3.894816,6.26630605 C4.01244,6.18636299 4.13018,6.10630605 4.248036,6.02624911 C4.524232,5.87137367 4.827572,5.70545196 5.103536,5.55832028 C5.261064,5.47439146 5.398524,5.32418505 5.558604,5.2452669 C5.962516,5.04643416 6.351348,4.82209253 6.73786,4.56802847 C6.81558,4.51701068 6.931812,4.49799288 7.00118,4.4431032 C7.032848,4.45654093 7.026584,4.45551601 7.064864,4.47829181 C7.068228,4.47237011 7.071708,4.4664484 7.075072,4.46052669 C7.092588,4.48580783 7.110104,4.51097509 7.127504,4.53637011 C7.106972,4.55162989 7.114744,4.54809964 7.093864,4.55311032 C7.100592,4.57634164 7.107088,4.59968683 7.113816,4.62291815 C7.04294,4.70798577 6.945616,4.84475445 6.89968,4.97514591 C6.890052,5.01283986 6.880308,5.05064769 6.870564,5.08845552 C6.667216,5.40822776 6.538688,5.74496797 6.31736,6.0528968 C6.231404,6.21711032 6.145216,6.38120996 6.059028,6.54542349 C5.981772,6.6283274 5.937692,6.7888968 5.850112,6.88854093 C5.748612,7.00401423 5.637832,7.18382918 5.589924,7.32116726 C5.538072,7.47091815 5.369408,7.67157295 5.305492,7.7754306 C5.280088,7.84762989 5.254568,7.91994306 5.229164,7.99214235 C5.08022,8.18938078 4.884296,8.47817794 4.772704,8.70422776 C4.740804,8.78064057 4.70902,8.85705338 4.67712,8.93369395 C4.61912,9.00634875 4.59766,9.11032028 4.51936,9.18753025 C4.370416,9.3347758 4.334572,9.5240427 4.209292,9.68654804 C4.050488,9.89266904 3.953048,10.1142776 3.861524,10.376427 C3.829856,10.4670747 3.755616,10.4885979 3.711188,10.5758292 C3.684508,10.6432456 3.657712,10.7106619 3.630916,10.7785338 L3.630916,10.7785338 Z M21.8834,4.56609253 C21.946736,4.59695374 21.994876,4.5944484 22.049512,4.6107331 C22.160872,4.64364413 22.307032,4.80558007 22.462008,4.87390747 C22.75804,5.00452669 23.0144,5.18593594 23.323192,5.31484698 C23.485592,5.3824911 23.638132,5.58086833 23.830112,5.64213523 C23.992512,5.6938363 24.141804,5.77879004 24.318704,5.87683986 C24.359072,5.89927402 24.420436,5.95962989 24.435864,5.96520996 C24.797436,6.09093238 25.39936,6.48210676 25.731352,6.69312456 C25.849672,6.7682847 26.050584,6.85096085 26.17946,6.89366548 C26.259384,6.94958007 26.339076,7.00538078 26.418768,7.06129537 C26.619448,7.1430605 26.841472,7.27572954 27.018024,7.41625623 C27.144232,7.51635587 27.343752,7.55404982 27.461028,7.62579359 C27.50534,7.65278292 27.589556,7.72099644 27.618788,7.74821352 C27.709964,7.79091815 27.801372,7.83339502 27.892548,7.87609964 C27.94962,7.89523132 27.980708,7.93964413 28.009824,7.96435587 C28.114108,8.05340925 28.262704,8.08666192 28.364552,8.1605694 C28.333928,9.03800712 28.334276,9.92159431 28.45364,10.7621352 C28.421972,10.7785338 28.444592,10.8664484 28.446912,10.8995872 C28.456656,11.0403416 28.463152,11.1787046 28.47278,11.3137651 C28.487048,11.5156726 28.428584,11.7151886 28.43276,11.9268897 C28.440648,12.3172669 28.460368,12.7229039 28.453292,13.1028043 C28.448188,13.3738363 28.399932,13.6384911 28.44146,13.8958577 C28.454452,13.976484 28.401556,14.0454947 28.401672,14.1326121 C28.401672,14.3320142 28.463848,14.5532811 28.463732,14.7551886 C28.463616,14.9050534 28.44088,15.0338505 28.461412,15.1773381 C28.466864,15.2158292 28.493428,15.2629751 28.49714,15.3028327 C28.50178,15.3570391 28.446796,15.4276441 28.465472,15.4619217 C28.453176,15.4629466 28.440764,15.4637438 28.428004,15.4647687 C28.195424,15.3062491 28.080004,14.8871744 27.933496,14.6147758 C27.86958,14.4966833 27.79128,14.3884982 27.73038,14.2792883 C27.700916,14.2471744 27.671104,14.2150605 27.641524,14.1830605 C27.617628,14.1236157 27.591644,14.018847 27.549536,13.9674875 C27.532948,13.9622491 27.515896,13.9568968 27.499076,13.9513167 C27.487708,13.9302491 27.493624,13.8818505 27.480284,13.8586192 C27.385976,13.6952028 27.27972,13.52279 27.173,13.3711032 C27.107112,13.2776085 27.010484,13.2142918 26.947612,13.1170391 C26.936244,13.1000712 26.960604,13.0787758 26.954804,13.0623772 C26.926732,12.9859644 26.861772,12.9292527 26.820128,12.8584199 C26.752152,12.7439715 26.704244,12.592968 26.642764,12.4781779 C26.604484,12.4335374 26.56632,12.3888968 26.527924,12.3442562 C26.463892,12.2218363 26.395916,12.1285694 26.301724,12.0074021 C26.322836,12.0091103 26.296736,11.9215374 26.288036,11.9058221 C26.253584,11.8427331 26.173428,11.8100498 26.141992,11.7426335 C25.80188,11.0107331 25.260276,10.3010391 24.849868,9.54636299 C24.768436,9.39695374 24.64942,9.233879 24.5543,9.10052669 C24.51312,9.04301779 24.414636,8.98152313 24.394104,8.94132384 C24.392596,8.90932384 24.391088,8.87709609 24.389464,8.84475445 C24.357216,8.80353025 24.325084,8.76219217 24.292952,8.72085409 C24.270912,8.66175089 24.249104,8.60253381 24.227064,8.54331673 C24.171268,8.47328114 24.115472,8.40324555 24.060024,8.33332384 C24.041928,8.30075445 24.028588,8.24119573 24.009912,8.21147331 C23.96908,8.14633452 23.885096,8.10419929 23.859808,8.03450534 C23.828024,7.94567972 23.782552,7.82610676 23.738936,7.74422776 C23.68894,7.65027758 23.598112,7.58696085 23.545564,7.49608541 C23.438612,7.31091815 23.362516,7.08076868 23.258116,6.89024911 C23.163576,6.71749466 23.010804,6.59029181 22.917192,6.41947331 C22.81952,6.24125267 22.708856,6.03752313 22.598888,5.86716014 C22.5591,5.80543772 22.496228,5.77480427 22.461892,5.70909609 C22.42222,5.63234164 22.429992,5.55797865 22.384172,5.48965125 C22.188016,5.19732384 21.992672,4.9236726 21.852892,4.61950178 C21.8631,4.60173665 21.873424,4.58385765 21.8834,4.56609253 L21.8834,4.56609253 Z M8.698608,3.59356584 C8.711136,3.55723843 8.713456,3.57545907 8.700928,3.54778648 C8.963088,3.34781495 9.35192,3.21081851 9.646908,3.04740214 C10.143504,2.77227046 10.624788,2.4802847 11.135072,2.27029181 C11.133448,2.24945196 11.280536,2.15789324 11.319396,2.13705338 C11.366724,2.1239573 11.414052,2.11097509 11.461496,2.09810676 C11.620184,2.00939502 11.763212,1.91840569 11.915636,1.80794306 C12.024328,1.72891103 12.167588,1.68347331 12.288576,1.63769395 C12.396108,1.57562989 12.50364,1.51356584 12.611172,1.4513879 C12.645044,1.43635587 12.6962,1.44785765 12.729028,1.43419217 C12.882612,1.37007829 12.991072,1.23182918 13.140248,1.15575801 C13.196972,1.12671886 13.271676,1.11954448 13.330256,1.09619929 C13.467136,1.04130961 13.568404,0.932213523 13.701572,0.86627758 C13.7634,0.835871886 13.85388,0.826533808 13.92,0.79886121 C13.919768,0.789978648 14.032056,0.708441281 14.065928,0.691131673 C14.124856,0.660839858 14.208492,0.650704626 14.266028,0.613580071 C14.28598,0.585565836 14.306164,0.557437722 14.326348,0.529423488 C14.386088,0.51541637 14.44606,0.501523132 14.505916,0.487629893 C14.645116,0.572355872 14.7842,0.65719573 14.9234,0.741807829 C15.226972,0.853067616 15.64898,1.08185053 15.905804,1.2848968 C16.001968,1.32623488 16.0979,1.36768683 16.193948,1.40902491 C16.362264,1.50582206 16.530232,1.60261922 16.698316,1.69953025 C16.94354,1.91305338 17.498948,2.2356726 17.783728,2.33474733 C17.830476,2.36458363 17.87734,2.39441993 17.923972,2.42414235 C18.112356,2.52925267 18.264548,2.62627758 18.43472,2.68287544 C18.54956,2.7541637 18.664632,2.82556584 18.779356,2.89685409 C18.910088,2.93830605 19.05184,3.00595018 19.158328,3.07131673 C19.202292,3.09944484 19.246024,3.12745907 19.289872,3.15558719 C19.41492,3.20911032 19.5402,3.26263345 19.665132,3.3160427 C19.763152,3.37514591 19.935528,3.51738078 20.061272,3.52330249 C20.15674,3.57488968 20.274828,3.6366121 20.314964,3.68717438 C20.336192,3.69879004 20.357536,3.71051957 20.378648,3.72224911 C20.362524,3.74696085 20.364612,3.73158719 20.36322,3.74912456 C20.277728,3.81847687 19.874976,3.76563701 19.736588,3.75550178 C19.700628,3.75276868 19.67708,3.78328826 19.646108,3.78784342 C19.570592,3.79888968 19.440324,3.75629893 19.385572,3.76142349 C19.315972,3.76814235 19.225492,3.80037011 19.159372,3.8009395 C19.037688,3.80207829 18.925748,3.75869039 18.805572,3.77007829 C18.700244,3.78009964 18.52404,3.81437722 18.413144,3.76495374 C18.414304,3.76962278 18.415928,3.77417794 18.417088,3.77884698 C18.369064,3.79980071 18.311064,3.75299644 18.25898,3.76210676 C18.14356,3.78214947 18.024544,3.7993452 17.901932,3.79980071 C17.80542,3.80014235 17.732688,3.74969395 17.642556,3.75060498 C17.182616,3.7553879 16.614216,3.70391459 16.069944,3.69298221 C16.047788,3.70414235 16.0254,3.71518861 16.003012,3.72646263 C15.790616,3.72680427 15.582976,3.67931673 15.35144,3.67202847 C15.119788,3.66451246 14.91006,3.69833452 14.70416,3.71404982 C14.67342,3.70505338 14.642564,3.69582918 14.612056,3.68671886 C14.43272,3.69947331 14.261388,3.69343772 14.069524,3.69264057 C14.038088,3.69252669 13.987744,3.7206548 13.955844,3.72384342 C13.880908,3.73135943 13.820356,3.70027046 13.741824,3.69958719 C13.493468,3.697879 13.211704,3.72270463 12.963812,3.74024199 C12.786216,3.7526548 12.624396,3.68945196 12.446916,3.70129537 C12.409216,3.70391459 12.357712,3.73420641 12.318968,3.73648399 C12.208884,3.74286121 12.11446,3.69833452 12.016904,3.69890391 C11.932456,3.69924555 11.8233,3.72839858 11.740012,3.72224911 C11.654984,3.71598577 11.582136,3.67612811 11.498848,3.68307473 C11.177644,3.7098363 10.861196,3.71211388 10.534308,3.71450534 C10.427008,3.71530249 10.297668,3.75413523 10.20974,3.75846263 C9.983772,3.76939502 9.772768,3.70960854 9.543668,3.70790036 C9.414212,3.70687544 9.256452,3.73375089 9.117832,3.71940214 C8.992784,3.70653381 8.699304,3.6436726 8.676916,3.65221352 C8.666592,3.64253381 8.656268,3.63285409 8.645712,3.62317438 C8.676336,3.5753452 8.669724,3.58012811 8.698608,3.59356584 L8.698608,3.59356584 Z M8.660212,4.078121 C8.966568,4.08427046 9.299836,4.03883274 9.601552,4.0455516 C9.797592,4.05010676 9.99746,4.07128826 10.16624,4.06388612 C10.422948,4.05238434 10.6952,4.03894662 10.95852,4.01958719 C11.029396,4.01423488 11.11222,3.97870463 11.184836,3.97984342 C11.377628,3.98303203 11.564388,4.02687544 11.757412,4.02596441 C11.961572,4.02482562 12.177216,3.99453381 12.376272,3.99168683 C12.569644,3.98883986 12.74898,4.0433879 12.939916,4.03268327 C13.122384,4.02232028 13.318424,4.03086121 13.510984,4.01901779 C13.567476,4.01548754 13.655404,3.98337367 13.70888,3.98724555 C13.800172,3.99362278 13.854344,4.04441281 13.93566,4.03029181 C14.215684,3.982121 14.506032,4.03553025 14.800556,4.02619217 C14.934188,4.02197865 15.090672,3.99282562 15.227668,3.99168683 C15.336244,4.00466904 15.444472,4.01765125 15.553164,4.03051957 C16.28002,4.02118149 17.010356,4.04908185 17.760064,4.10966548 C17.920956,4.12264769 18.077092,4.09121708 18.228704,4.08643416 C18.293432,4.0987331 18.358276,4.11103203 18.423352,4.12333096 C18.632384,4.12401423 18.858816,4.10123843 19.065296,4.09019217 C19.19046,4.08335943 19.301008,4.12344484 19.428028,4.12595018 C19.577436,4.12902491 19.755728,4.06582206 19.910936,4.09884698 C19.967196,4.11091815 20.0216,4.13836299 20.091084,4.13972954 C20.248844,4.14280427 20.431544,4.17514591 20.599164,4.17343772 C20.732448,4.17229893 20.866544,4.12731673 21.022912,4.2077153 C20.99948,4.26932384 20.976048,4.33093238 20.952616,4.39242705 C20.88696,4.4680427 20.805644,4.56939502 20.765508,4.67723843 C20.744164,4.72814235 20.722936,4.77916014 20.701824,4.83006406 C20.636632,4.90044128 20.448944,5.21953025 20.416,5.30721708 C20.333988,5.52552313 20.229704,5.79302491 20.058952,5.99219929 C19.896668,6.18158007 19.885764,6.41093238 19.768836,6.56102491 C19.689724,6.67797865 19.61038,6.79493238 19.5315,6.912 C19.502152,6.97019217 19.472688,7.02849822 19.443108,7.08657651 C19.063092,7.57432028 18.70442,8.23174377 18.37904,8.7332669 C17.958656,9.38112456 17.538504,10.0593879 17.304416,10.5857367 C17.28458,10.6062349 17.264976,10.6267331 17.24514,10.6471174 C17.160924,10.7631601 17.083088,10.937395 16.981008,11.0658505 C16.947948,11.1377082 16.914772,11.209452 16.881248,11.2811957 C16.796452,11.4144342 16.664328,11.6349039 16.618972,11.7596014 C16.44648,12.0326833 16.273872,12.305879 16.101264,12.5789609 C15.85372,13.0667046 15.587384,13.4655089 15.36014,13.9335516 C15.19078,14.2828185 14.951588,14.6077153 14.846144,14.9549324 C14.779908,15.1725552 14.45882,15.5317295 14.444204,15.6975374 C14.437824,15.7017509 14.431212,15.7059644 14.424948,15.7102918 C14.279484,15.719516 14.130424,15.3119431 14.057808,15.2013665 C13.762472,14.7526833 13.555876,14.306847 13.269704,13.8600996 C13.210544,13.7334662 13.151268,13.6064911 13.09234,13.4798577 C12.963928,13.275331 12.852336,13.1006406 12.742948,12.8985053 C12.692372,12.8051246 12.68402,12.6737082 12.637272,12.5812384 C12.54134,12.391516 12.4236,12.2278719 12.351448,12.0351886 C12.294724,11.9528541 12.238116,11.8705196 12.181624,11.7882989 C12.0843,11.6145196 11.97584,11.4124982 11.872368,11.2409964 C11.847196,11.2152598 11.821908,11.189637 11.796852,11.1639004 C11.689784,10.9492384 11.555224,10.7475587 11.440616,10.531758 C11.412892,10.4616085 11.385284,10.3913452 11.35756,10.3211957 C11.295268,10.2213238 11.259424,10.1799858 11.210008,10.0984484 C11.185996,10.0773808 11.1621,10.0563132 11.138204,10.0352456 C11.053756,9.81762278 10.96722,9.58166548 10.858064,9.37463345 C10.777096,9.2208968 10.669448,9.09084698 10.580708,8.93904626 C10.453804,8.721879 10.330844,8.43911744 10.217628,8.25611388 C10.185148,8.22240569 10.152552,8.18881139 10.119956,8.15498932 C10.075876,8.07208541 10.045948,7.96982206 10.01196,7.88361566 C9.987252,7.85036299 9.962428,7.81699644 9.93772,7.78362989 C9.87624,7.5270605 9.650156,7.35590036 9.531836,7.11242705 C9.472328,6.98989324 9.441124,6.84025623 9.373844,6.71920285 C9.345308,6.6679573 9.3119,6.65748043 9.272228,6.60418505 C9.18604,6.48837011 9.134536,6.33668327 9.067604,6.20879715 C9.024916,6.12703203 8.82934,5.73380783 8.75104,5.71627046 C8.751388,5.70864057 8.751852,5.70101068 8.7522,5.69349466 C8.740716,5.65147331 8.700464,5.63370819 8.677844,5.59339502 C8.669028,5.55330961 8.660096,5.51311032 8.651164,5.47279715 C8.591772,5.36358719 8.540384,5.24993594 8.48076,5.14323132 C8.458604,5.10405694 8.403504,5.09175801 8.390744,5.070121 C8.335296,4.97480427 8.29922,4.85249822 8.2476,4.75581495 C8.15422,4.5803274 8.003884,4.44287544 7.931036,4.26317438 C7.913752,4.22024199 7.93846,4.16660498 7.91468,4.12481139 C7.942404,4.07345196 7.929064,4.08108185 7.927324,4.06115302 C7.924192,4.05944484 7.921176,4.05773665 7.91816,4.05602847 C8.14262,4.0157153 8.403504,4.07311032 8.660212,4.078121 L8.660212,4.078121 Z M0.829168,16.310548 C0.82476,16.3040569 0.820584,16.2976797 0.815944,16.2916441 C0.861764,16.1561281 0.9077,16.0206121 0.953288,15.8850961 C0.96744,15.8529822 1.015116,15.8138078 1.022656,15.8059502 C1.076944,15.6908185 1.131,15.5753452 1.185056,15.4603274 C1.2064,15.4368683 1.22786,15.4135231 1.24932,15.3900641 C1.306624,15.2783488 1.346876,15.1423772 1.448028,15.064484 C1.455916,14.971331 1.634788,14.7414093 1.701836,14.6639715 C1.772248,14.5341495 1.842544,14.4045552 1.91284,14.2749609 C1.961908,14.2284982 2.1112,14.0030178 2.151568,13.9008683 C2.192168,13.7972384 2.25446,13.6326833 2.327772,13.5513737 C2.430084,13.4381779 2.503512,13.232968 2.581696,13.1508612 C2.699668,13.0267331 2.9145,12.6421637 2.97888,12.5000427 C3.053352,12.3842278 3.127824,12.2682989 3.201948,12.1527117 C3.27236,11.9894093 3.374788,11.7346619 3.476868,11.6108754 C3.572916,11.4944911 3.775336,11.2218648 3.814544,11.1268897 C3.936692,10.8297794 4.248036,10.3572954 4.38538,10.0897936 C4.460896,9.94243416 4.553232,9.75624199 4.620976,9.67891815 C4.700552,9.58827046 4.753912,9.42064057 4.84416,9.33181495 C5.00308,9.17511744 5.01932,8.86684698 5.171396,8.67758007 C5.279392,8.54331673 5.423232,8.37227046 5.510116,8.17081851 C5.701516,7.72646263 6.037684,7.23541637 6.300076,6.7726121 C6.365848,6.67182918 6.431736,6.57081851 6.497624,6.47003559 C6.574764,6.32848399 6.651904,6.18693238 6.72916,6.04538078 C6.755608,6.01588612 6.819176,5.94459786 6.839592,5.89460498 C6.87532,5.80464057 6.910932,5.71456228 6.94666,5.62448399 C6.988652,5.50536655 7.117412,5.41699644 7.153256,5.32691815 C7.285728,4.99325267 7.45184,4.7387331 7.629668,4.49639858 C7.86828,4.67883274 8.003536,5.02741637 8.142156,5.27385053 C8.49468,5.8999573 8.924228,6.48381495 9.199148,7.12848399 C9.312132,7.39302491 9.560836,7.601879 9.676488,7.8627758 C9.734024,7.99248399 9.7817,8.14018505 9.838424,8.27000712 C9.876472,8.3568968 9.96208,8.41019217 10.009408,8.49389324 C10.07808,8.61483274 10.138864,8.73087544 10.220296,8.8575089 C10.234912,8.90864057 10.249412,8.95977224 10.264028,9.01101779 C10.281196,9.04039858 10.346852,9.05429181 10.362976,9.08925267 C10.36576,9.09540214 10.337804,9.12785765 10.350448,9.15279715 C10.377128,9.20563701 10.436056,9.2246548 10.470276,9.27795018 C10.509368,9.33876157 10.528856,9.43123132 10.56238,9.49352313 C10.58732,9.54009964 10.648684,9.5799573 10.664228,9.60854093 C10.66388,9.64372954 10.663764,9.67891815 10.663532,9.71399288 C10.68824,9.74747331 10.71318,9.78072598 10.737888,9.81409253 C10.770948,9.87763701 10.774892,9.97671174 10.81062,10.0425338 C10.90748,10.2202989 11.033688,10.3683416 11.131128,10.5489537 C11.131708,10.5688826 11.132288,10.5886975 11.132752,10.6087402 C11.167668,10.6664769 11.222768,10.6952883 11.251536,10.756669 C11.311044,10.8834164 11.363012,11.0461495 11.436904,11.1649253 C11.849632,11.8302064 12.301916,12.4408256 12.538672,13.1501779 C12.599804,13.333637 12.796308,13.5167544 12.865908,13.7075018 C12.898156,13.7163843 12.88818,13.7163843 12.912424,13.7097794 C12.944092,13.9047402 13.1109,14.1249822 13.210196,14.2976228 C13.231192,14.31721 13.251956,14.3364555 13.272604,14.3558149 C13.29998,14.4204982 13.309956,14.5085267 13.341392,14.5702491 C13.37944,14.6225196 13.417256,14.6749039 13.455304,14.7271744 C13.482564,14.7821779 13.484072,14.8595018 13.516088,14.9137082 C13.60564,15.0665338 13.726976,15.1884982 13.80748,15.3454235 C13.921508,15.5676014 14.021152,15.8105053 14.147128,16.0272171 C14.143764,16.0332527 14.140284,16.0391744 14.13692,16.0449822 C13.651112,16.1457651 13.136884,16.0676441 12.624628,16.0914448 C12.559088,16.0944057 12.471044,16.1175231 12.403532,16.1218505 C12.243452,16.1324413 12.091724,16.0989609 11.932108,16.1082989 C11.855432,16.1128541 11.767504,16.1480427 11.691408,16.1519146 C11.648256,16.1437153 11.605104,16.1352883 11.56172,16.1272028 C11.322528,16.1650107 11.063384,16.1941637 10.815028,16.196669 C10.53106,16.1994021 10.265884,16.1338078 9.985976,16.138363 C9.334752,16.1486121 8.663808,16.2042989 8.018152,16.2267331 C7.887304,16.2311744 7.74474,16.1918861 7.59452,16.1923416 C7.556588,16.2028185 7.51854,16.2131815 7.48084,16.2235445 C7.445344,16.2159146 7.409848,16.2079431 7.374352,16.2001993 C7.275868,16.2048683 7.166132,16.2460925 7.06788,16.2541779 C6.750968,16.2801423 6.433476,16.2981352 6.120392,16.3185196 C5.76056,16.3417509 5.398292,16.2696655 5.037648,16.2845836 C5.002152,16.2859502 4.954476,16.3230747 4.918748,16.3245552 C4.88012,16.3152171 4.841724,16.3055374 4.803444,16.2960854 C4.697188,16.3014377 4.56402,16.3374235 4.460316,16.3300214 C4.35464,16.3221637 4.263348,16.2865196 4.158368,16.2924413 C3.85236,16.3099786 3.511088,16.3163559 3.206936,16.3427758 C2.964032,16.3640712 2.725536,16.3164698 2.482864,16.3309324 C2.400156,16.3356014 2.292856,16.3746619 2.210032,16.3678292 C2.073848,16.3573523 1.953788,16.3403843 1.822708,16.3538221 C1.50742,16.3865053 1.205124,16.4490249 0.829168,16.310548 L0.829168,16.310548 Z M6.418976,27.1400996 C6.302164,27.1054804 6.20658,27.0577651 6.094408,26.9960427 C6.056476,26.9712171 6.018892,26.9465053 5.981308,26.9215658 C5.9363,26.9069893 5.445968,26.6909609 5.427988,26.6744484 C5.297256,26.5556726 5.01178,26.4002278 4.832792,26.3337224 C4.696608,26.2509324 4.56054,26.1676868 4.424472,26.0845552 C4.272976,26.030121 4.018472,25.8787758 3.856536,25.7588612 C3.740884,25.7028327 3.625232,25.6469181 3.509812,25.5906619 C3.438472,25.5473879 3.367596,25.5044555 3.296604,25.4610676 C3.062168,25.3936512 2.506876,25.0954021 2.272556,24.9068185 C2.197504,24.8466904 2.03986,24.8124128 1.970028,24.7866762 C1.822824,24.7326975 1.685712,24.6084555 1.612516,24.553452 C1.460324,24.4776085 1.308364,24.4011957 1.156404,24.3248968 C1.141904,24.3015516 1.127636,24.2778648 1.113252,24.2539502 C1.02312,24.2910747 0.730104,24.0657082 0.730104,24.0657082 C0.699132,23.992484 0.737412,23.7679146 0.739268,23.6945765 C0.74472,23.4791174 0.699712,23.235758 0.71688,23.0237153 C0.728828,22.8741922 0.768152,22.7710178 0.745416,22.6394875 C0.661316,22.1535658 0.7424,21.6481708 0.703424,21.1458505 C0.663404,20.6294093 0.71398,20.1586335 0.7105,19.6088256 C0.707716,19.1837153 0.6728,18.743573 0.6583,18.3216512 C0.650644,18.1074448 0.72558,17.9317295 0.711312,17.7275445 C0.726508,17.7082989 0.741472,17.6890534 0.756204,17.6699217 C0.882528,17.7650107 0.909092,17.9309324 1.012564,18.058363 C1.126592,18.1991174 1.248972,18.3069609 1.333768,18.4596726 C1.408008,18.592911 1.4703,18.756669 1.555328,18.8878577 C1.670864,19.0660783 1.818648,19.1931673 1.923744,19.3737794 C1.964112,19.4430178 1.996012,19.5496085 2.037772,19.6134947 C2.09148,19.6953737 2.172448,19.7294235 2.238568,19.8067473 C2.348536,19.936 2.425792,20.1311886 2.509544,20.2741068 C2.535064,20.2922135 2.5607,20.3103203 2.586336,20.3281993 C2.712892,20.5024342 2.838288,20.7116299 2.946052,20.8915587 C3.015652,21.0083986 3.096736,21.0820783 3.140932,21.1994875 C3.153344,21.2322847 3.322588,21.4850961 3.344976,21.5123132 C3.371888,21.5348612 3.3988,21.5577509 3.425712,21.5804128 C3.517932,21.7728683 3.621752,21.9706762 3.728588,22.1593737 C3.774292,22.240911 3.898992,22.3230178 3.936112,22.4035302 C3.934488,22.4339359 3.932864,22.4644555 3.931356,22.495089 C3.949568,22.5052242 3.96778,22.5153594 3.985876,22.5252669 C4.010932,22.5679715 4.012324,22.6415374 4.047936,22.6887972 C4.213584,22.9092669 4.369488,23.1332669 4.524696,23.3407544 C4.5559,23.3699075 4.58722,23.3989466 4.618424,23.4278719 C4.670276,23.5118007 4.69916,23.6262491 4.767832,23.7104057 C5.004124,23.9995445 5.240184,24.315331 5.40444,24.6269039 C5.445504,24.704911 5.524036,24.7493238 5.567536,24.8231174 C5.692932,25.0339075 5.814384,25.2524413 5.97052,25.4573096 C5.98154,25.4868043 5.99256,25.5161851 6.003464,25.5461352 C6.102412,25.6716299 6.153916,25.7808399 6.238712,25.8877722 C6.261216,25.9045125 6.283836,25.9205694 6.306456,25.9370819 C6.307848,25.9693096 6.309472,26.0014235 6.310864,26.0335374 C6.334992,26.0891103 6.437536,26.2518434 6.470596,26.298306 C6.50702,26.3496655 6.626152,26.4081993 6.654224,26.4586477 C6.673132,26.4929253 6.682876,26.5596584 6.708048,26.5943915 C6.77266,26.6834448 6.880424,26.7090676 6.92694,26.7976655 C6.928216,26.837637 6.929144,26.8773808 6.93042,26.9170107 C6.978908,27.0012811 7.019624,27.0373808 7.022408,27.1328114 C7.058832,27.147274 7.060108,27.1440854 7.087252,27.1451103 C7.09282,27.2595587 7.155576,27.3799288 7.220072,27.4771815 C6.97566,27.552911 6.69436,27.2218648 6.418976,27.1400996 L6.418976,27.1400996 Z M10.34952,23.1494377 C10.282588,23.2211815 10.19466,23.3667189 10.104064,23.4728541 C10.076572,23.5279715 10.048848,23.5832028 10.021124,23.6383203 C9.950828,23.7020925 9.835872,23.8779217 9.792836,23.9945338 C9.647024,24.2629466 9.501096,24.5311317 9.355168,24.7993167 C9.306912,24.8505623 9.210748,24.9256085 9.176528,25.0065765 C9.143352,25.0843559 9.038836,25.1836584 8.992088,25.3280569 C8.931304,25.5157295 8.764844,25.8148897 8.662996,25.9226192 C8.607664,26.0328541 8.552332,26.1437722 8.496884,26.2540071 C8.43494,26.3413523 8.372996,26.4284698 8.31082,26.5155872 C8.283096,26.5708185 8.255372,26.6262776 8.227764,26.6815089 C8.185308,26.7484698 8.1432,26.8149751 8.10086,26.8821637 C8.096684,26.9030036 8.092508,26.9242989 8.088332,26.9454804 C8.056316,26.9832883 8.002376,27.0099359 7.967112,27.0316868 C7.966532,27.081452 7.731632,27.3817509 7.70936,27.418306 C7.684304,27.4200142 7.689524,27.4163701 7.666556,27.4301495 C7.451492,27.3051103 7.34512,26.9659786 7.240372,26.7942491 C7.057324,26.4938363 6.821844,26.2273594 6.639144,25.9210249 C6.543096,25.76 6.45888,25.5817794 6.365268,25.4165409 C6.3278,25.4161993 6.137792,25.0979075 6.094756,25.0318577 C5.863336,24.6783772 5.644212,24.2843559 5.374048,23.9276868 C5.30236,23.8329395 5.225104,23.771331 5.144484,23.6596157 C5.013636,23.4788897 4.901232,23.258306 4.785928,23.0731388 C4.66146,22.8737367 4.490708,22.7359431 4.359048,22.5431459 C4.274716,22.4199288 4.228548,22.2589039 4.150596,22.1340925 C4.01476,21.9170391 3.881476,21.7244698 3.779976,21.5057082 C3.69982,21.3328399 3.534404,21.2085979 3.433948,21.0439288 C3.347992,20.9029466 3.247304,20.6988754 3.150908,20.5346619 C3.057064,20.3747758 2.949648,20.2886833 2.83388,20.1474733 C2.75094,20.0465765 2.701292,19.9162989 2.645264,19.8078861 C2.602344,19.7255516 2.510008,19.6845552 2.46384,19.6019929 C2.416396,19.5165836 2.352944,19.4181922 2.304108,19.3371103 C2.215948,19.190548 2.121408,19.035331 2.012484,18.9052811 C1.949032,18.8295516 1.871776,18.7681708 1.827348,18.6853808 C1.729908,18.5040854 1.634556,18.2935231 1.514264,18.1241851 C1.44768,18.0520996 1.381328,17.9800142 1.314628,17.9080427 C1.216376,17.7530534 1.14318,17.5536512 1.064184,17.4048114 C0.938556,17.168968 0.732424,17.0439288 0.745416,16.7699359 C0.747388,16.7593452 0.749708,16.7486406 0.75168,16.7379359 C0.829168,16.6932954 0.95004,16.7355445 1.04168,16.7339502 C1.181924,16.731331 1.340496,16.713452 1.47784,16.7044555 C1.543032,16.7090107 1.608224,16.7137936 1.673532,16.7184626 C2.028376,16.6279288 2.38728,16.6715445 2.77008,16.6657367 C2.836664,16.6645979 2.922852,16.6388612 2.991292,16.635331 C3.136756,16.6280427 3.26598,16.6565125 3.407036,16.6415943 C3.506332,16.6311174 3.632308,16.5800996 3.73694,16.5887544 C3.755152,16.5987758 3.773248,16.6087972 3.79146,16.6187046 C3.919872,16.6344199 4.07392,16.6052669 4.191312,16.5692811 C4.191312,16.5780498 4.35116,16.6295231 4.384568,16.6290676 C4.419948,16.628726 4.467044,16.5962705 4.498364,16.5980925 C4.521216,16.6067473 4.544184,16.6154021 4.567036,16.6243986 C4.570052,16.6261068 4.573068,16.6275872 4.5762,16.6294093 C4.608912,16.6209822 4.617148,16.5800996 4.653688,16.5780498 C4.718996,16.5742918 4.762264,16.6036726 4.829892,16.6048114 C4.981156,16.6076584 5.173948,16.5856797 5.326952,16.5738363 C5.344236,16.6144911 5.45606,16.6077722 5.498052,16.6097082 C5.605932,16.6025338 5.713928,16.5955872 5.821692,16.5884128 C5.88236,16.5943345 6.02156,16.6320285 6.077008,16.6238292 C6.817088,16.5167829 7.595332,16.4997011 8.35316,16.5408114 C8.55442,16.5521993 8.7696,16.4801139 8.963784,16.4788612 C9.002528,16.4786335 9.00798,16.5042562 9.032804,16.5051673 C9.138248,16.5089253 9.272808,16.4665623 9.380804,16.4623488 C9.40354,16.4712313 9.426624,16.4798861 9.449476,16.488427 C9.466992,16.4787473 9.484856,16.4686121 9.502372,16.4591601 C9.518844,16.4719146 9.535432,16.4848968 9.551788,16.4981068 C9.57638,16.503573 9.65004,16.5023203 9.682636,16.5000427 C9.830884,16.4889964 10.014744,16.4506192 10.161484,16.4589324 C10.504844,16.4777224 10.789044,16.5353452 11.126604,16.5100641 C11.18936,16.5052811 11.26998,16.5072171 11.337608,16.4973096 C11.371828,16.4922989 11.4144,16.4542633 11.44746,16.4519858 C11.50604,16.4482278 11.548844,16.4880854 11.609512,16.482847 C11.97874,16.4513025 12.373604,16.4683843 12.739352,16.4137224 C12.812664,16.4186192 12.885512,16.4237438 12.95836,16.4286406 C13.109624,16.4162278 13.294992,16.4015374 13.454492,16.4203274 C13.614572,16.4399146 13.768156,16.4749893 13.911648,16.4382064 C13.93334,16.4582491 13.93972,16.4608683 13.957004,16.4632598 C14.017904,16.521452 13.827316,16.8817651 13.77384,16.9499786 C13.576872,17.2006263 13.327588,17.6883701 13.170872,18.0636014 C13.147092,18.1209964 13.055684,18.2297509 13.020536,18.2627758 C12.929128,18.34921 12.936088,18.5034021 12.82612,18.6022491 C12.768352,18.6540641 12.660356,18.838548 12.605604,18.9862491 C12.53612,19.1752883 12.378476,19.3325552 12.311544,19.5410676 C12.275932,19.631032 12.240204,19.7209964 12.204476,19.8110747 C11.951364,20.1379075 11.718204,20.5454804 11.578308,20.923331 C11.50488,21.1221637 11.323688,21.2738505 11.251536,21.4724555 C11.173932,21.6863203 11.050276,21.9274021 10.877668,22.1240712 C10.824192,22.1852242 10.721416,22.4173096 10.672928,22.4814235 C10.527116,22.6737651 10.522128,22.9649537 10.34952,23.1494377 L10.34952,23.1494377 Z M15.012024,15.3761708 C15.063296,15.2208399 15.156908,15.1509181 15.204932,14.9771388 C15.257712,14.7859359 15.346452,14.5908612 15.434612,14.4097936 C15.474168,14.3612811 15.514188,14.3127687 15.553976,14.2642562 C15.888056,13.5546762 16.39196,12.7333808 16.80898,12.0762989 C16.832064,12.0396299 16.79216,12.0148043 16.832876,11.9718719 C16.966624,11.8310036 17.063368,11.6029039 17.155588,11.4091957 C17.185052,11.3473594 17.261728,11.2892811 17.289336,11.2596726 C17.368216,11.1750605 17.432248,11.0046975 17.493148,10.9253238 C17.636524,10.7370819 17.69522,10.504427 17.756236,10.3414662 C17.813192,10.2556014 17.870844,10.1695089 17.927916,10.0835302 C18.014916,9.85155872 18.263272,9.46288968 18.405952,9.31291103 C18.427064,9.26166548 18.448524,9.21076157 18.469868,9.15985765 C18.602224,9.0153452 18.764392,8.70684698 18.894428,8.5239573 C18.947788,8.44902491 18.959504,8.36224911 19.042908,8.26511032 C19.164128,8.12378648 19.179788,7.93474733 19.288828,7.83646975 C19.408308,7.72874021 19.479532,7.44529537 19.569896,7.45076157 C19.739604,7.12153737 19.957336,6.8870605 20.078208,6.5437153 C20.118112,6.49520285 20.157668,6.44669039 20.197572,6.39806406 C20.229472,6.33224199 20.304524,6.1711032 20.304756,6.12805694 C20.31566,6.12999288 20.326216,6.1320427 20.33712,6.13420641 C20.335844,6.10186477 20.334104,6.06963701 20.332596,6.03740925 C20.351968,5.95655516 20.45254,5.92068327 20.467388,5.86511032 C20.499056,5.74758719 20.445464,5.71467616 20.579676,5.585879 C20.649044,5.51960142 20.600092,5.41802135 20.650784,5.37827758 C20.681988,5.35311032 20.653336,5.3602847 20.693356,5.36654804 C20.687324,5.32976512 20.678276,5.27385053 20.727576,5.24446975 C20.72688,5.2203274 20.722356,5.22271886 20.715744,5.2024484 C20.713308,5.19140214 20.940668,4.9344911 20.967696,4.93004982 C20.967812,4.90351601 20.960736,4.90602135 20.960852,4.87937367 C20.9438,4.88597865 20.93162,4.89588612 20.913292,4.89998577 C20.91132,4.90294662 20.909812,4.90590747 20.908072,4.90886833 C20.905056,4.90727402 20.90204,4.90567972 20.898908,4.90385765 C20.9148,4.85978648 20.965724,4.76424199 21.014676,4.74431317 C21.029988,4.74488256 21.045648,4.74567972 21.06096,4.74647687 C21.088336,4.72062633 21.094716,4.63145907 21.101676,4.59239858 C21.15434,4.59752313 21.1671,4.59194306 21.208048,4.61597153 C21.243312,4.58807117 21.246792,4.56905338 21.281244,4.55060498 C21.431232,4.65879004 21.480996,4.81822064 21.56092,4.94041281 C21.603028,5.00486833 21.657084,5.03071886 21.703252,5.08959431 C21.851152,5.27874733 22.01796,5.53235587 22.104728,5.74690391 C22.141036,5.79439146 22.177692,5.84210676 22.214464,5.88982206 C22.334872,6.12179359 22.47326,6.28885409 22.622552,6.51535943 C22.911276,6.95356584 23.144784,7.44768683 23.413556,7.89363701 C23.49638,8.03120285 23.604724,8.13130249 23.689056,8.26943772 C23.878136,8.57896085 24.042276,8.92720285 24.239128,9.23217082 C24.378096,9.44694662 24.526924,9.63917438 24.6616,9.8538363 C24.728416,9.9606548 24.77934,10.1064199 24.849056,10.2160854 C25.011804,10.4726548 25.212136,10.7014377 25.353424,10.965637 C25.423952,11.0972811 25.4736,11.2660498 25.552132,11.3930249 C25.625676,11.5128256 25.707224,11.6017651 25.783204,11.7207687 C25.873684,11.8623203 25.931916,12.0517011 26.025992,12.1959858 C26.131668,12.358605 26.26298,12.4803416 26.358912,12.6388612 C26.454032,12.7959004 26.489644,12.9990605 26.590332,13.154847 C26.698792,13.3238434 26.843676,13.4542349 26.954456,13.6268754 C27.01524,13.7215089 27.055144,13.8468897 27.106764,13.9461922 C27.165112,14.025452 27.22346,14.1047117 27.281692,14.1840854 C27.491536,14.5785623 27.668204,15.0115302 27.888952,15.4020214 C27.973632,15.5512028 28.087892,15.6813665 28.15726,15.8325979 C28.129188,15.8697224 28.034416,15.896484 27.968412,15.8693808 C27.969804,15.8740498 27.971312,15.8787189 27.972472,15.883274 C27.875032,15.9344057 27.526336,15.8817936 27.397576,15.8830463 C27.279604,15.8841851 27.130892,15.9145907 27.01176,15.9285979 C26.987052,15.9314448 26.975568,15.9035445 26.96652,15.9035445 C26.776628,15.903089 26.548456,15.892726 26.353924,15.9059359 C26.139556,15.9206263 25.898972,15.9785907 25.67428,15.9421495 C25.652936,15.9511459 25.67138,15.938847 25.661288,15.9230178 C25.510024,15.9947616 25.286028,15.8727972 25.124904,15.8971673 C24.923528,15.927573 24.733752,15.8896512 24.503376,15.8946619 C24.418928,15.896484 24.31592,15.9266619 24.230544,15.9319004 C24.187276,15.9237011 24.144124,15.9156157 24.100856,15.9071886 C23.997268,15.9102633 23.875004,15.9311032 23.772112,15.9372527 C23.757728,15.9110605 23.593124,15.9051388 23.54916,15.9082135 C23.49232,15.8842989 23.047692,15.9083274 22.93668,15.9108327 C22.355636,15.9219929 21.782132,15.8984199 21.222316,15.9747189 C20.947048,16.0120712 20.668068,15.9519431 20.381896,15.9569537 C20.182724,15.9603701 19.98506,15.9925979 19.80062,15.9883843 C19.640424,15.9850819 19.496004,15.965153 19.338476,15.9799573 C18.807196,16.0292669 18.319996,16.0048968 17.7654,16.0279004 C17.439556,16.0413381 17.168812,16.084726 16.820116,16.0463488 C16.377924,15.9974947 15.975752,16.088484 15.559428,16.113879 C15.45584,16.1201423 15.314784,16.0782349 15.23776,16.0891673 C15.194724,16.0808541 15.151456,16.0727687 15.108536,16.0645694 C15.014576,16.0720854 14.762856,16.1229893 14.710308,15.9856512 C14.710424,15.9464769 14.815172,15.6411673 14.870736,15.580242 C14.905652,15.5423203 14.982212,15.4657936 15.012024,15.3761708 L15.012024,15.3761708 Z M7.971172,27.8807687 C7.96804,27.8515018 7.964792,27.8222349 7.961776,27.7928541 C8.380304,27.0600427 9.012156,26.1837438 9.281044,25.5347473 C9.316076,25.4496797 9.381732,25.3856797 9.4221,25.3304484 C9.480216,25.2509609 9.47952,25.1809253 9.541116,25.1020071 C9.660364,24.9494093 9.786688,24.7674306 9.861392,24.585452 C9.91394,24.5004982 9.966488,24.4161139 10.019036,24.331274 C10.05778,24.2153452 10.160556,24.0991886 10.198488,24.0185623 C10.394876,23.6003986 10.739164,23.2219786 10.875696,22.8170249 C10.941004,22.6229751 11.10294,22.5281139 11.169292,22.3676584 C11.236108,22.2064057 11.378904,22.0524413 11.440732,21.8944911 C11.603132,21.4803132 11.86796,21.141637 11.986744,20.7964698 C12.002636,20.7504626 12.144272,20.5818078 12.15332,20.5476441 C12.209812,20.3383345 12.367572,20.2165979 12.464664,20.0257367 C12.573704,19.8119858 12.701072,19.5939075 12.7716,19.4072598 C12.954532,18.9228185 13.270516,18.5858505 13.488944,18.1568683 C13.62942,17.8809395 13.733588,17.5658363 13.93682,17.3342064 C14.052008,17.2029039 14.1665,16.9587473 14.209536,16.8379217 C14.23668,16.7610534 14.342588,16.5958149 14.36196,16.5927402 C14.385856,16.5550463 14.39038,16.5533381 14.416016,16.5404698 C14.626788,16.7758577 14.736408,17.0561139 14.886976,17.3068754 C14.95182,17.4142633 15.089164,17.5087829 15.123848,17.6255089 C15.151224,17.7188897 15.181036,17.8178505 15.226624,17.905879 C15.309216,18.0671317 15.4454,18.1868185 15.536228,18.3477295 C15.615572,18.4887117 15.696888,18.6565694 15.779828,18.7999431 C15.830984,18.8879715 15.90302,18.9441139 15.95986,19.0289537 C16.015888,19.1128826 16.04976,19.2274448 16.095116,19.3153594 C16.14488,19.4117011 16.225732,19.4751317 16.283268,19.5724982 C16.327,19.6461779 16.353448,19.7599431 16.396368,19.8347616 C16.450424,19.9296228 16.54044,19.9883843 16.603892,20.0789181 C16.718732,20.2425623 16.846912,20.4499359 16.922196,20.6312313 C16.941916,20.6789466 17.011632,20.7669751 17.039588,20.8020498 C17.071372,20.8234591 17.102692,20.8449822 17.134708,20.8663915 C17.33098,21.1589466 17.452084,21.4965979 17.649284,21.786306 C17.698352,21.8580498 17.760528,21.8800285 17.809712,21.9452811 C17.864812,22.0186192 17.899728,22.1332954 17.969212,22.2099359 C17.985104,22.2271317 17.98406,22.223032 18.010972,22.2210961 C18.02234,22.2426192 18.017468,22.2740498 18.006448,22.3128826 C18.079644,22.3795018 18.177548,22.4770961 18.19982,22.5606833 C18.19692,22.5791317 18.194716,22.5971246 18.192164,22.6154591 C18.230792,22.7054235 18.306888,22.7613381 18.358392,22.8484555 C18.379388,22.8840996 18.381592,22.9442278 18.412216,22.9837438 C18.440288,23.0113025 18.46836,23.0388612 18.49678,23.0661922 C18.519864,23.1156157 18.53042,23.1902064 18.553504,23.2387189 C18.590508,23.2785765 18.627396,23.3187758 18.6644,23.3587473 C18.72704,23.4555445 18.802324,23.5873025 18.843968,23.6934377 C18.879116,23.7362562 18.914264,23.7791886 18.949528,23.8222349 C19.070748,24.0520427 19.183268,24.3146477 19.301356,24.5460498 C19.375016,24.6612954 19.448792,24.7765409 19.522336,24.8919004 C19.602144,25.103032 19.719536,25.2937794 19.847716,25.4948897 C19.867436,25.5260925 19.8737,25.5989751 19.89226,25.6252811 C19.909312,25.6309751 19.926248,25.6363274 19.94272,25.6416797 C19.998052,25.7254947 20.027864,25.8470036 20.078208,25.9280854 C20.137136,26.0227189 20.213,26.0765836 20.262416,26.1711032 C20.337236,26.3148185 20.402428,26.4794875 20.482816,26.6224057 C20.50648,26.6432456 20.530376,26.6643132 20.554272,26.6854947 C20.569816,26.7144199 20.539888,26.7649822 20.553808,26.7908327 C20.576428,26.8073452 20.5987,26.8237438 20.621436,26.8400285 C20.648348,26.8834164 20.689992,26.95721 20.715744,27.0100498 C20.726184,27.0319146 20.714236,27.0609537 20.721428,27.0836157 C20.764812,27.2212954 20.879536,27.3519146 20.949252,27.4801423 C20.972104,27.5225053 20.958532,27.5680569 20.994028,27.6106477 C20.898212,27.7052811 20.38584,27.6765836 20.213812,27.6968541 C20.187364,27.7001566 20.180868,27.7271459 20.155812,27.7353452 C20.110224,27.7504911 20.051644,27.7310178 20.001648,27.7324982 C19.832172,27.7385338 19.647152,27.7827189 19.475008,27.7944484 C19.333604,27.8037865 19.206584,27.7774804 19.064368,27.7789609 C18.782952,27.7820356 18.471028,27.799573 18.188104,27.8239431 C18.170936,27.7931957 17.812844,27.7920569 17.749972,27.7936512 C17.543608,27.8125552 17.336896,27.831573 17.130184,27.8504769 C17.099792,27.7964982 16.934028,27.8478577 16.882524,27.8434164 C16.567816,27.816427 16.304844,27.8454662 16.01148,27.8791744 C15.7412,27.8633452 15.470572,27.8470605 15.200524,27.8310036 C15.067936,27.8487687 14.947528,27.8372669 14.802992,27.8347616 C14.724576,27.8331673 14.623772,27.8647117 14.544312,27.8679004 C14.05398,27.8885125 13.586732,27.8905623 13.113916,27.9592313 C13.00534,27.9752883 12.89398,27.915274 12.783548,27.9298505 C12.321404,27.9903203 11.823996,27.9455658 11.347584,27.9476157 C11.16674,27.9484128 11.010024,27.903089 10.830688,27.9085552 C10.704016,27.9125409 10.565628,27.9485267 10.43594,27.9493238 C10.378752,27.9375943 10.321796,27.9255231 10.264608,27.9133381 C10.175288,27.9017224 10.063348,27.9199431 9.978784,27.9316726 C9.910344,27.9255231 9.842252,27.9191459 9.774276,27.9127687 C9.645284,27.9213096 9.486712,27.9592313 9.356096,27.9520569 C9.259352,27.9471601 9.161564,27.9000142 9.049972,27.9008114 C8.706496,27.9028612 8.333556,28.0135516 7.971172,27.8807687 L7.971172,27.8807687 Z M20.757504,28.0445267 C20.754024,28.0505623 20.75066,28.0563701 20.747064,28.0624057 C20.744048,28.0604698 20.741148,28.0588754 20.7379,28.0571673 C20.74138,28.0513594 20.74486,28.0453238 20.748108,28.0394021 C20.751124,28.0409964 20.754256,28.0427046 20.757504,28.0445267 L20.757504,28.0445267 Z M20.222628,28.454605 C20.01696,28.5544769 19.871496,28.7107189 19.670584,28.8318861 C19.544724,28.9077295 19.379888,28.9527117 19.249852,29.0224057 C19.07214,29.1176085 18.928416,29.2581352 18.746992,29.3560712 C18.628904,29.4086833 18.511164,29.4609537 18.39296,29.5133381 C18.287748,29.5875872 18.209332,29.6813096 18.096812,29.7377936 C18.019208,29.7614804 17.941488,29.7852811 17.864,29.808968 C17.676312,29.9009822 17.5073,30.0331957 17.311376,30.1038007 C17.22658,30.1343203 17.113248,30.1641566 17.03518,30.2094804 C16.98588,30.2384057 16.958504,30.281452 16.909088,30.3042278 C16.783344,30.3621922 16.638576,30.4059217 16.512368,30.473452 C16.431632,30.5306192 16.351012,30.5880142 16.27016,30.6452954 C16.195804,30.6708043 16.1211,30.6960854 16.046744,30.7217082 C15.945824,30.7825196 15.864392,30.8749893 15.756744,30.9139359 C15.548756,30.9895516 15.331372,31.0602705 15.139508,31.1963559 C14.949732,31.330847 14.724344,31.5356014 14.496636,31.5233025 C14.209188,31.5074733 13.706676,31.0938648 13.388488,30.9695089 C13.254508,30.9171246 13.09582,30.820669 12.915324,30.7079288 C12.885396,30.683331 12.855468,30.6591886 12.825308,30.6348185 C12.59644,30.5604555 12.267464,30.3890676 12.087548,30.2504769 C12.034652,30.2092527 11.923756,30.1714448 11.86796,30.152427 C11.724584,30.1039146 11.619372,30.006548 11.550816,29.9535943 C11.49096,29.9324128 11.431336,29.9111174 11.371828,29.8899359 C11.341436,29.865452 11.311972,29.8410819 11.281928,29.8167117 C11.181704,29.7688826 11.0809,29.7215089 10.98056,29.6735658 C10.767236,29.5121993 10.50496,29.425879 10.294304,29.2825053 C10.013468,29.0911886 9.599812,28.8776655 9.305056,28.6888541 C9.235572,28.6442135 9.15936,28.6571957 9.102752,28.6237153 C8.940932,28.5287402 8.7261,28.450847 8.627964,28.3025765 C8.797672,28.167516 9.188128,28.2528114 9.40702,28.2392598 C9.982032,28.2030463 10.540108,28.2464342 11.109784,28.2161423 C11.176948,28.2122705 11.223928,28.2437011 11.295036,28.2480285 C11.3361,28.2391459 11.377164,28.230605 11.418112,28.2216085 C11.44224,28.2349324 11.4666,28.2483701 11.490728,28.261694 C11.882808,28.2353879 12.306904,28.2488256 12.67532,28.2228612 C12.842824,28.2110178 12.991768,28.2595302 13.160084,28.2555445 C13.409252,28.2491673 13.669208,28.1729822 13.912808,28.1540783 C13.980552,28.1490676 14.031244,28.1768541 14.103628,28.1773096 C14.210116,28.1775374 14.336324,28.14121 14.44258,28.1292527 C14.507076,28.1220783 14.556956,28.1479288 14.62354,28.1471317 C14.887092,28.1436014 15.208992,28.0991886 15.48078,28.1151317 C15.567664,28.120484 15.640744,28.1597722 15.730876,28.1594306 C15.7905,28.159089 15.854184,28.1611388 15.922856,28.1597722 C15.945244,28.1483843 15.9674,28.1372242 15.989904,28.1260641 C16.07006,28.1283416 16.124232,28.1760569 16.202648,28.1730961 C16.307744,28.1689964 16.439288,28.1078434 16.54682,28.1162705 C16.556912,28.1259502 16.567352,28.1356299 16.577908,28.1451957 C16.691588,28.1512313 16.849928,28.0983915 16.968596,28.0907616 C17.042836,28.0859786 17.104896,28.1224199 17.177396,28.1236726 C17.271356,28.1256085 17.387008,28.0741352 17.47888,28.0788043 C17.5044,28.0891673 17.530964,28.099758 17.5566,28.1100071 C17.709488,28.1000996 17.89532,28.0622918 18.049948,28.064911 C18.162816,28.0670747 18.24158,28.0994164 18.360712,28.1076157 C18.527288,28.1188897 18.824132,28.0493096 18.977252,28.1192313 C18.985952,28.1039715 18.994304,28.089395 19.002888,28.0744769 C19.08316,28.0930391 19.145684,28.0651388 19.208788,28.070605 C19.2792,28.0768683 19.319336,28.1232171 19.383832,28.1203701 C19.523496,28.1144484 19.697728,28.1071601 19.843424,28.092242 C19.898292,28.086548 19.980768,28.0158292 20.029372,28.0184484 C20.042712,28.0298363 20.056168,28.0412242 20.069624,28.0524982 C20.104424,28.0594448 20.643476,28.038605 20.654844,28.0346192 C20.683264,28.0550036 20.684076,28.0627473 20.70948,28.064911 C20.734304,28.0867758 20.731404,28.0876868 20.744976,28.1080712 C20.587216,28.2868612 20.401268,28.3672598 20.222628,28.454605 L20.222628,28.454605 Z M27.816104,16.9495231 C27.7878,16.9849395 27.759612,17.0201281 27.731192,17.0557722 C27.564732,17.4575374 27.308952,17.8153452 27.047256,18.2066335 C26.959792,18.3374804 26.80412,18.7445979 26.655292,18.8484555 C26.65622,18.8607544 26.657032,18.8730534 26.658076,18.8853523 C26.538132,19.0660783 26.418304,19.2469181 26.29894,19.4279858 C26.217508,19.6026762 26.00662,19.8918149 25.93528,20.0620641 C25.802692,20.3770534 25.583916,20.7243843 25.418268,21.0464342 C25.322336,21.2330819 25.208076,21.5260925 25.078156,21.6817651 C24.926544,21.8624911 24.8472,22.1962705 24.685844,22.3233594 C24.673664,22.4247117 24.550356,22.5615943 24.515556,22.6414235 C24.397816,22.9106335 24.207228,23.2305196 24.031256,23.4437011 C24.03056,23.4589609 24.029516,23.4745623 24.028936,23.4895943 C23.837536,23.7190605 23.756684,23.963331 23.642308,24.2053238 C23.622704,24.2468897 23.585352,24.2375516 23.558904,24.2883416 C23.435596,24.5231601 23.343376,24.6975089 23.193388,24.8628612 C23.094904,25.0276441 22.996072,25.1926548 22.89782,25.3577794 C22.898516,25.3699644 22.899328,25.3821495 22.900488,25.3945623 C22.727648,25.5594591 22.677072,25.7964413 22.514324,26.004726 C22.32652,26.2448968 22.172588,26.6117011 21.978868,26.8966263 C21.892796,27.0228043 21.694436,27.413637 21.579596,27.4876584 C21.544796,27.5333238 21.522872,27.5322989 21.483316,27.5516584 C21.187632,27.3491815 20.969436,26.7694235 20.807036,26.4958861 C20.664124,26.2551459 20.5204,26.0207829 20.389204,25.7824342 C20.32088,25.6860925 20.252556,25.589637 20.184348,25.4926121 C19.993296,25.1360569 19.802824,24.7535374 19.565024,24.4212384 C19.449488,24.2603274 19.40216,24.0365552 19.307272,23.867331 C19.120976,23.5342349 18.895588,23.2081993 18.696532,22.9060783 C18.635748,22.8140641 18.579836,22.6803701 18.535292,22.581637 C18.48866,22.479032 18.394352,22.4241423 18.351084,22.3386192 C18.246104,22.1319288 18.129988,21.8911886 17.999604,21.6975943 C17.951928,21.6264199 17.872004,21.5871317 17.831288,21.5103772 C17.558804,20.9908612 17.208136,20.4682705 16.894356,19.9690249 C16.784852,19.7952456 16.653192,19.6656512 16.544384,19.4932384 C16.498216,19.4206975 16.472464,19.3172954 16.42618,19.239516 C16.234316,18.9187189 16.022152,18.6181922 15.851748,18.2986477 C15.814976,18.2298648 15.753612,18.1919431 15.710692,18.1268043 C15.662436,18.0527829 15.627868,17.9450534 15.583556,17.8679573 C15.521844,17.7612527 15.452824,17.7260641 15.390416,17.6202705 C15.333692,17.5243843 15.305388,17.3945623 15.266528,17.2929822 C15.256436,17.2670178 15.184168,17.2178221 15.155632,17.1728399 C15.133824,17.1384484 15.13162,17.0713737 15.116076,17.0332242 C15.072576,16.9274306 14.983024,16.8372384 14.924792,16.7395302 C14.873868,16.6537794 14.868764,16.543089 14.826192,16.4732811 C14.83582,16.4626904 14.845564,16.452669 14.855772,16.4424199 C14.890572,16.4251103 15.138812,16.4095089 15.184516,16.4123559 C15.216416,16.4262491 15.2482,16.4399146 15.280216,16.453694 C15.490988,16.4426477 15.689696,16.4276157 15.887244,16.3776228 C15.947796,16.3835445 16.008348,16.3894662 16.0689,16.3956157 C16.200792,16.3880996 16.332336,16.3988043 16.475364,16.3967544 C17.648936,16.3805836 18.896748,16.3172669 20.057676,16.2718292 C20.179012,16.2669324 20.291648,16.3094093 20.411476,16.3026904 C20.661224,16.2883416 20.937188,16.2779786 21.203524,16.2582776 C21.332516,16.2487117 21.644208,16.2711459 21.730164,16.1964413 C21.753596,16.2225196 21.743852,16.1996299 21.747216,16.2293523 C21.834448,16.2394875 21.926552,16.2001993 22.005896,16.1959858 C22.049048,16.2040712 22.092548,16.2124982 22.135816,16.2205836 C22.148576,16.2121566 22.161568,16.2035018 22.174444,16.1951886 C22.187668,16.2063488 22.201356,16.2176228 22.214812,16.2292384 C22.249032,16.2310605 22.402616,16.1833452 22.432196,16.1845979 C22.461312,16.1967829 22.490312,16.2087402 22.518964,16.2208114 C22.544484,16.2112456 22.570004,16.2019075 22.595176,16.1924555 C22.629048,16.2033879 22.662804,16.2142064 22.69656,16.2247972 C22.781588,16.2255943 22.88216,16.1692242 22.965216,16.1735516 C23.039572,16.1776512 23.092816,16.2279858 23.163924,16.2245694 C23.573056,16.2047544 23.96096,16.2151174 24.387724,16.2423345 C24.41626,16.2441566 24.43598,16.2035018 24.45976,16.2000854 C24.532144,16.2203559 24.604528,16.2406263 24.676448,16.2608968 C24.692688,16.2506477 24.677028,16.2602135 24.691876,16.2340214 C24.831192,16.2694377 24.97364,16.2113594 25.103792,16.2265053 C25.191256,16.2366406 25.25668,16.2787758 25.339852,16.2746762 C25.4591,16.2685267 25.587628,16.2438149 25.719172,16.2608968 C25.755828,16.2733096 25.792484,16.2857224 25.829488,16.298363 C25.871944,16.297452 25.920896,16.2647687 25.9666,16.2681851 C25.98168,16.2766121 25.996528,16.2849253 26.012188,16.2934662 C26.07216,16.281395 26.125636,16.2317438 26.206952,16.2247972 C26.368192,16.21079 26.554024,16.2474591 26.704128,16.1938221 C26.734752,16.216484 26.73162,16.2110178 26.739392,16.2366406 C26.857828,16.1886975 26.9555,16.2265053 27.086348,16.2168256 C27.11558,16.214548 27.139476,16.1794733 27.167548,16.1794733 C27.2136,16.1794733 27.26,16.2194448 27.286912,16.2218363 C27.436436,16.2351601 27.582596,16.1900641 27.723188,16.1923416 C27.739196,16.185395 27.750912,16.2421068 27.800096,16.2467758 C27.813088,16.238121 27.825732,16.2295801 27.838956,16.221153 C27.896028,16.2217224 27.933728,16.267274 27.981172,16.2645409 C27.999732,16.2898221 27.984768,16.3166975 28.001356,16.3344626 C28.027224,16.3625907 28.090096,16.3873025 28.1184,16.422605 C28.06736,16.5689395 27.983376,16.6053808 27.915632,16.7341779 C27.890112,16.7828043 27.861344,16.8777794 27.816104,16.9495231 L27.816104,16.9495231 Z M28.449116,16.264427 C28.458048,16.2694377 28.467096,16.2743345 28.476144,16.279573 C28.4577,16.2766121 28.460948,16.2777509 28.449116,16.264427 L28.449116,16.264427 Z M28.072812,23.8548043 C27.99312,23.9211957 27.942428,24.0195872 27.85276,24.0506762 C27.717156,24.0975943 27.561252,24.1864199 27.4398,24.2695516 C27.339344,24.3381068 27.271484,24.4213523 27.171608,24.4859217 C27.09702,24.5342064 26.977192,24.5791886 26.90736,24.6338505 C26.531752,24.9258363 26.15046,25.128427 25.759192,25.3400142 C25.697016,25.3646121 25.635304,25.3890961 25.57336,25.4134662 C25.251576,25.6129822 24.914132,25.7992883 24.641416,25.9102064 C24.540496,25.951089 24.466488,26.0354733 24.374616,26.1039146 C24.28518,26.1700783 24.151664,26.2259929 24.057124,26.2811103 C23.99518,26.3174377 23.969428,26.3929395 23.905164,26.4206121 C23.539416,26.5789039 23.235728,26.8262491 22.8665,26.9993452 C22.77138,27.043758 22.364452,27.2271032 22.314224,27.2938363 C22.30796,27.273452 22.308076,27.2819929 22.311324,27.2568256 C22.291952,27.2698078 22.27258,27.2824484 22.253324,27.2954306 C22.228036,27.2794875 22.243812,27.2813096 22.225948,27.2802847 C22.2169,27.2753879 22.207852,27.2702633 22.198688,27.2653665 C22.267708,27.1307616 22.336844,26.9963843 22.406096,26.8622349 C22.462008,26.7537082 22.623364,26.568427 22.638212,26.5200285 C22.678696,26.3865623 22.744584,26.2491103 22.815808,26.1476441 C22.971828,25.9255801 23.1391,25.6683274 23.234684,25.4385196 C23.266236,25.3969537 23.298368,25.3557295 23.329688,25.3143915 C23.470744,25.0704626 23.602172,24.8293808 23.764224,24.6608399 C23.818396,24.5457082 23.872568,24.4304626 23.926624,24.315331 C23.958756,24.2664769 23.990656,24.2176228 24.02302,24.1685409 C24.081832,24.0520427 24.140412,23.9356584 24.19934,23.8189324 C24.247016,23.7124555 24.345964,23.5964128 24.40582,23.5215943 C24.487716,23.4196726 24.50442,23.2417936 24.618216,23.1095801 C24.705564,23.0078861 24.904504,22.6788897 24.956356,22.5202562 C24.96146,22.5049964 25.244152,21.988669 25.254824,21.9792171 C25.270948,21.9653238 25.295656,21.9775089 25.312708,21.9408399 C25.414092,21.7212811 25.56872,21.510605 25.654096,21.282847 C25.684836,21.2013096 25.80014,21.1269466 25.836216,21.0071459 C25.85524,20.9441708 25.923448,20.8634306 25.955232,20.7788185 C25.976808,20.7211957 26.01822,20.5818078 26.046756,20.5354591 C26.117864,20.4205552 26.176444,20.3305907 26.213332,20.2038434 C26.257644,20.0503345 26.36042,20.0469181 26.399396,19.9421495 C26.470504,19.7493523 26.670256,19.4161423 26.810616,19.2873452 C26.90794,19.1984057 26.946568,18.9652954 27.017908,18.8843274 C27.098412,18.7926548 27.178104,18.6947189 27.219284,18.595758 C27.319624,18.3554733 27.585148,18.1163274 27.598488,17.9349181 C27.621688,17.9121423 27.615192,17.9195445 27.637232,17.9092954 C27.643148,17.8852669 27.648832,17.8610107 27.654632,17.8367544 C27.688388,17.7860783 27.724348,17.7273167 27.754972,17.7037438 C27.747432,17.696 27.74024,17.6878007 27.7327,17.6797153 C27.85508,17.4595872 28.09346,17.1645267 28.181272,16.9396157 C28.214332,16.8553452 28.341004,16.7215374 28.374296,16.7287117 C28.387404,16.6781495 28.389492,16.6750747 28.425452,16.6394306 C28.525212,16.710605 28.499576,17.1639573 28.498532,17.3268043 C28.492268,17.9994875 28.444244,18.7195445 28.433804,19.3612527 C28.4316,19.4961993 28.460948,19.6543772 28.463732,19.7894377 C28.466748,19.9453381 28.416752,20.0805125 28.408168,20.2410819 C28.401672,20.368968 28.433572,20.5174662 28.430208,20.6413665 C28.416752,20.7555872 28.403528,20.869694 28.38984,20.9834591 C28.388332,21.1189751 28.442272,21.276242 28.43392,21.408 C28.417912,21.6666192 28.42058,21.8848114 28.421856,22.118605 C28.402136,22.2292954 28.382648,22.3400996 28.362812,22.4506762 C28.361652,22.5726406 28.399468,22.7094093 28.409212,22.8294377 C28.413736,22.8839858 28.389028,22.8893381 28.389376,22.9476441 C28.39042,23.0854377 28.422784,23.2474875 28.399932,23.3889253 C28.394016,23.4250249 28.366524,23.4104484 28.363972,23.451331 C28.361652,23.4939217 28.379864,23.5636157 28.370352,23.6076868 C28.337756,23.7607402 28.144848,23.7945623 28.072812,23.8548043 L28.072812,23.8548043 Z" id="Fill-1" fill="#F7A04A" sketch:type="MSShapeGroup"></path>
            <path id="Fill-2" fill="#2D2E2B" sketch:type="MSShapeGroup" d="M20.474928,5.99846263 C20.46878,5.99516014 20.462632,5.99174377 20.4566,5.98855516 C20.460892,5.99481851 20.465416,6.00108185 20.469708,6.00745907 C20.471332,6.00438434 20.472956,6.00153737 20.474928,5.99846263"></path>
            <path id="Fill-3" fill="#2D2E2B" sketch:type="MSShapeGroup" d="M18.662544,8.94883986 C18.6644,8.94599288 18.666024,8.94291815 18.667764,8.93984342 C18.661732,8.93654093 18.655584,8.93312456 18.649436,8.92982206 C18.65396,8.93619929 18.658368,8.94257651 18.662544,8.94883986"></path>
            <path id="Fill-4" fill="#2D2E2B" sketch:type="MSShapeGroup" d="M26.69276,16.234363 C26.6945,16.231516 26.696356,16.228669 26.697864,16.2254804 C26.691832,16.2221779 26.685684,16.2187616 26.679884,16.215573 C26.68406,16.2217224 26.688352,16.2282135 26.69276,16.234363"></path>
            <path id="Fill-5" fill="#2D2E2B" sketch:type="MSShapeGroup" d="M19.82208,25.5396441 C19.815468,25.536 19.809552,25.5326975 19.803752,25.529395 C19.814424,25.5470463 19.801548,25.5449964 19.82208,25.5396441"></path>
        </g>
    </g>
</svg>