<?xml version="1.0" encoding="UTF-8" standalone="no"?>
<svg width="29px" height="32px" viewBox="0 0 29 32" version="1.1" xmlns="http://www.w3.org/2000/svg" xmlns:xlink="http://www.w3.org/1999/xlink" xmlns:sketch="http://www.bohemiancoding.com/sketch/ns">
    <!-- Generator: Sketch 3.2 (9964) - http://www.bohemiancoding.com/sketch -->
    <title>octahedron</title>
    <desc>Created with Sketch.</desc>
    <defs></defs>
    <g id="Page-1" stroke="none" stroke-width="1" fill="none" fill-rule="evenodd" sketch:type="MSPage">
        <g id="octahedron" sketch:type="MSLayerGroup" transform="translate(0.000000, -1.000000)" fill="#F7A04A">
            <path d="M28.5806805,24.7621315 C28.5672008,24.7032831 28.5536068,24.6443208 28.5400129,24.5855861 C28.5539495,24.4835973 28.6275167,24.4569618 28.6304868,24.3655589 C28.6353989,24.2101853 28.6235185,24.019753 28.6215765,23.8649485 C28.6308295,23.7799199 28.640311,23.6947774 28.6494498,23.609635 C28.644652,23.428878 28.6227189,23.2317299 28.6392829,23.0492655 C28.6503637,22.9261049 28.6848626,22.8321978 28.6799505,22.7303227 C28.6638434,22.3924847 28.653448,22.0506628 28.6340281,21.7365008 C28.6302584,21.6762864 28.681664,21.6309833 28.679722,21.5740699 C28.6760665,21.4578527 28.6445377,21.2892752 28.6606448,21.1737409 C28.6655569,21.1379993 28.6942299,21.152 28.6964003,21.1113638 C28.7030259,20.9740887 28.6658996,20.8162109 28.6606448,20.6782528 C28.6540192,20.5096753 28.6885181,20.3648875 28.6911455,20.2117905 C28.6934302,20.0808896 28.6595025,19.9343945 28.6630438,19.8064531 C28.670469,19.529854 28.6938872,19.2699873 28.6895462,18.9957785 C28.6888608,18.9423937 28.6438523,18.8957247 28.6334569,18.8458686 C28.6178068,18.7708567 28.6968573,18.6544119 28.7048537,18.5561793 C28.7170768,18.4075215 28.6761808,18.2309761 28.666585,18.0860745 C28.6641861,18.0490808 28.6926306,18.007534 28.6869188,17.9678085 C28.6767519,17.9580194 28.6664708,17.9482303 28.6563039,17.9386688 C28.6548189,17.8398671 28.7063388,17.8074265 28.7150206,17.7123811 C28.7324985,17.521835 28.7378676,17.3102309 28.7391241,17.1126276 C28.7395811,17.0361359 28.6903459,16.909219 28.7046252,16.8218 C28.7160487,16.8085961 28.7274722,16.7953922 28.7391241,16.7821883 C28.7524896,16.7274376 28.7145637,16.6728007 28.7109081,16.6247658 C28.7039398,16.5283545 28.7245021,16.4531149 28.721075,16.359094 C28.7190188,16.3001317 28.6754954,16.2291038 28.6764092,16.1685479 C28.6904601,15.3413684 28.7369537,14.4861874 28.6927448,13.6412509 C28.708395,13.551783 28.7241594,13.4625428 28.7398095,13.3730749 C28.7384387,13.3223082 28.7034829,13.260614 28.7029117,13.2104164 C28.7159345,13.1668207 28.7290715,13.1232251 28.7423227,13.0795156 C28.7431224,13.0405868 28.7058818,12.9874297 28.7129644,12.9449723 C28.7200469,12.9034255 28.7468921,12.9191336 28.7487199,12.8825952 C28.760486,12.640827 28.7075953,12.3677564 28.7078238,12.1279233 C28.7078238,12.0448297 28.7511188,12.0028276 28.7459782,11.9372634 C28.7320416,11.9135874 28.7178765,11.8899114 28.7038256,11.8661216 C28.6904601,11.7707347 28.7393526,11.6665832 28.7433508,11.5700581 C28.7344405,11.5375036 28.7255302,11.5048353 28.7166199,11.4722808 C28.7303281,11.3395587 28.7661978,11.2403018 28.7688252,11.1124742 C28.7719095,10.9626781 28.7322701,10.8390622 28.7369537,10.6933639 C28.7433508,10.6339463 28.7496337,10.5746425 28.7560309,10.5153387 C28.7530608,10.4976956 28.7292999,10.4741334 28.7318131,10.4544414 C28.7426654,10.3648597 28.7961273,10.3810231 28.7725949,10.3006613 C28.822744,10.1992416 28.7459782,10.1252542 28.7623138,9.98809287 C28.7849323,9.79834356 28.7810483,9.62145668 28.7545458,9.46448949 C28.7370679,9.36113473 28.7933857,9.19016684 28.7850465,9.08089309 C28.7803629,9.01703625 28.7358113,8.95158582 28.7315846,8.88511096 C28.5140816,8.72290774 28.0949541,8.4647485 27.8246746,8.38085813 C27.7700703,8.34568565 27.7151234,8.31051316 27.6602907,8.27534067 C27.4948787,8.18518982 27.3294667,8.09503898 27.164169,8.00477431 C27.1128775,7.96368283 27.0613577,7.92259134 27.0097235,7.88149986 C26.853793,7.81775684 26.619269,7.69823868 26.5265103,7.62994258 C26.1983137,7.38874354 25.8915933,7.23712622 25.6337654,7.0392952 C25.4951986,6.96439715 25.3566318,6.88938527 25.2180649,6.8143734 C25.196703,6.81027563 25.1755696,6.80595021 25.1542077,6.80173862 C25.1296472,6.72445021 24.6745358,6.47892575 24.5574451,6.4384034 C24.4393263,6.39776722 24.2857948,6.2805256 24.2016037,6.21234333 C24.1667621,6.2041478 24.1319205,6.19617992 24.0969646,6.18821204 C23.9941533,6.1044355 23.8466762,6.01030072 23.709366,5.95566384 C23.6755525,5.94234611 23.6549902,5.89499415 23.6302012,5.88702627 C23.6243753,5.88372529 23.6183208,5.88031049 23.6123806,5.87689568 C23.6196916,5.88497739 23.6267742,5.89305909 23.6340852,5.90102697 C23.6294016,5.90239289 23.6246037,5.90364499 23.6199201,5.90478325 C23.5954739,5.87894456 23.5707991,5.8532197 23.5461244,5.82738101 C23.4694729,5.79562333 23.3930498,5.76386565 23.3165125,5.73210796 C23.3020047,5.71605838 23.2874968,5.7000088 23.2731033,5.68384539 C23.0369799,5.59676787 22.8385541,5.44947596 22.617624,5.29888307 C22.5798123,5.28920779 22.5420005,5.27941869 22.5041888,5.26962958 C22.3731615,5.17412888 22.2970811,5.11323153 22.1827321,5.08670988 C22.1625125,5.08204298 21.8562491,4.91278249 21.8562491,4.91278249 C21.8167238,4.87840679 21.7771986,4.84414492 21.7376733,4.80976922 C21.6189834,4.76913304 21.5079472,4.68307996 21.4085629,4.59896194 C21.3047234,4.51097381 21.1635292,4.49207855 21.0936175,4.466809 C21.0179941,4.43949056 21.0296461,4.39498427 20.9686447,4.39566723 C20.9630472,4.38064209 20.7262384,4.19886066 20.7262384,4.19886066 C20.6669506,4.24370843 20.5291834,4.09413998 20.4483052,4.06420353 C20.2180078,3.97860576 20.0007332,3.75698493 19.7967099,3.69324191 C19.7448473,3.65977682 19.6929847,3.62631174 19.6410078,3.59284665 C19.4105963,3.52967277 19.2433565,3.3274025 18.9892983,3.22188504 C18.7574017,3.12547372 18.5263047,2.94357845 18.2917806,2.84841923 C17.9867737,2.72457565 17.7050707,2.58286125 17.404062,2.41394225 C17.1332113,2.26198344 16.8548211,2.06312798 16.5956223,1.96546456 C16.4527146,1.9117383 16.3531019,1.80735911 16.2079094,1.73314402 C15.7763304,1.51277529 15.3776509,1.12041423 15.0396302,1.04460557 C14.8817577,1.00920542 14.7670659,0.883768265 14.6150194,0.897199831 C14.541338,0.905964496 14.5143785,0.961967293 14.4478939,1.0027173 C14.4157939,1.02240934 14.3098983,1.04710976 14.2554083,1.06998895 C14.1247237,1.12519496 14.0167718,1.27578784 13.8970537,1.30265097 C13.8936267,1.3086838 13.8903138,1.31448896 13.8868868,1.32040796 C13.8873437,1.31289539 13.8878007,1.30526899 13.8882576,1.29752877 C13.6161503,1.43742193 13.3273648,1.65608326 13.0237287,1.77286958 C13.0220151,1.7759429 13.0201874,1.7789024 13.0185881,1.78174807 C13.0143614,1.77560142 13.0100205,1.76911329 13.0057938,1.76273899 C12.8987558,1.84731232 12.6403567,1.9444066 12.5429144,2.05379418 C12.5386877,2.04741988 12.534461,2.04104557 12.5301201,2.0347851 C12.4862539,2.06119292 12.4820272,2.08634865 12.4486707,2.09454418 C12.4452436,2.10046318 12.4418166,2.10638217 12.4385038,2.11230117 C12.4370187,2.10763427 12.4357622,2.10296737 12.4346198,2.09830047 C12.3843565,2.09989404 12.322327,2.18048343 12.2573274,2.22157492 C12.1045955,2.31821389 11.9590603,2.4141699 11.7994743,2.50375161 C11.7363025,2.53937941 11.6573662,2.54734728 11.5929378,2.57489337 C11.5126307,2.63931936 11.4323237,2.70363151 11.3519024,2.76817132 C10.9555076,2.93185429 10.6056064,3.25557778 10.1929904,3.40617066 C10.1781398,3.42517974 10.1631751,3.44418882 10.1483245,3.46331173 C10.0762424,3.51533059 9.96383535,3.54162458 9.88821191,3.58658618 C9.83372191,3.62642556 9.77934615,3.66626495 9.72497038,3.70610434 C9.15642379,3.93910785 8.68360596,4.27694586 8.13744939,4.59577479 C8.03029715,4.65826572 7.9047531,4.71574826 7.78686279,4.77368611 C7.75750445,4.78814212 7.72643258,4.77140958 7.71283864,4.77880832 C7.61905187,4.82980274 7.56261988,4.91164422 7.46803347,4.95797174 C7.03919603,5.16809606 6.60441839,5.42955627 6.18140693,5.6533398 C6.09812976,5.69739078 6.00594228,5.78754163 5.95065264,5.82863311 C5.87685696,5.88349764 5.75999476,5.90785658 5.68151545,5.94678535 C5.51039172,6.03192781 5.35720286,6.16055212 5.19064852,6.24546693 C5.0641906,6.31000674 4.98365507,6.42531331 4.85913914,6.49326793 C4.7575844,6.54881542 4.62313004,6.59514293 4.51483546,6.6395354 C4.43715579,6.67129308 4.29344842,6.81869882 4.19726272,6.8835801 C4.09662186,6.95153472 3.94423264,7.01698514 3.83273947,7.06536154 C3.7202182,7.11396559 3.6322574,7.21049074 3.52659021,7.26865625 C3.34198678,7.37041743 3.11968586,7.44269746 2.93108421,7.54320654 C2.80976685,7.60786018 2.71632279,7.69471004 2.60094564,7.76824217 C2.53114818,7.81263463 2.43576212,7.83323729 2.36505078,7.8697757 C2.28531489,7.91098101 2.19175659,7.99896914 2.09214385,8.05667934 C1.87418385,8.18291329 1.62697975,8.30038257 1.40867705,8.4227464 C1.30323833,8.49639236 1.19791384,8.57015214 1.09247512,8.64379809 C1.00634209,8.68898734 0.898732906,8.71744405 0.80551731,8.75193358 C0.767591357,8.8488002 0.809858233,8.92119406 0.814427625,9.00474295 C0.830534731,9.28953766 0.874629364,9.53028139 0.880912277,9.7976606 C0.885367435,9.98923114 0.814770329,10.1795496 0.826193809,10.3681606 C0.83670341,10.5415189 0.886052843,10.7144218 0.893935045,10.8903981 C0.897933262,10.9838499 0.862177771,11.08766 0.855552152,11.1635825 C0.86240624,11.2619288 0.869146093,11.3600476 0.876114416,11.4583939 C0.871659259,11.621394 0.852125108,11.7680029 0.854409804,11.9298646 C0.858522257,12.2048703 0.866404458,12.4925106 0.881369217,12.770931 C0.888451774,12.9039946 0.942370599,13.0508312 0.941342486,13.1826427 C0.939743199,13.4016455 0.905586994,13.5943543 0.90193148,13.8091455 C0.899418315,13.9578033 0.930604415,14.1330966 0.940200138,14.2793641 C0.95333714,14.4775366 0.920780222,14.6265359 0.923750327,14.8244808 C0.928662423,15.1449033 0.954822192,15.4998153 0.955736071,15.8219452 C0.95619301,15.9844899 0.920094813,16.1348551 0.907414751,16.2779355 C0.888451774,16.4913608 0.90524429,16.7267546 0.921465631,16.9349439 C0.923978797,16.9679537 0.894734688,17.0134844 0.893363871,17.0252086 C0.87645712,17.1861597 0.860235779,17.3539404 0.856580265,17.5233147 C0.854295569,17.6319055 0.879998399,17.7534726 0.888451774,17.8600145 C0.851325465,17.8801618 0.875314772,17.9690606 0.875771712,18.0061681 C0.877713703,18.174518 0.867546806,18.3364936 0.889822592,18.4979 C0.920323283,18.7179272 0.897476323,18.9446703 0.893706575,19.1726654 C0.902731124,19.2601982 0.911641438,19.3479587 0.920551753,19.4356054 C0.909014038,19.5037876 0.897590558,19.5720837 0.886281313,19.6401522 C0.891993053,19.9249469 0.904101942,20.2134979 0.88502473,20.4889588 C0.906272403,20.6032409 0.92763431,20.7176369 0.948881983,20.8321466 C0.954707957,21.5131725 0.921351396,22.2432578 0.967045316,22.9070958 C0.979839613,23.0939994 0.997431772,23.3018472 1.02187802,23.4927348 C1.02918905,23.5502174 1.07248403,23.6154401 1.07168439,23.6745162 C1.07122745,23.7084366 1.03570043,23.7450889 1.03467232,23.7596587 C1.03010292,23.8251091 1.05500611,23.8967062 1.03215915,23.9705798 C1.01091148,24.0396727 0.965560263,24.0180456 0.956992653,24.0812195 C0.945569173,24.1645407 1.01479546,24.2136001 1.0283894,24.2870184 C1.04803779,24.393105 1.00588515,24.5421043 1.01068301,24.6072132 C1.02302037,24.6338487 1.03524349,24.660598 1.04758085,24.6872335 C1.04495345,24.7327642 1.00634209,24.7597412 1.00931219,24.7951413 C0.995375546,24.9968424 1.49469585,25.1201169 1.67895658,25.2589856 C1.71162773,25.2835722 1.77982591,25.2931337 1.83191698,25.3223872 C1.95643291,25.4011553 2.08106307,25.4800373 2.20569324,25.5588055 C2.2653238,25.5767901 2.31832875,25.5764486 2.38287141,25.6006937 C2.52315174,25.6533956 2.7820078,25.8324452 2.89418637,25.9271491 C2.99699769,26.0139989 3.13145204,26.0194626 3.20547619,26.0453013 C3.24899965,26.0604403 3.22341106,26.092198 3.23860429,26.1113209 C3.29092382,26.1768851 3.69702853,26.3766512 3.80235302,26.4085227 C3.8712366,26.4294668 3.92367037,26.454964 4.00249238,26.5344152 C4.0399614,26.5517168 4.07731618,26.5690185 4.11478519,26.586434 C4.13214888,26.604191 4.1496268,26.621948 4.16699049,26.6399326 C4.35147969,26.7147169 4.53539772,26.8071442 4.69509797,26.9166456 C4.75918369,26.9493139 4.82349788,26.9818684 4.88769784,27.0145367 C4.97348817,27.0901177 5.16631651,27.1723007 5.23828443,27.2495891 C5.30728225,27.3233489 5.51484688,27.4625591 5.62474076,27.5049027 C5.78455524,27.566483 5.99908819,27.7315319 6.14885001,27.8504809 C6.20882328,27.8766611 6.26879655,27.9029551 6.32865559,27.9292491 C6.48961242,28.0627679 6.71591155,28.1722693 6.89114774,28.2493301 C6.96220178,28.2806325 7.05461773,28.4012889 7.13858031,28.437372 C7.21637421,28.4737966 7.2941681,28.5101073 7.371962,28.5465319 C7.39035381,28.5639474 7.40463315,28.6016241 7.45112672,28.6151695 C7.47842883,28.6232512 7.59974619,28.6399837 7.64109919,28.6761807 C7.67148564,28.70293 7.70027281,28.7623476 7.77749554,28.7892107 C8.00745019,28.8693448 8.17971626,28.9853343 8.35266775,29.1284146 C8.47684097,29.1872631 8.6010142,29.2462254 8.72507319,29.3050739 C8.89596845,29.4401863 9.15059782,29.5599321 9.31555287,29.7000529 C9.40796882,29.7787073 9.541852,29.8168393 9.60113986,29.8627115 C9.6403224,29.8770537 9.6793907,29.8915097 9.71857324,29.9058518 C9.87541761,29.9831403 10.0525958,30.0952597 10.2006441,30.1802883 C10.2316017,30.1981591 10.2809511,30.1992974 10.291118,30.2081759 C10.4451066,30.3414671 10.8071166,30.5204029 10.9989169,30.6464091 C11.1316577,30.7336005 11.3620693,30.7890342 11.4683076,30.9018365 C11.5055482,30.9414483 11.6250378,30.9631892 11.6621641,30.9767346 C11.705916,30.9927842 12.0381108,31.1834441 12.045993,31.1952821 C12.0575307,31.182192 12.06884,31.1691019 12.0803777,31.155898 C12.0875745,31.1915258 12.0948855,31.2269259 12.1020823,31.2625537 C12.1798762,31.3116131 12.3239263,31.3940237 12.4426162,31.4328387 C12.4977916,31.4509371 12.4921941,31.493736 12.5306913,31.5064846 C12.5535382,31.5077367 12.5764994,31.5091026 12.5994606,31.5103547 C12.8002854,31.6565084 12.929485,31.7546271 13.1568122,31.8393143 C13.2172424,31.8855279 13.2775584,31.9317416 13.3378744,31.9777277 C13.4692444,32.0447717 13.6005002,32.1117018 13.7319844,32.1785182 C13.8070367,32.2600182 13.9128181,32.3478925 14.0508137,32.4071963 C14.1604791,32.4774274 14.2701445,32.5478862 14.37981,32.6181174 C14.4441241,32.6506718 14.5082099,32.6833401 14.5724098,32.7158946 C14.6203884,32.7697347 14.7387357,32.8959687 14.8478299,32.8961963 C15.0460273,32.8968793 15.3500061,32.6806083 15.5248996,32.5620008 C15.5751629,32.543447 15.625312,32.5247794 15.675461,32.5061118 C15.6873415,32.4852815 15.6993361,32.4644512 15.7112165,32.4438485 C15.8414442,32.329794 16.0484377,32.2587661 16.1956863,32.1769246 C16.2634276,32.1392479 16.2995257,32.0810824 16.3690947,32.0396495 C16.5316509,31.9427828 16.72585,31.8389728 16.8829229,31.74222 C16.9731684,31.6865587 17.0251452,31.6148478 17.1188177,31.5580482 C17.2476746,31.4800768 17.4102307,31.4101871 17.5410295,31.3380209 C17.8493493,31.1679637 18.1087765,30.9471396 18.4258923,30.8271661 C18.4693015,30.7929043 18.5125965,30.7585286 18.5558915,30.7241529 C18.6658996,30.6441326 18.790644,30.5649091 18.9142461,30.4914908 C19.0004933,30.4580258 19.0868548,30.4246745 19.1731021,30.3912094 C19.3386283,30.3050425 19.4662286,30.1652632 19.6244438,30.058266 C19.7299967,29.9867827 19.8745038,29.9501305 19.980171,29.8713623 C20.0406012,29.8264007 20.1696865,29.6827513 20.2313733,29.660555 C20.2479373,29.6659049 20.2645014,29.6713686 20.2810654,29.6769461 C20.3483497,29.6610103 20.4826898,29.544224 20.5629969,29.4952785 C20.6085766,29.4672771 20.6743758,29.4710334 20.7223544,29.4442841 C20.7868971,29.3866877 20.851554,29.3290913 20.9162109,29.271495 C21.062203,29.1757666 21.2199612,29.0765096 21.3789761,28.9804398 C21.4885272,28.9143064 21.6188691,28.8460103 21.7348175,28.7935361 C21.7344748,28.7876171 22.0665553,28.5647442 22.1172756,28.5393608 C22.2496737,28.4734551 22.4067465,28.4299733 22.53686,28.3653196 C22.6552072,28.3063573 22.7406549,28.2063035 22.8580882,28.1352756 C22.9731227,28.0657274 23.1034646,28.0059683 23.2190702,27.9394935 C23.7283289,27.6463894 24.2269638,27.3348454 24.7363368,27.0688321 C24.8587965,27.0049753 24.9428733,26.9048076 25.0628199,26.8300234 C25.2179507,26.7331568 25.4305417,26.6947972 25.5779046,26.592353 C25.6208568,26.5624166 25.6979653,26.4735178 25.7016208,26.438573 C25.7050479,26.4325402 25.7084749,26.4266212 25.711902,26.420816 C25.7236682,26.427418 25.7355486,26.4342476 25.747429,26.4409633 C25.7770158,26.4024899 25.7650212,26.4051079 25.8087731,26.4169459 C25.8256798,26.3873509 25.8428151,26.3575283 25.8597218,26.3279333 C25.8775424,26.3380639 25.8953631,26.3481945 25.9134122,26.3584389 C25.991663,26.2570192 26.3930841,26.1117762 26.5152011,26.0520171 C26.720938,25.9516218 26.8531076,25.8223146 27.0507338,25.6963083 C27.3298094,25.5181693 27.6564067,25.3890897 27.9381097,25.2221057 C27.9611852,25.1959256 27.9841464,25.1696316 28.0071075,25.1433376 C28.0533726,25.1383292 28.0996377,25.1330932 28.1460171,25.1279709 C28.1656654,25.1078236 28.1850854,25.0874486 28.2046195,25.0670736 C28.2416316,25.0486336 28.292923,25.0537559 28.3271935,25.0186972 C28.3325625,25.0023061 28.33816,24.9856874 28.3436433,24.9692964 C28.4261208,24.8901867 28.5157951,24.9062363 28.5806805,24.7621315 L28.5806805,24.7621315 Z M15.4682391,1.70138633 C15.5452334,1.77298341 15.7028774,1.83672643 15.812657,1.88555813 C15.8823403,1.92926763 15.9519093,1.97286331 16.021821,2.01645898 C16.1992276,2.15293734 16.5181712,2.30888009 16.7154546,2.37592409 C16.8807524,2.43215454 17.02069,2.59310567 17.1516031,2.64785637 C17.522295,2.80277467 17.8657991,3.0698124 18.2358056,3.19399746 C18.3202251,3.24613015 18.4048731,3.29826283 18.4894068,3.35028169 C18.7436935,3.49552472 19.0317937,3.6876644 19.2571789,3.78726287 C19.3268621,3.81810993 19.4430389,3.91622866 19.5264303,3.91691162 C19.7407348,4.06101638 19.8923244,4.12282434 20.1052581,4.27000242 C20.1605477,4.29754851 20.2158373,4.3250946 20.271127,4.3526407 C20.4074091,4.48695635 20.6814584,4.62445915 20.8692604,4.6929829 C20.930833,4.71552061 21.0162806,4.81921684 21.108925,4.85313724 C21.2445217,4.92632788 21.3802326,4.99963236 21.5158294,5.072823 C21.5702051,5.12131323 21.6922079,5.23274969 21.7811968,5.27110933 C21.9094825,5.32631534 22.0623286,5.43957303 22.1611417,5.4755423 C22.249331,5.50775529 22.4027483,5.57195362 22.4888814,5.62670432 C22.8023417,5.82624275 23.1549845,6.04604234 23.4759843,6.17682936 C23.5278469,6.19800115 23.5345867,6.23442573 23.5907902,6.26584194 C23.7210179,6.3382358 23.8335392,6.38422183 23.9185299,6.41689013 C24.0318508,6.4604858 24.1392315,6.61039573 24.2768844,6.67983009 C24.3908908,6.72900328 24.5047829,6.77806264 24.618675,6.82723583 C24.7117763,6.89200329 24.8048777,6.95688458 24.897979,7.02165204 C25.041001,7.14139786 25.262388,7.20525471 25.4337402,7.3265941 C25.655013,7.48321981 25.9264349,7.58771283 26.1056693,7.74445237 C26.2360112,7.85839302 26.4098766,7.89322402 26.4985228,7.96800825 C26.8326596,8.16993703 27.1667964,8.37209347 27.5008189,8.57402225 C27.5794125,8.60441401 27.6838231,8.64630228 27.7432252,8.68830438 C27.8031984,8.71459838 27.8631717,8.74077855 27.9230307,8.76707254 C27.9936278,8.82296151 28.0642249,8.87885048 28.1347078,8.93485328 C28.2163857,8.9968889 28.3201109,8.9811808 28.3718593,9.0580139 C28.4214372,9.12574086 28.3754005,9.63796157 28.3836254,9.76066688 C28.4138977,10.219389 28.4124126,10.7299023 28.4271489,11.2128695 C28.4344599,11.4541824 28.3486696,11.6904868 28.3596361,11.929637 C28.3855674,12.1803975 28.411613,12.431158 28.4375443,12.6819185 C28.4044162,13.2016517 28.4001895,13.712848 28.3879664,14.2346302 C28.3851105,14.3554004 28.4296621,14.4896022 28.4366304,14.6043397 C28.4418852,14.694832 28.4047589,14.7811127 28.4073863,14.8826463 C28.4086429,14.9441127 28.4462261,15.0309626 28.441771,15.091177 C28.4312614,15.2350541 28.3856817,15.3524096 28.3869383,15.4965143 C28.3908222,15.9633181 28.4198379,16.4376345 28.4330891,16.9030724 C28.4366304,17.026916 28.3949347,17.1126276 28.3921931,17.2219013 C28.3867098,17.4419285 28.3977906,17.7302519 28.4114987,17.9525557 C28.4304617,18.2603434 28.3460422,18.5737086 28.3504974,18.8853665 C28.3517539,18.9759726 28.3837397,19.0789859 28.3900226,19.1673155 C28.4080717,19.4196696 28.3443287,19.6637143 28.3479842,19.922215 C28.3510685,20.135868 28.3748294,20.3656843 28.3671756,20.5702311 C28.36055,20.7503052 28.3900226,20.9154679 28.3889945,21.0899644 C28.3881948,21.2379393 28.3511828,21.3639456 28.3520966,21.5053185 C28.3524393,21.5682647 28.3861386,21.6519274 28.3864813,21.7137354 C28.3895657,22.1544728 28.3441002,22.557306 28.3279931,23.0136377 C28.3202251,23.238218 28.3522109,23.858688 28.2338636,23.9629534 C28.2143295,23.9652299 28.0557716,23.7875463 28.0120196,23.7304052 C27.9634699,23.6670037 27.8907023,23.5825442 27.8448941,23.5054834 C27.846265,23.4826042 27.8472931,23.459725 27.8485496,23.4369597 C27.8215902,23.3536384 27.7328298,23.2959282 27.6904487,23.2170462 C27.6310466,23.1065204 27.5668466,22.9906447 27.5067591,22.8765902 C27.4940791,22.8299212 27.4812848,22.783366 27.4686047,22.7369247 C27.3751606,22.5570783 27.2416202,22.4147948 27.1368669,22.2413227 C26.9400403,21.9154365 26.7658322,21.571338 26.5985925,21.2387361 C26.5532413,21.1484714 26.4851573,21.1040789 26.4175303,21.0177982 C26.3613268,20.9459735 26.3216873,20.8256585 26.2758792,20.7483701 C26.2453785,20.7192304 26.2146493,20.6899769 26.1840344,20.6607234 C26.1455373,20.5719385 26.1038416,20.456632 26.0526644,20.3735384 C25.8155129,19.9874378 25.4859455,19.5956459 25.323161,19.1677708 C25.2688994,19.0254873 25.170886,18.9584433 25.093549,18.8246968 C25.0456846,18.7422862 25.0175829,18.6209468 24.9710893,18.5426339 C24.8622235,18.3597142 24.697497,18.2266507 24.5935433,18.0447554 C24.5727526,18.0084446 24.5664697,17.9346849 24.5463643,17.89974 C24.5144928,17.8444202 24.4355566,17.8052638 24.4212772,17.7461876 C24.4281313,17.7342358 24.4348712,17.7223978 24.4417253,17.710446 C24.415794,17.6800543 24.3898627,17.6494348 24.3638171,17.6190431 C24.3478242,17.5784069 24.3316029,17.5377707 24.3154958,17.4970207 C24.2539232,17.4088049 24.1877813,17.3449481 24.135576,17.2530898 C24.1241525,17.2112016 24.1126148,17.1690857 24.1010771,17.1273112 C24.0517276,17.0279404 23.9581693,16.9500828 23.9187583,16.8465004 C23.9057356,16.8126939 23.9111046,16.7676184 23.8881434,16.7346087 C23.7124503,16.4838482 23.5472668,16.2459501 23.3817406,15.9863111 C23.2733317,15.8164815 23.2153005,15.5699326 23.1279108,15.417177 C23.0719358,15.3190583 22.9812334,15.2586163 22.9162338,15.1668718 C22.8752235,15.1090478 22.8571744,15.0040995 22.8179918,14.9458201 C22.7980007,14.9162252 22.7792662,14.9353481 22.7644157,14.9153146 C22.64584,14.755274 22.6075713,14.5301246 22.5004191,14.3638236 C22.3722476,14.165082 22.2432766,13.9914961 22.1572577,13.8264472 C22.1294987,13.7730624 22.0695254,13.7531427 22.0398244,13.7006685 C22.020176,13.6656099 22.0320564,13.6146155 22.01435,13.5798983 C21.9249042,13.4038082 21.7985605,13.2697202 21.6866104,13.0984108 C21.6232101,13.0014304 21.5880257,12.8662041 21.5347923,12.7642153 C21.496181,12.6903417 21.4141604,12.6303549 21.3676668,12.5394073 C21.3461907,12.4969499 21.334196,12.4301335 21.3115775,12.3893835 C21.2881594,12.3683256 21.2647413,12.3469261 21.2414374,12.3258682 C21.1620442,12.186658 21.1085823,12.017056 21.0360432,11.8786426 C21.0039432,11.8805776 20.9459119,11.7684582 20.9200949,11.7299847 C20.8558949,11.6352808 20.7980921,11.5237305 20.7528551,11.4224247 C20.7237253,11.3576572 20.6483303,11.3178178 20.6100616,11.2586279 C20.2799231,10.7467486 19.977772,10.2028841 19.7081779,9.67176813 C19.6154192,9.4887346 19.4702268,9.34576811 19.3727845,9.16216545 C19.2960187,9.01783303 19.2596921,8.82853903 19.1686469,8.69217449 C19.1124434,8.60771499 19.0228833,8.51096219 18.9951243,8.4163721 C18.9840435,8.37835394 18.9819873,8.30903341 18.9532001,8.26259206 C18.9423478,8.24540421 18.8345102,8.15969262 18.8345102,8.15969262 C18.8413642,8.14785463 18.8481041,8.13601664 18.8549582,8.12406482 C18.8240006,8.02321426 18.7572874,8.00648171 18.7055391,7.90938743 C18.6710402,7.84427849 18.6621299,7.75708714 18.6444235,7.68583155 C18.6333427,7.64166675 18.5790812,7.60842931 18.5589758,7.56642722 C18.4762698,7.39329662 18.4095567,7.21857244 18.3165696,7.03906754 C18.1941099,6.80253541 18.0388648,6.56736919 17.9057812,6.30977909 C17.9029254,6.30807169 17.8999553,6.30636428 17.8968709,6.30465688 C17.8926442,6.30181121 17.7785237,6.16749556 17.7718981,6.15099067 C17.708612,5.99129164 17.6048868,5.82328325 17.5333758,5.72026997 C17.4689474,5.62727346 17.4592374,5.49033979 17.3993784,5.39631884 C17.300908,5.24094522 17.1948981,5.1534124 17.1188177,4.97698082 C17.0747231,4.87465051 16.9741965,4.62058904 16.8663588,4.55001641 C16.8743553,4.54284532 16.8824659,4.53567423 16.8904624,4.52850314 C16.7902784,4.38143888 16.7557795,4.20398286 16.6597081,4.04303174 C16.4728199,3.73080476 16.2059674,3.41470767 16.0920754,3.0710645 C16.0780245,3.05296603 16.0998433,3.06161687 16.1111526,3.05842972 C16.1145796,3.0523969 16.1180067,3.04659173 16.1214337,3.04055891 C16.0820227,3.03463991 16.109896,3.02644438 16.0792811,3.05205542 C16.0322163,2.92525234 15.9283769,2.820304 15.8827972,2.69259031 C15.8865669,2.67893109 15.8903367,2.6653857 15.8943349,2.65184031 C15.8850819,2.62588779 15.7783866,2.55394924 15.7553112,2.50193038 C15.7166998,2.41530817 15.666665,2.26983749 15.617544,2.16386472 C15.5555145,2.03068733 15.3871324,1.90957559 15.4835466,1.7572753 C15.4640124,1.75010422 15.4444783,1.74293313 15.4248299,1.73564821 C15.421974,1.73405463 15.4190039,1.73234723 15.4159196,1.73063983 C15.4400231,1.71436259 15.4439071,1.72039541 15.4682391,1.70138633 L15.4682391,1.70138633 Z M15.0117569,1.87804556 C15.0190679,1.88612727 15.0261504,1.89420897 15.0334615,1.90217685 C15.0367743,1.89637168 15.0402013,1.89045269 15.0436284,1.88441987 C15.283293,2.03193943 15.4143203,2.50352396 15.5461472,2.70135497 C15.7503991,3.00754913 15.8742296,3.30543392 16.0295889,3.61367696 C16.1232615,3.79955616 16.2592009,3.95242559 16.3548154,4.1409228 C16.5223978,4.47090676 16.6669049,4.81739561 16.842141,5.14988376 C16.9109104,5.28010165 17.0088096,5.37674062 17.0896878,5.50297457 C17.1562867,5.60712611 17.1902145,5.73802696 17.250302,5.84229233 C17.289713,5.91058842 17.3868126,6.03841594 17.3371204,6.10398019 C17.4650634,6.16225953 17.4783146,6.32036498 17.5589644,6.41905284 C17.6545789,6.53606681 17.7445959,6.6306569 17.8165639,6.75450049 C17.9118357,6.91818346 17.9593574,7.11487621 18.0590843,7.28186016 C18.2192415,7.54992233 18.3220529,7.81980572 18.4658745,8.07978619 C18.5835363,8.29195938 18.7408376,8.46201666 18.8243433,8.67305159 C18.896197,8.85460537 18.9874706,9.12892801 19.0845701,9.29306629 C19.2015466,9.49089731 19.3732415,9.67062986 19.4710265,9.87881912 C19.5954282,10.1436941 19.7328526,10.4430587 19.904776,10.6919979 C20.4652119,11.5034694 20.8829686,12.3531866 21.3588707,13.1950498 C21.4182728,13.2839485 21.4780176,13.3729611 21.5374197,13.4618599 C21.5510137,13.4656161 21.5644934,13.4693724 21.5783158,13.4732425 C21.5799151,13.4977153 21.5816286,13.5223019 21.5833421,13.5470023 C21.6237812,13.6364702 21.6922079,13.7319709 21.7390442,13.8124465 C21.8693861,14.0048138 22.0000707,14.1970673 22.1305268,14.3894346 C22.2496737,14.6134458 22.3667644,14.8555555 22.4927654,15.0792252 C22.5205244,15.1067713 22.548055,15.1343174 22.5756998,15.1618635 C22.6401282,15.2473474 22.6772546,15.3190583 22.7186075,15.4082985 C22.7603033,15.4595206 22.8018847,15.5107427 22.8436947,15.5619647 C22.8779651,15.6604249 22.912464,15.7585437 22.9468487,15.85689 C23.0008817,15.9347476 23.0548006,16.0126051 23.1088336,16.0905765 C23.1967944,16.2369578 23.2553969,16.4146415 23.3639199,16.554307 C23.4629615,16.681793 23.5606322,16.7852616 23.6383119,16.9227644 C23.6898318,17.0141673 23.7097087,17.1268559 23.7504905,17.2226981 C23.8365093,17.4247407 24.0132305,17.5813664 24.1202685,17.7754411 C24.1701891,17.8654782 24.2025176,17.9824921 24.2466122,18.0713909 C24.3151531,18.209349 24.4274459,18.3023455 24.5119797,18.4347261 C24.5421376,18.4819642 24.5658985,18.5635781 24.5986839,18.6138895 C24.6802475,18.7389852 24.7698076,18.8303881 24.851257,18.9582157 C24.9525833,19.1173456 25.0194106,19.3110788 25.1127405,19.4728267 C25.1833376,19.5950767 25.2723265,19.6896668 25.3473787,19.8069085 C25.3826773,19.890002 25.4180901,19.9729818 25.4532744,20.0560754 C25.5593985,20.2255635 25.715329,20.3615866 25.8040895,20.5388149 C25.8252229,20.5980049 25.8465848,20.6573086 25.8678325,20.7166124 C25.9210659,20.802324 25.9806965,20.8879218 26.0337014,20.9644134 C26.0719701,20.9940084 26.1101245,21.023831 26.1485074,21.0533122 C26.2650269,21.2304267 26.3536731,21.4624058 26.4468887,21.6479435 C26.5162292,21.7542577 26.5854555,21.860572 26.654796,21.9668862 C26.6964917,22.0502075 26.7056305,22.1516272 26.7505248,22.2338101 C26.7975895,22.3196356 26.8752692,22.3795085 26.9406115,22.4598702 C27.0097235,22.5450127 27.0340555,22.649961 27.0770078,22.738063 C27.1449775,22.8398241 27.2131757,22.9413577 27.2811454,23.0431189 C27.4306788,23.3350847 27.5516534,23.658239 27.7517928,23.9363179 C27.7453956,23.9405295 27.7389985,23.9447411 27.7327156,23.9489527 C27.5726726,23.9498633 27.2315675,23.7673989 27.0402242,23.6492467 C26.9474656,23.6042851 26.8548211,23.5594373 26.7620625,23.5145896 C26.7119134,23.4709939 26.6184693,23.3877865 26.5453591,23.3558011 C26.4410627,23.3100428 26.2232169,23.2136314 26.0901334,23.0967313 C26.0785957,23.0821615 26.067058,23.0679331 26.0556345,23.0533633 C25.9689303,23.0120441 25.8822261,22.9703835 25.7954076,22.9289506 C25.7127016,22.8607683 25.6352504,22.7850734 25.4932566,22.7331684 C25.3978705,22.6985651 25.2427397,22.5749491 25.1361586,22.5299875 C24.6281564,22.3162208 24.1383176,22.0082054 23.6988564,21.7119142 C23.7012553,21.721248 23.7039969,21.7305818 23.7063959,21.7399156 C23.3538673,21.4229079 22.8009708,21.3016823 22.3215274,20.975227 C22.0632425,20.7992507 21.6376036,20.6030132 21.4109618,20.4568596 C21.3420782,20.4254434 21.2733089,20.394141 21.2043111,20.3628387 C21.0989866,20.298868 20.9934336,20.2350111 20.8879949,20.1709266 C20.8459565,20.154877 20.8038039,20.1388275 20.7618797,20.1227779 C20.630167,20.0152115 20.4567585,19.9503302 20.3523479,19.8660984 C20.2986576,19.8227304 20.1837374,19.7241563 20.12662,19.7023016 C20.0106716,19.6576815 19.7445046,19.5464727 19.6777914,19.4938847 C19.359876,19.2435795 18.8956258,19.0141046 18.5427545,18.7888413 C18.1364213,18.52943 17.7328298,18.3468518 17.3260396,18.0609188 C17.2434479,18.002981 17.1356102,17.9655319 17.0632996,17.8996262 C16.9656289,17.8102721 16.6953493,17.7135193 16.6119579,17.6544432 C16.351731,17.4704991 16.0171373,17.3217274 15.7943795,17.1183189 C15.6994503,17.0315829 15.5621401,17.0133706 15.5022811,16.987418 C15.3931869,16.9401799 15.0115284,16.6846387 14.964121,16.5631855 C14.9428733,16.416918 14.9104306,16.1890367 14.9118014,16.0143125 C14.9219683,15.9690095 14.9321352,15.9235926 14.9424163,15.8782895 C14.9384181,15.8081722 14.8798157,15.7248509 14.8811865,15.6546198 C14.8892972,15.6199026 14.8971794,15.5851854 14.90529,15.5505821 C14.8976363,15.4959452 14.8806153,15.41786 14.8836997,15.3611742 C14.8994641,15.3269124 14.915,15.2924228 14.9307644,15.258161 C14.9042619,15.0894696 14.8872409,14.8865164 14.8874694,14.7144102 C14.8873552,14.6050226 14.9355623,14.5110017 14.9231107,14.404346 C14.9114587,14.3062272 14.8498862,14.1090792 14.8618808,14.0153997 C14.8952374,13.7507523 14.8731901,13.453892 14.8348072,13.1744471 C14.8578826,13.1626091 14.8569687,12.9529401 14.8640513,12.8960267 C14.8722762,12.832056 14.8334363,12.7773053 14.8232694,12.7194813 C14.8313801,12.657218 14.8393766,12.5948409 14.8476015,12.5325777 C14.8518281,12.3765211 14.8509143,12.2702068 14.8296666,12.1094834 C14.8401762,12.0565539 14.8508,12.0037383 14.8615381,11.9508088 C14.8606242,11.8316321 14.8399477,11.6878688 14.8410901,11.5732452 C14.8413185,11.5297634 14.8891829,11.4696628 14.8894114,11.4474666 C14.894095,11.171778 14.8671356,10.8709337 14.8664502,10.620287 C14.8659933,10.4867682 14.9324779,10.137206 14.8522851,10.0459169 C14.8637086,10.0329406 14.8752463,10.0196229 14.8866698,10.0065328 C14.8617666,9.93482192 14.8485153,9.83010124 14.8547982,9.75247135 C14.8640513,9.72242107 14.8734185,9.69225696 14.8827858,9.66220668 C14.8635943,9.45242384 14.8858701,9.19460609 14.8686207,9.00531208 C14.8681637,9.0003037 14.9017488,8.95443149 14.9004922,8.92904811 C14.8978648,8.87259001 14.8635943,8.7316724 14.8609669,8.64687142 C14.8579968,8.55580996 14.8911249,8.48227783 14.8890687,8.39167168 C14.8876979,8.33862838 14.8466876,8.24460743 14.890211,8.20351594 C14.8813007,8.19839374 14.8723904,8.19327153 14.8634801,8.18826315 C14.8651936,8.18530365 14.8667929,8.18234415 14.8685064,8.17938466 C14.8609669,8.14705784 14.8709054,8.15274918 14.8851847,8.12975616 C14.8818719,8.09617725 14.8519424,8.05872822 14.849315,8.02685671 C14.8461164,7.98451314 14.8881548,7.94387696 14.8876979,7.91883506 C14.8868982,7.87819888 14.8341218,7.82822891 14.8352641,7.78292583 C14.8375488,7.70165348 14.8715908,7.64883784 14.8747893,7.56950054 C14.8856416,7.30428404 14.8621093,7.0147086 14.8466876,6.75108568 C14.8404047,6.64397464 14.8865555,6.54733567 14.8862128,6.45502212 C14.8759317,6.41780074 14.8657648,6.38057937 14.8555979,6.34324418 C14.8525136,6.20027769 14.8983217,6.04410728 14.8924957,5.92777627 C14.8958085,5.90170993 14.8647367,5.83090965 14.8681637,5.78412682 C14.879016,5.64241243 14.9332776,5.51617848 14.9191124,5.36478881 C14.9170562,5.34293406 14.8825573,5.30742009 14.8821004,5.28476855 C14.8953516,5.26871897 14.9084886,5.25255556 14.9217398,5.23650598 C14.9063181,5.15432301 14.8870125,5.01329158 14.9381897,4.93919031 C14.9506412,4.90424548 14.9379612,4.92803529 14.9356765,4.90231042 C14.9377327,4.89172453 14.9399032,4.88113863 14.9420736,4.87055274 C14.954411,4.83572173 14.9417309,4.85939771 14.9394462,4.83367285 C14.9197978,4.79189841 14.9538398,4.73396055 14.9522405,4.68763304 C14.9471,4.54170705 14.9496131,4.39919587 14.9444726,4.24666792 C14.9428733,4.1969256 14.8846135,4.14900451 14.943216,4.10438439 C14.9346484,4.09163579 14.926195,4.07888719 14.9176274,4.06625241 C14.9119156,3.95026288 14.8860986,3.68117627 14.9405886,3.57190252 C14.9307644,3.58214693 14.9210544,3.59239134 14.9113445,3.60240811 C14.9082601,3.6007007 14.90529,3.5989933 14.9024342,3.5972859 C14.9311071,3.34185851 14.9465288,3.1368564 14.9557818,2.88450233 C14.9614936,2.72912872 14.8913534,2.53528164 14.931564,2.41052744 C14.9697185,2.29180607 14.9115729,2.01577602 14.997706,1.96455395 C15.0037604,1.92539752 15.0119853,1.95328509 14.9862825,1.92266568 C14.9948501,1.90775436 15.0033035,1.89295688 15.0117569,1.87804556 L15.0117569,1.87804556 Z M5.93431706,16.5555591 C5.60737707,16.9780842 5.32807299,17.3761366 5.06487601,17.7831814 C5.0097006,17.86821 4.95726683,18.0147051 4.92333909,18.0919935 C4.84040463,18.2296102 4.7575844,18.3673406 4.67464994,18.5050711 C4.56761193,18.8320955 4.30829894,19.3187052 4.1545389,19.5774336 C3.98901268,19.8564231 3.89705366,20.0952318 3.71724809,20.3195845 C3.64390935,20.4112151 3.48569415,20.7400607 3.47495608,20.7834288 C3.47038669,20.8018687 3.45119525,20.9263953 3.42926216,20.9460873 C3.38608141,20.9845608 3.30451776,21.0537675 3.27367437,21.093493 C3.22409647,21.1573499 3.15532712,21.3338953 3.08872823,21.3540426 C3.10060865,21.4917731 2.94296463,21.5758911 2.87453798,21.7276223 C2.77241207,21.9542515 2.65475023,22.2153702 2.45883755,22.4112662 C2.39520877,22.536248 2.33146575,22.6612299 2.26772273,22.7862117 C2.14149328,22.9653751 2.05536024,23.1461321 1.99355922,23.3262062 C1.93415712,23.4024701 1.87452656,23.4787341 1.81512446,23.5549981 C1.74418465,23.658239 1.66993203,23.8391098 1.581857,23.858688 C1.58437017,23.867908 1.58688333,23.8773556 1.5893965,23.8865756 C1.5634652,23.9052432 1.55421218,23.9004625 1.52816665,23.9108207 C1.41370338,23.8313696 1.40650659,23.7562439 1.3917703,23.6325141 C1.39336958,23.6295546 1.39508311,23.6265951 1.39679663,23.6236357 C1.38925713,23.6232942 1.38148916,23.6228389 1.37394967,23.6223836 C1.39725357,23.5169799 1.35350164,23.3958682 1.3560148,23.2819275 C1.35692868,23.2379904 1.37988988,23.2243312 1.37509202,23.1866545 C1.37189344,23.1876789 1.30106787,23.0272969 1.29341414,22.9984987 C1.28861627,22.9800588 1.31911696,22.9545616 1.31900273,22.9541063 C1.27616468,22.7939519 1.31157747,22.6705637 1.31249135,22.4901481 C1.30186751,22.4605532 1.29124367,22.4309582 1.28061984,22.4012494 C1.28998709,22.3713129 1.29924011,22.3411488 1.30860736,22.3109847 C1.29204332,22.1836125 1.23995225,21.9904484 1.31500451,21.8663772 C1.31032089,21.8676293 1.30563726,21.8688813 1.30095363,21.8701334 C1.27947749,21.8249442 1.31717497,21.7967151 1.31249135,21.746859 C1.29809776,21.5978597 1.25548818,21.4272333 1.25114726,21.2756159 C1.25994334,21.2530782 1.26896789,21.2305405 1.2778782,21.2081166 C1.28130525,20.9705601 1.25274655,20.6780251 1.24840562,20.4126948 C1.24646363,20.2854364 1.19243057,20.1799189 1.1948295,20.0518638 C1.19608609,19.9857304 1.23995225,19.9359881 1.24200848,19.8664399 C1.24360776,19.8130551 1.21619141,19.7284818 1.22030386,19.677032 C1.22430208,19.6253547 1.26359885,19.5939385 1.2598291,19.5461312 C1.23595403,19.2387988 1.21756223,18.8507631 1.22647254,18.4889077 C1.2128786,18.4025131 1.19928466,18.3161185 1.18569072,18.2298378 C1.19277328,18.1001891 1.2000843,17.9705403 1.2072811,17.8408916 C1.20408252,17.7116981 1.17278219,17.5973022 1.17792275,17.4584334 C1.18717577,17.212909 1.24098036,16.9817267 1.24920527,16.7557805 C1.25480277,16.6034802 1.21938999,16.4272762 1.21607718,16.2766834 C1.23001382,16.1628565 1.2440647,16.0488021 1.25800135,15.9349752 C1.25891523,15.9020793 1.23435474,15.8664515 1.2312704,15.8370842 C1.21150778,15.6449445 1.26839671,15.4098921 1.27833514,15.2384689 C1.28107678,15.1899787 1.24086613,15.1244144 1.24132307,15.0759242 C1.24246542,14.9498041 1.25503124,14.8627266 1.22727219,14.7493551 C1.21310707,14.6917587 1.26017181,14.5682566 1.26040028,14.4849353 C1.26074298,14.364848 1.22293126,14.1888718 1.21573447,14.0468159 C1.19928466,13.7293529 1.2181334,13.4115484 1.24098036,13.0937439 C1.24098036,13.0937439 1.21047967,13.0228298 1.20910885,13.0047313 C1.19882772,12.8746273 1.23024229,12.7734352 1.20408252,12.6832844 C1.16124447,12.5365616 1.25754441,12.1813081 1.17460994,12.0530253 C1.18306332,12.038114 1.19163093,12.0234303 1.2000843,12.0086328 C1.18820389,12.0018032 1.17632347,11.9949736 1.16432881,11.9882578 C1.16638504,11.9501258 1.1685555,11.9121077 1.17061173,11.8738619 C1.17472418,11.8512103 1.18214944,11.8562187 1.20899462,11.8484785 C1.19517221,11.8286726 1.18774695,11.8290141 1.16432881,11.8230951 C1.18546225,11.6087592 1.15004946,11.365056 1.16033059,11.1483297 C1.16672774,11.0158353 1.20796651,10.8416802 1.19608609,10.6731027 L1.14502313,10.431676 C1.14559431,10.2783513 1.15884554,10.1691913 1.15393345,10.0238345 C1.16535693,10.0106306 1.17678041,9.9975405 1.18831812,9.98445042 C1.18329179,9.91034915 1.20602451,9.83727233 1.20099818,9.7556585 C1.18900353,9.55816896 1.16204412,9.43125206 1.17038326,9.23091685 C1.1738103,9.14691265 1.13040108,9.0766815 1.16147294,8.97799365 C1.18283485,8.92745454 1.25994334,8.9315523 1.31820309,8.89034699 C1.55112784,8.72552575 1.77776968,8.61841471 2.00418305,8.47852155 C2.49105176,8.17767725 2.9724372,7.91302989 3.4654746,7.62311297 C3.56143183,7.56665487 3.68960327,7.54571073 3.7855605,7.49858643 C3.8735213,7.43461575 3.96148209,7.37053125 4.04944289,7.30678823 C4.14334389,7.25408641 4.2792833,7.20400261 4.36701563,7.14526797 C4.47234011,7.07480917 4.54065252,6.98545511 4.64620547,6.92672047 C4.79516765,6.84374072 4.96069387,6.77601376 5.11411121,6.70931124 C5.13615852,6.69974979 5.18939194,6.63236431 5.23017376,6.61016808 C5.41523414,6.50988664 5.58658634,6.37944111 5.76959048,6.26834613 C5.82967799,6.23192154 5.92175123,6.22019738 5.98126756,6.18821204 C6.38463064,5.97091664 6.69203648,5.690675 7.10213941,5.49295781 C7.24573255,5.4237511 7.40566127,5.36069104 7.55096793,5.28829718 C7.68884933,5.21965961 7.79063254,5.11289005 7.92839971,5.0431142 C8.04811778,4.98233068 8.21524329,4.94101154 8.32502293,4.86770707 C8.59416011,4.68763304 8.83119732,4.51575453 9.10775977,4.36948707 C9.50324064,4.16038719 9.9292222,3.95857223 10.3039123,3.72886971 C10.4187183,3.6584109 10.5800179,3.63223073 10.695395,3.56234106 C10.7642786,3.51111899 10.8330479,3.4597831 10.9019315,3.40856103 C10.9408856,3.38568183 11.0134247,3.36655893 11.048609,3.33867136 C11.118178,3.28357917 11.134742,3.22712107 11.2093374,3.1822733 C11.4798454,3.0197286 11.7602918,2.91785359 12.0381108,2.76930959 C12.1087079,2.73151908 12.1548588,2.65423067 12.2305965,2.61928584 C12.8877893,2.31627883 13.5039718,1.86654905 14.1177553,1.64071664 C14.1447147,1.66450644 14.1435724,1.66871804 14.1663051,1.67998689 C14.1140998,1.7457788 14.0401899,1.95260213 13.9788458,2.06881932 C13.9665085,2.0971622 13.9541711,2.1256189 13.9418337,2.15396178 C13.8312545,2.2567474 13.7289001,2.44126068 13.6283735,2.57716991 C13.605298,2.60813081 13.5792525,2.70158263 13.5313881,2.74608892 C13.4853515,2.78911546 13.455422,2.88655122 13.3758003,2.97624675 C13.1317948,3.2510247 12.8840195,3.76688786 12.7777811,4.03984459 C12.6304183,4.29014977 12.4829411,4.54056878 12.335464,4.79076014 C12.2467036,5.02877202 12.0655272,5.38994453 11.8803526,5.60541871 C11.769659,5.73415685 11.7148263,5.91867013 11.6354332,6.03238312 C11.5611805,6.18274836 11.4869279,6.33311359 11.4124468,6.48359265 C11.3239149,6.57214992 11.0835648,6.9943336 11.0542065,7.12899073 C11.0275898,7.15312202 10.8747436,7.39284131 10.8630917,7.42129802 C10.8338476,7.4920983 10.7768444,7.68651451 10.7062473,7.75685949 C10.5828737,7.87956481 10.5137617,8.18792167 10.3632002,8.3756221 C10.2513643,8.51517378 10.1245637,8.76821081 10.0394588,8.98186376 C9.94384426,9.22169687 9.72554156,9.43910611 9.64169322,9.67563824 C9.59954057,9.7947011 9.53248475,10.0007277 9.46188764,10.0925859 C9.40728341,10.1635 9.32046496,10.2692451 9.29613295,10.3402731 C9.23536004,10.5185259 9.1469423,10.7404882 9.07177581,10.8967724 C9.00174987,11.0426984 8.83451013,11.3249889 8.73009952,11.4927696 C8.72701518,11.4978919 8.68680453,11.5271453 8.68680453,11.5271453 C8.67823692,11.6072794 8.57439749,11.7357899 8.54024129,11.844836 C8.46039116,12.0984422 8.27304609,12.4274017 8.14121914,12.6442418 C8.09232664,12.7225546 8.04343415,12.8008675 7.99442742,12.8792942 C7.82684497,13.3320973 7.57130173,13.6001594 7.36602179,14.0788012 C7.34203249,14.134804 7.26275354,14.1897824 7.23099626,14.2733313 C7.18153259,14.4026385 7.02354587,14.6191372 6.96951281,14.7498104 C6.82614813,15.0965269 6.56386504,15.5000429 6.40347938,15.8197825 C6.34213529,15.9418048 6.23064213,16.0658761 6.14976389,16.1589864 C6.04101236,16.2846512 6.02410561,16.4395695 5.93431706,16.5555591 L5.93431706,16.5555591 Z M2.24236261,23.9869709 C2.22716938,23.9667097 2.23071066,23.9744499 2.22579856,23.9538473 C2.2104911,23.9530505 2.19518364,23.9521399 2.17976194,23.9513431 C2.18238934,23.9606769 2.1849025,23.9701245 2.1875299,23.9792306 C2.15565839,23.9952802 2.0752371,23.957945 2.04085242,23.9665959 C2.04644993,23.8128158 2.18707296,23.6876063 2.26520957,23.492621 C2.37099099,23.2286566 2.48568273,22.9646922 2.67199968,22.7213304 C2.7098114,22.6484813 2.74750889,22.5755183 2.78543484,22.5026691 C2.88367677,22.390322 3.00213825,22.2340378 3.07102184,22.087315 C3.23129326,21.7459484 3.50008774,21.3916055 3.66515702,21.0096027 C3.70582461,20.9153541 3.84073591,20.7618017 3.89328392,20.6320391 C4.0245397,20.423736 4.15590972,20.2153191 4.2871655,20.0069022 C4.32794732,19.8881808 4.46571449,19.6820404 4.46697107,19.5901822 C4.47942267,19.5799378 4.52168954,19.5636605 4.52945751,19.5431717 C4.62564321,19.2893379 4.78957015,18.9590124 4.87113379,18.7818979 C4.94058855,18.6308497 5.02432266,18.4905012 5.07378632,18.36643 C5.09560517,18.3117931 5.1370724,18.3264768 5.15672079,18.2837917 C5.22480473,18.135703 5.35206229,17.848518 5.48823017,17.7055515 C5.55277284,17.6378245 5.66152436,17.5020291 5.70356277,17.3917309 C5.78352713,17.1819481 6.00160136,16.913203 6.1842628,16.6978426 C6.28627448,16.5777553 6.33847978,16.3646715 6.44940177,16.2352504 C6.55838177,16.1082197 6.61801233,15.9733349 6.69683434,15.8452797 C6.71636849,15.8249047 6.73601688,15.8044159 6.75543679,15.7841547 C6.7948478,15.708346 6.83448728,15.6325374 6.87401252,15.5567287 C6.9297591,15.466464 6.98527721,15.3761994 7.04102379,15.2860485 C7.1089935,15.1013076 7.332551,14.7157761 7.40429045,14.5490198 C7.46586301,14.46217 7.5275498,14.3753201 7.58923659,14.2884702 C7.62019422,14.2112957 7.66291803,14.0544423 7.70655573,14.0011713 C7.76892793,13.9250212 7.8653421,13.8183655 7.89641396,13.7318571 C7.90303958,13.713531 7.90201147,13.6454625 7.90669509,13.6314618 C7.92760006,13.5686294 8.00939218,13.5026099 8.03795088,13.4231587 C8.0366943,13.418378 8.03543771,13.4138249 8.03418113,13.409158 C8.0498313,13.3914011 8.09689603,13.3787663 8.11700136,13.3265198 C8.23032228,13.0326189 8.36946026,12.8062174 8.48552282,12.5806126 C8.52756123,12.4985435 8.61003875,12.4699729 8.64476613,12.3644555 C8.71444936,12.1534205 8.79327137,11.9810867 8.87563466,11.7761984 C8.93972038,11.6711363 9.00392034,11.5660741 9.06812029,11.461012 C9.07657367,11.4529303 9.13243448,11.4183269 9.14065939,11.3963583 C9.19971878,11.2403018 9.31977955,11.0268765 9.36250337,10.8853897 C9.39951544,10.8277933 9.43652752,10.770197 9.47342536,10.7126006 C9.51020896,10.5826104 9.61987437,10.3826166 9.69012877,10.2106243 C9.70977716,10.1903631 9.72919707,10.1699881 9.74884546,10.1496131 C9.84914361,9.89964943 9.97331684,9.66869481 10.1083424,9.4811082 C10.1452402,9.39607957 10.1823665,9.31082328 10.2192644,9.22579464 C10.2488512,9.15396992 10.3545184,8.98448178 10.4067237,8.91948666 C10.4880588,8.81818079 10.5751058,8.5924622 10.6514146,8.49252225 C10.7606231,8.34944193 10.8470988,8.1226989 10.8949632,8.00591258 C10.9757272,7.80887835 11.122062,7.66181409 11.1856908,7.49881408 C11.249548,7.33490346 11.3204878,7.11203054 11.4113045,7.00196 C11.47916,6.91966321 11.5587816,6.80526725 11.6114438,6.71477493 C11.6190976,6.68757032 11.6266371,6.66059336 11.634405,6.63338875 C11.7952476,6.41199558 11.9736824,6.10477698 12.0779788,5.85948018 C12.098541,5.8112176 12.1330399,5.79107026 12.1520029,5.7717197 C12.1727936,5.72869316 12.1936986,5.68543897 12.2144893,5.64218477 C12.2686366,5.49125041 12.4317639,5.32642917 12.4669483,5.16058348 C12.5931777,5.02934116 12.6635463,4.85814562 12.7270609,4.7069836 C12.8193626,4.48672869 12.9701525,4.34364838 13.0444052,4.13261345 C13.0567425,4.13170283 13.0690799,4.13090604 13.0814172,4.12999543 C13.1031218,4.10973426 13.1159161,3.97598774 13.1770318,3.90131734 C13.1879983,3.86819374 13.1991933,3.83518396 13.2101599,3.80206035 C13.2365481,3.77007502 13.2628221,3.7377482 13.2892103,3.70553521 C13.3907651,3.54777123 13.4377156,3.40104846 13.5582333,3.2569437 C13.7617997,3.0138096 13.9316668,2.65969436 14.1535108,2.40426697 C14.2286773,2.31798623 14.2017179,2.22908749 14.2606631,2.1349527 C14.2869371,2.09306443 14.3394851,2.07075438 14.3664445,2.05356653 C14.4082544,2.02704488 14.5005561,1.85436958 14.5182625,1.80952182 C14.5569881,1.81361958 14.5649846,1.82022154 14.597313,1.79552112 C14.6905286,1.94702462 14.6261002,2.20916779 14.6241582,2.38901417 C14.6209596,2.69475302 14.6434639,3.01881798 14.645977,3.32171116 C14.6473479,3.49006103 14.5966276,3.70257571 14.5912586,3.8922112 C14.5834906,4.16642001 14.6770489,4.45178386 14.6601422,4.72189491 C14.6510034,4.86907299 14.5930863,4.97015121 14.5888596,5.09422245 C14.5733237,5.55328602 14.5857753,6.04183075 14.5890881,6.49827631 C14.5905732,6.70555495 14.5423661,6.89928821 14.5457931,7.11077844 C14.5471639,7.19091253 14.5510479,7.29062482 14.5585874,7.37758852 C14.5704678,7.41185039 14.5824625,7.44611226 14.5943429,7.48048796 C14.5832621,7.6499761 14.5903447,7.82879804 14.5918297,8.02184833 C14.5825767,8.18951524 14.5730952,8.35718215 14.5638422,8.52496289 C14.5703536,8.70219125 14.5903447,8.89273736 14.5933148,9.07269756 C14.5847472,9.11504114 14.5762938,9.15738472 14.5678404,9.1997283 C14.5685258,9.30080652 14.5906874,9.42396714 14.5678404,9.53005374 C14.5856611,9.54018433 14.6035959,9.55042874 14.6214166,9.56055933 C14.5285437,9.71923392 14.5862322,9.8744937 14.6009685,10.0091508 C14.5561885,10.0314609 14.6021109,10.2964497 14.5959422,10.3484686 C14.5513906,10.7231865 14.5952568,11.0914163 14.584633,11.4628332 C14.5669266,12.0910434 14.5329988,12.7174324 14.5415664,13.3141126 C14.5493344,13.8567251 14.6178753,14.3922803 14.5838333,14.954471 C14.5800636,15.0185555 14.6159333,15.099714 14.6183322,15.1627741 C14.6245009,15.3247496 14.5950283,15.4729522 14.5967418,15.6343586 C14.6078226,15.6839871 14.6189034,15.7335018 14.6298699,15.7831303 C14.6248436,15.8302546 14.590002,15.8513125 14.5917155,15.8911519 C14.6006258,16.0903489 14.6324973,16.3000179 14.6312407,16.503654 C14.6168472,16.542469 14.6024536,16.5813978 14.5879458,16.6203265 C14.4532629,16.7423489 14.2587211,16.8460451 14.0919383,16.9278866 C14.0708048,16.9512211 14.0494429,16.9744418 14.0281952,16.9978901 C13.9876419,17.0227044 13.9119042,17.03477 13.8726075,17.0627714 C13.8543299,17.0876995 13.8361665,17.1126276 13.817889,17.1376695 C13.7414659,17.1907128 13.6179781,17.2291862 13.5385849,17.2735787 C13.4959753,17.3202477 13.45348,17.3668028 13.4110989,17.4134718 C13.3962483,17.4187079 13.3723733,17.3990158 13.3562662,17.4059593 C13.2988061,17.4303182 13.2324356,17.4980452 13.198051,17.5163713 C13.1534994,17.5401611 13.0745631,17.5519991 13.0336671,17.5762442 C12.9768924,17.6098231 12.9569013,17.6608175 12.8985273,17.6880221 C12.8256455,17.7217149 12.7194072,17.7617819 12.6523513,17.8075403 C12.6357873,17.8295089 12.6192232,17.8515913 12.602545,17.8735599 C12.4311928,17.9864761 12.1825036,18.0737812 11.9904749,18.1977387 C11.8018733,18.3194195 11.6273225,18.440076 11.4332376,18.52943 C11.3832027,18.5755299 11.3330536,18.6217436 11.2827903,18.6678434 C11.2167626,18.7036989 11.1193203,18.7351151 11.05592,18.7747268 C11.0155951,18.8106961 10.975156,18.8467792 10.9348311,18.8826346 C10.9084429,18.8874154 10.8820547,18.8920823 10.8556664,18.8966353 C10.7288658,18.9507031 10.6155449,19.0737499 10.4884015,19.1241752 C10.421003,19.1511521 10.3249315,19.1723239 10.2627878,19.2081794 C9.98256985,19.369472 9.74587535,19.5752709 9.46965561,19.7241563 C9.44943605,19.7350837 9.4666855,19.7341731 9.44669441,19.7227904 C9.15779461,19.9422485 8.83405319,20.0961424 8.53247332,20.2643785 C8.47467051,20.310023 8.41686771,20.3557814 8.3590649,20.4015398 C8.30320408,20.4321592 8.21718528,20.4543554 8.16509421,20.4918044 C8.1122035,20.5300503 8.09461134,20.5825244 8.03909323,20.6087046 C7.87231042,20.6871313 7.75841833,20.7966327 7.59529103,20.8870112 C7.40029223,20.9952605 7.18495964,21.1072661 6.98836155,21.2021976 C6.76708874,21.309081 6.54375971,21.5367347 6.32899829,21.6292759 C6.24697771,21.6647899 6.1662137,21.7569896 6.1110383,21.7410538 C6.07059918,21.8044554 5.85629469,21.8524903 5.78969581,21.8885734 C5.69590904,21.9395678 5.60040875,22.0087745 5.51313336,22.0613625 C5.51267642,22.070924 5.50456575,22.1010881 5.48251843,22.1148611 C5.46321275,22.1266991 5.4275715,22.1072347 5.4275715,22.1072347 C5.39387223,22.1187312 5.39809892,22.1541314 5.36382848,22.1771244 C5.33309932,22.1976132 5.26375879,22.2014833 5.23245846,22.2202648 C5.20652716,22.2448513 5.1807101,22.2694379 5.1547788,22.2940245 C5.07767031,22.3228227 4.96103658,22.3671014 4.89455193,22.417299 C4.85422704,22.4476907 4.82384059,22.500734 4.77848937,22.5164421 C4.71497482,22.5382969 4.66916667,22.5472892 4.6039386,22.594072 C4.57115321,22.6303828 4.53836782,22.6668074 4.50569667,22.7033458 C4.47599562,22.7181433 4.41065332,22.7127934 4.38460778,22.7286153 C4.36633022,22.7537711 4.34793841,22.7786991 4.32977508,22.8036272 C4.29036408,22.8295797 4.23107622,22.8257096 4.18949475,22.8417592 C4.1985193,22.8946887 4.12358127,22.8798912 4.09890655,22.8965099 C3.97210593,22.9817662 3.86461098,23.031167 3.73815306,23.092292 C3.69291608,23.1295134 3.64790757,23.1667348 3.60289906,23.20407 C3.47529879,23.2712278 3.33935938,23.3303039 3.20890324,23.4162432 C3.16081039,23.4480009 3.12733959,23.5081014 3.09672467,23.529387 C3.06245423,23.553063 2.87727962,23.6457181 2.83661203,23.6526615 C2.80439782,23.658239 2.76795692,23.6423033 2.73974092,23.6565316 C2.68205235,23.6853298 2.66354631,23.7355274 2.60448692,23.7683095 C2.47163185,23.8421832 2.32084191,23.8421832 2.24236261,23.9869709 L2.24236261,23.9869709 Z M2.30359246,24.3756895 C2.31592982,24.3748927 2.32826718,24.3740959 2.34060453,24.3732991 C2.3536273,24.3721608 2.33843407,24.3532656 2.34323193,24.3275407 C2.36927747,24.3357363 2.36173797,24.3343703 2.38766927,24.3529241 C2.47585854,24.1391573 3.00842117,23.9745637 3.19359577,23.8559562 C3.39567713,23.7265351 3.5698852,23.5321189 3.78407545,23.4250078 C4.26409007,23.1851747 4.79619576,22.8328807 5.30008546,22.5773395 C5.50902091,22.4714805 5.67877382,22.3169037 5.88793773,22.1921495 C6.09321767,22.0700133 6.35767123,22.0060427 6.5637508,21.8808332 C6.74150015,21.7729253 6.85436413,21.6543178 7.04319425,21.5401495 C7.21123364,21.438616 7.41034489,21.3663359 7.57884122,21.2669651 C7.97614985,21.0325957 8.32148165,20.7647612 8.71616288,20.5221962 C8.81451904,20.4617542 8.94577482,20.4144022 9.04767226,20.3569197 C9.2454127,20.245597 9.42316205,20.1000125 9.62398682,20.0124797 C9.82012797,19.9269957 9.97126061,19.7611501 10.1595196,19.656657 C10.3187629,19.5683274 10.5238143,19.481819 10.6722053,19.3821067 C10.732864,19.3413567 10.8514397,19.2810285 10.9157539,19.2258225 C10.9489963,19.1971382 10.9505955,19.1627625 10.9704724,19.1509245 C11.0125108,19.1257687 11.089962,19.132143 11.1388545,19.1050523 C11.2508046,19.0426752 11.3266565,18.9549147 11.4410055,18.8877569 C11.6127004,18.7867925 11.7895359,18.7149677 11.9676279,18.6094503 C12.2259128,18.4562394 12.4372472,18.2794663 12.698388,18.1404838 C12.9433074,18.0099244 13.2102741,17.8838043 13.4482252,17.7412931 C13.4743849,17.7091939 13.5007732,17.6768671 13.5270472,17.6447679 C13.6504208,17.5512023 13.8210876,17.4873455 13.9542853,17.4158622 C14.0979927,17.3388014 14.4742821,17.0536653 14.6058806,17.0435347 C14.6135344,17.04399 14.6211881,17.0444453 14.6288418,17.0449006 C14.6380948,17.0698287 14.6475763,17.0947567 14.6569436,17.1197986 C14.6841315,17.1273112 14.7113193,17.1350514 14.738393,17.142564 C14.8482869,17.2064209 14.903805,17.1275389 14.9769152,17.0779104 C15.0679604,17.1257176 15.1588913,17.1735249 15.2498222,17.2213322 C15.2523353,17.2305521 15.255077,17.2398859 15.2574759,17.2493336 C15.6519287,17.4734586 16.0478665,17.7356018 16.3951403,17.9086185 C16.4791028,17.9505068 16.6279508,18.0883511 16.7433279,18.106791 C16.7570361,18.1089537 16.7650326,18.0718462 16.7852521,18.0952945 C16.8716136,18.1946653 17.0086954,18.2329111 17.1003117,18.3099719 C17.2102056,18.4025131 17.451241,18.5518539 17.6360729,18.614914 C17.6941042,18.6347198 17.7354572,18.6889014 17.7597892,18.7089349 C17.8923015,18.780532 18.0250424,18.8521291 18.1575547,18.9236123 C18.2256387,18.9702813 18.2936084,19.0168365 18.3616923,19.0632778 C18.497289,19.1366961 18.6328857,19.2098868 18.7684824,19.2830774 C18.9690788,19.378009 19.1371181,19.5283742 19.3334878,19.6400383 C19.4834781,19.7295062 19.6335826,19.8187464 19.7835729,19.9082143 C19.9201977,19.9523791 20.1656883,20.0542541 20.2454242,20.1355265 C20.300828,20.1920984 20.4502472,20.3292597 20.5691656,20.3553261 C20.8820547,20.4235084 21.3672099,20.8294148 21.7502392,20.9802353 C21.9358707,21.0899644 22.1217307,21.1996935 22.3075907,21.3093087 C22.3869839,21.3280901 22.53686,21.4478359 22.6340738,21.4833499 C22.9903721,21.6137954 23.3536388,21.9485601 23.6784083,22.0777536 C23.8060086,22.158343 23.9336089,22.2388185 24.0610949,22.3192941 C24.4387551,22.4459833 24.5840618,22.6730679 24.9499559,22.8133025 C25.0320907,22.8449464 25.2186361,22.8958269 25.3006567,22.9658304 C25.3521766,23.0069219 25.4036965,23.0480134 25.4549879,23.0889911 C25.5584846,23.1276922 25.7055048,23.1817599 25.7955218,23.259276 C25.9601342,23.4009904 26.1742102,23.5469164 26.3234009,23.6188549 C26.4981801,23.7029729 26.715112,23.8848682 26.8949175,23.9440582 C27.1916996,24.0417216 27.4109161,24.2107544 27.6280765,24.3377851 C27.6150537,24.3540624 27.6018025,24.3699981 27.5886655,24.3860477 C27.3845279,24.3665833 27.165654,24.4353347 26.9638011,24.4434164 C26.60419,24.4577586 26.2629706,24.439774 25.9041591,24.4536608 C25.7147578,24.4609458 25.5145042,24.532429 25.3239606,24.5364129 C24.1360329,24.561341 22.9439928,24.5643005 21.7685167,24.6245149 C21.659194,24.6300924 21.5735179,24.5919604 21.4663657,24.5941231 C21.4336945,24.5948061 21.3897141,24.625767 21.3541871,24.6246287 C21.201341,24.6195065 21.0424403,24.6168885 20.8988472,24.613246 C20.7791291,24.6101727 20.6824865,24.5715854 20.5648247,24.57648 C20.1150823,24.5951476 19.6398655,24.5991315 19.1900089,24.6197342 C19.098621,24.6070994 19.0073474,24.5944646 18.9158453,24.581716 C18.6372267,24.5584953 18.3331336,24.5579262 18.0641107,24.5806916 C17.9865453,24.5871797 17.9224595,24.5474541 17.8447799,24.550186 C17.7023291,24.5549667 17.5251509,24.5430149 17.3792731,24.5565603 C17.3684208,24.529128 17.19387,24.5196804 17.1510319,24.5210463 C17.0014986,24.5259409 16.8488809,24.56726 16.7059732,24.5744311 C16.5694626,24.5813745 16.4504299,24.5624793 16.3232866,24.5809192 C16.2577158,24.5903669 16.1950009,24.5542838 16.1271454,24.5516657 C16.0044573,24.5469988 15.8489837,24.5934402 15.7252674,24.5709025 C15.7044767,24.5589507 15.6836859,24.5471127 15.662781,24.5352747 C15.4754359,24.5378927 15.2711841,24.5590645 15.0853241,24.5721546 C14.9974775,24.5781874 14.9226537,24.5512104 14.8327509,24.5581539 C14.8199566,24.5666909 14.8071623,24.5751141 14.7944823,24.5836511 C14.7659236,24.5713578 14.7375933,24.5590645 14.7089204,24.5467712 C14.602682,24.5343641 14.4684562,24.5477956 14.3633601,24.5506413 C14.29322,24.5422181 14.2230798,24.5336811 14.1529396,24.5252579 C13.9488021,24.5328843 13.7292428,24.5821713 13.523049,24.5913913 C13.305089,24.6010666 13.132366,24.5631622 12.9033252,24.5572433 C12.7473947,24.5531455 12.5690742,24.5986762 12.4174846,24.5992454 C12.2182591,24.5998145 12.033313,24.6018634 11.8321455,24.6082377 C11.801759,24.5989039 11.7717153,24.5895701 11.7415573,24.5802363 C11.5366201,24.5746588 11.3127198,24.6265638 11.1038986,24.6184821 C10.8713166,24.6094898 10.6619242,24.55804 10.4344827,24.5677153 C10.1982452,24.5777321 9.94887059,24.6344178 9.71263303,24.6288403 C9.19823373,24.6166609 8.70451093,24.619165 8.19776536,24.6278159 C8.16463727,24.6167747 8.13150918,24.6057335 8.09815262,24.5948061 C7.98837298,24.5804639 7.87996415,24.5767076 7.75910373,24.5669185 C7.53885904,24.5489339 7.27657595,24.5640729 7.05895865,24.5694227 C6.91285235,24.5730652 6.78251044,24.5192251 6.63811766,24.5187698 C6.60533227,24.5276483 6.57266112,24.5365268 6.53987573,24.5454053 C6.41056194,24.5362991 6.29507056,24.4773368 6.17009769,24.4882642 C5.92929073,24.5095498 5.66335212,24.5030617 5.42288787,24.5112572 C5.36497083,24.5019234 5.30728225,24.4927034 5.24936521,24.4832558 C5.15557844,24.488378 5.03620308,24.5367544 4.92425297,24.5341364 C4.88632702,24.524575 4.8485153,24.5147858 4.81070358,24.5051106 C4.74650363,24.5130784 4.65225992,24.5471127 4.58760302,24.5432426 C4.50523973,24.5382342 4.4348711,24.4921343 4.37843911,24.4948662 C4.34565372,24.5037446 4.31298257,24.5126231 4.28031141,24.5215016 C4.1624211,24.5093222 4.08622649,24.4732391 3.97416215,24.477223 C3.92264226,24.4789304 3.86152664,24.5121678 3.81092063,24.5141029 C3.70616732,24.5180868 3.56897132,24.4766539 3.44376998,24.4937279 C3.43348885,24.494297 3.43188956,24.4985086 3.43485967,24.4887195 C3.32782166,24.5369821 3.21347263,24.4818899 3.11717269,24.4849632 C3.06850867,24.486443 2.98146175,24.5121678 2.94513509,24.5166071 C2.87773656,24.5251441 2.82530278,24.4768815 2.77686723,24.479841 C2.75002205,24.4921343 2.72317687,24.5044276 2.69644593,24.5167209 C2.6756552,24.5048829 2.65475023,24.4930449 2.63407373,24.4812069 C2.56336239,24.4708487 2.50784428,24.5092083 2.44398703,24.5027202 C2.37418956,24.4957768 2.41165858,24.4536608 2.35339883,24.4748326 C2.32655365,24.4452377 2.33123728,24.4567342 2.33809137,24.4189437 C2.32404049,24.4228138 2.31010384,24.4265701 2.29605296,24.4303263 C2.28999852,24.4269115 2.28417254,24.4236106 2.2781181,24.4201958 C2.2938825,24.41348 2.3096469,24.4066504 2.32529707,24.3999346 C2.31810028,24.3919667 2.31090349,24.3837712 2.30359246,24.3756895 L2.30359246,24.3756895 Z M27.6779971,24.9325303 C27.6631466,24.9419779 27.635616,24.9190987 27.6231644,24.9247901 C27.5954053,24.9376525 27.6222505,24.9640603 27.5925495,24.9781748 C27.4917944,25.0265512 27.3998354,25.0900666 27.2929116,25.1498257 C27.2065501,25.1980883 27.0935719,25.2293906 27.0046972,25.2807265 C26.7188817,25.4463446 26.4299819,25.6759333 26.1771803,25.8360876 C26.0812231,25.8968711 25.9406,25.9270352 25.8417869,25.9873635 C25.7043625,26.0713677 25.6034932,26.1673237 25.4630986,26.2555395 C25.2920891,26.362992 25.069217,26.4290115 24.8995783,26.5363502 C23.6533909,27.3261945 22.3920103,28.0385228 21.124004,28.7645103 C20.9352881,28.8725319 20.7744455,29.0093518 20.592241,29.1343336 C20.4541311,29.2290375 20.2812939,29.2887966 20.1369011,29.3707519 C20.0254079,29.4339258 19.9546966,29.5533302 19.838634,29.602048 C19.5740662,29.7130292 19.3607899,29.8911682 19.1041043,30.0570139 C19.0395616,30.0987883 18.9302389,30.1158623 18.8594133,30.1536528 C18.8062942,30.1981591 18.753175,30.2425516 18.6999416,30.2871717 C18.5638879,30.3510285 18.4196094,30.4392443 18.2830988,30.4980928 C17.9866595,30.6256927 17.7356856,30.8527772 17.4528403,31.0166878 C17.2833158,31.1148065 17.0806633,31.1862898 16.9174218,31.2897584 C16.6915796,31.4330663 16.5086897,31.5990258 16.2849037,31.7320894 C16.2280148,31.7660098 16.1329714,31.7895719 16.0769964,31.8262242 C16.0634024,31.8499001 16.0498085,31.87369 16.0363288,31.8973659 C15.9766982,31.9435796 15.8356182,32.0303157 15.7596521,32.0702689 C15.6475878,32.1288897 15.5138188,32.1617856 15.404953,32.2341795 C15.247766,32.3389002 15.0839533,32.4812975 14.8988929,32.4769721 C14.6860735,32.4631991 14.2838527,32.1397032 14.0572109,32.0451131 C13.9666227,32.0073226 13.8730644,31.9325384 13.8122915,31.8939511 C13.6282592,31.7769372 13.3865384,31.6674357 13.2027346,31.511493 C13.1027791,31.4586774 13.0028237,31.4057479 12.9029825,31.3527046 C12.752421,31.3009134 12.613283,31.1936885 12.5102432,31.1291487 C12.3599102,31.0351277 12.2332239,31.0035977 12.0981983,30.9182276 C12.0510194,30.8835104 12.0038404,30.8487932 11.9567756,30.8140761 C11.9103963,30.7916522 11.864017,30.7692283 11.8176377,30.7468044 C11.8062142,30.7324622 11.7946765,30.7180062 11.7831387,30.7035502 C11.6082453,30.6374168 11.4861283,30.5451033 11.3241433,30.4303658 C11.183863,30.3585411 11.0435827,30.2864887 10.9033023,30.2144364 C10.8156842,30.1607101 10.7281804,30.1069838 10.6405623,30.0531437 C10.3531475,29.9390893 9.99227981,29.6272038 9.63049821,29.5017666 C9.52734418,29.4661388 9.5001563,29.4010299 9.42133429,29.3709796 C9.21217037,29.2400788 9.00289222,29.1092917 8.79384254,28.9783909 C8.39653391,28.8408881 8.06708075,28.5023671 7.69067709,28.3622463 C7.60054583,28.2993001 7.51041458,28.2361262 7.42039756,28.1729523 C7.23453754,28.1030626 7.07540847,27.9522421 6.84522535,27.8338622 C6.71499768,27.7670458 6.53176506,27.6881638 6.4153598,27.6128105 C6.23041366,27.4930647 6.00879815,27.3979054 5.84144417,27.2507274 C5.79060969,27.2059934 5.67626065,27.1170947 5.60680589,27.0818084 C5.48320384,27.0152197 5.35937332,26.9487448 5.23565703,26.8822699 C5.04465645,26.715286 4.78922744,26.5821086 4.58908807,26.5025437 C4.41693623,26.3966847 4.24478439,26.2908258 4.07263255,26.184853 C3.5541208,25.9801924 2.98397492,25.4722971 2.42365323,25.281751 C2.40194862,25.2576197 2.38024401,25.2334884 2.35865363,25.2092433 C2.2810882,25.1462971 2.08791716,25.022112 2.00658198,24.9971839 C2.0053254,24.9924032 2.00406882,24.9878501 2.00281223,24.9831832 C2.028972,24.9411811 2.00326917,24.9540436 2.04610722,24.9488075 C2.04096666,24.9142042 2.03536915,24.9367419 2.02063286,24.9107894 C2.02257485,24.9020247 2.0154923,24.9011141 2.02577343,24.9019109 C2.02920047,24.8958781 2.03251328,24.8899591 2.03594033,24.8840401 C2.04313712,24.8921218 2.05033391,24.9000896 2.0575307,24.9082852 C2.18890072,24.9043012 2.34334617,24.850575 2.47071797,24.8484123 C3.01161974,24.8394199 3.5541208,24.8519409 4.07628806,24.7947998 C4.11101544,24.7909297 4.16482003,24.8276958 4.17578657,24.8279234 C4.37147078,24.8308829 4.57892118,24.8437454 4.78271606,24.8429486 C4.95543907,24.8423794 5.16129018,24.8273543 5.33744024,24.8048166 C5.35583204,24.8024262 5.37970712,24.7681644 5.39478611,24.7665708 C5.42288787,24.7638389 5.44002309,24.8048166 5.48034797,24.8035645 C5.55585717,24.801288 5.65170017,24.7794332 5.73017948,24.7806853 C5.79266591,24.7886532 5.85515235,24.7966211 5.91775302,24.8048166 C5.95030993,24.8034507 5.99931666,24.7738557 6.02993159,24.7741972 C6.06305968,24.7852384 6.09618777,24.7961658 6.12931586,24.807207 C6.1609589,24.8075484 6.32728477,24.7675952 6.32956947,24.7678229 C6.34567657,24.780913 6.36178368,24.7941169 6.37800502,24.807207 C6.46265301,24.8229151 6.58499848,24.7986699 6.66884682,24.7955966 C6.69443541,24.8503473 6.96985551,24.8281511 7.02583056,24.8337286 C7.28080263,24.8593396 7.52903485,24.8362328 7.77052721,24.8566078 C7.86545633,24.8645757 7.93182675,24.8950813 8.02184377,24.8933739 C8.06536723,24.8925771 8.14053373,24.8641204 8.17994473,24.8654863 C8.25625358,24.8677628 8.30320408,24.9159116 8.37505777,24.9175051 C8.6584743,24.9233103 8.97273424,24.9181881 9.24724046,24.8830156 C9.49204563,24.896561 9.7368508,24.9101064 9.98177021,24.923538 C10.1353018,24.9153424 10.2595892,24.8736818 10.4038678,24.8689011 C10.7006498,24.8589982 10.9926339,24.9138627 11.2902156,24.9132936 C11.4982372,24.9128382 11.7142552,24.881422 11.9188497,24.8699255 C12.0245169,24.8638927 12.1195602,24.8949674 12.2261413,24.8914388 C12.4341629,24.884723 12.6594339,24.8638927 12.8637999,24.853193 C13.1144311,24.8402167 13.3616352,24.9029353 13.6123806,24.8899591 C13.8347957,24.8786902 14.0607522,24.8325903 14.2881936,24.8264437 C14.4930166,24.8208662 14.6803617,24.870267 14.8799299,24.8682181 C14.9173989,24.8677628 14.9574953,24.8287202 14.9742878,24.827582 C15.010386,24.8248501 14.9921085,24.853876 15.027864,24.8580875 C15.1004031,24.8665107 15.1849368,24.8513718 15.2675286,24.8528515 C15.377194,24.840672 15.4868594,24.8284926 15.5965248,24.8159716 C15.6801447,24.8184758 15.7684482,24.8587705 15.8285357,24.8656001 C16.0237629,24.8874549 16.4773893,24.8864304 16.6587942,24.8426071 C16.6921507,24.8395338 16.6657625,24.8478431 16.6881525,24.8121015 C16.8036439,24.8405582 16.9137663,24.8083452 17.0374825,24.8222321 C17.2929116,24.8508026 17.5530242,24.8838124 17.7912037,24.8500058 C17.8689976,24.8588843 17.9467915,24.8677628 18.0245854,24.8766413 C18.0901562,24.8675352 18.1833718,24.8368019 18.247686,24.8385093 C18.277844,24.8393061 18.3054888,24.8775519 18.319197,24.8792593 C18.4254353,24.8914388 18.5773676,24.8938292 18.6786939,24.8714053 C18.6976569,24.8628683 18.6888608,24.8799423 18.7005127,24.8956504 C18.8783763,24.8298585 19.1021623,24.9267251 19.2793405,24.9185296 C19.3851219,24.9135212 19.5095236,24.8898452 19.617247,24.8865443 C19.6815612,24.8916665 19.7456469,24.8967887 19.8099611,24.901797 C19.8272106,24.9000896 19.8539415,24.8644618 19.8671927,24.8637789 C19.8835283,24.8767551 19.8995212,24.8899591 19.9157425,24.903163 C19.9601799,24.9109032 20.0637908,24.9172775 20.1133687,24.9093096 C20.2124103,24.893943 20.3017419,24.8973578 20.4092369,24.8891623 C20.4283141,24.8762998 20.4475055,24.8635512 20.4665827,24.8509165 C20.4873735,24.8517132 20.496855,24.882105 20.5291834,24.8865443 C20.6106328,24.8973578 20.712873,24.8750477 20.7918092,24.8826741 C20.8706312,24.8903005 20.9309472,24.9236518 21.0059994,24.9220582 C21.3175177,24.9152286 21.644572,24.8934877 21.9522063,24.8825603 C22.0810631,24.8778934 22.1973542,24.9463033 22.3183288,24.9255869 C22.4515266,24.9029353 22.5786699,24.9159116 22.7199784,24.9064639 C22.7853207,24.9021385 22.8634573,24.8704947 22.9291423,24.8722021 C23.014133,24.8890484 23.0991237,24.9058948 23.1841144,24.9230827 C23.3534103,24.9249039 23.532302,24.8883655 23.6979425,24.8733403 C23.8547869,24.859112 24.0101462,24.9040736 24.171103,24.8948536 C24.3157243,24.8865443 24.4799939,24.853193 24.6250721,24.846591 C24.7632962,24.8401029 24.8956943,24.8907558 25.0280925,24.8871134 C25.0623629,24.8752754 25.0968618,24.8633236 25.1313607,24.8515994 C25.360173,24.85251 25.5780188,24.8513718 25.8046606,24.833501 C25.9024456,24.8144919 26.0001164,24.7954828 26.0980156,24.7763599 C26.2106511,24.7685058 26.3210019,24.8084591 26.4372929,24.8043613 C26.7033458,24.7950275 26.9977289,24.7726036 27.2686938,24.7584891 C27.4181129,24.7507489 27.5599925,24.7994667 27.6970743,24.754619 C27.7466522,24.7858075 27.7492796,24.7957104 27.7812654,24.8142642 C27.7392269,24.8364604 27.6979882,24.9196679 27.6779971,24.9325303 L27.6779971,24.9325303 Z" id="Fill-9" sketch:type="MSShapeGroup"></path>
        </g>
    </g>
</svg>